<?xml version="1.0" encoding="utf-8"?><svg xmlns="http://www.w3.org/2000/svg" xmlns:xlink="http://www.w3.org/1999/xlink"><symbol viewBox="0 0 446.53 446.54" shape-rendering="geometricPrecision" text-rendering="geometricPrecision" image-rendering="optimizeQuality" fill-rule="evenodd" clip-rule="evenodd" id="Facebook" xmlns="http://www.w3.org/2000/svg"><path class="afil0" d="M396.91.01H49.61L0 0v446.53l49.61.01h173.65V272.89h-49.61v-61.4h49.61v-50.85c0-53.68 30.07-91.39 93.43-91.39l44.72.05v64.61h-29.69c-24.66 0-34.03 18.51-34.03 35.67v41.93h63.7l-14.09 61.38h-49.61v173.65h99.22l49.62-.01V0l-49.62.01z" id="aСлой_x0020_1"/></symbol><symbol viewBox="0 0 152.09 152.04" shape-rendering="geometricPrecision" text-rendering="geometricPrecision" image-rendering="optimizeQuality" fill-rule="evenodd" clip-rule="evenodd" id="Insta" xmlns="http://www.w3.org/2000/svg"><path class="bfil0" d="M16.12 0h135.92l.05 152.04H0V0h16.12zm38.01 20.98h44.7c9.12 0 17.02 3.65 23.11 9.43 5.77 5.78 9.42 13.99 9.42 22.8v45.01c0 8.82-3.65 17.03-9.42 22.8-6.09 5.78-13.99 9.43-23.11 9.43h-44.7c-8.82 0-17.03-3.65-22.81-9.43-6.08-5.77-9.73-13.98-9.73-22.8V53.21c0-8.81 3.65-17.02 9.73-22.8 5.78-5.78 13.99-9.43 22.81-9.43zm21.89 25.54c8.21 0 15.51 3.35 20.98 8.52 5.17 5.47 8.52 12.77 8.52 20.98S102.17 91.53 97 97c-5.47 5.17-12.77 8.52-20.98 8.52S60.51 102.17 55.04 97c-5.17-5.47-8.52-12.77-8.52-20.98s3.35-15.51 8.52-20.98c5.47-5.17 12.77-8.52 20.98-8.52zm13.99 15.51c-3.65-3.65-8.52-5.78-13.99-5.78-5.47 0-10.34 2.13-13.99 5.78-3.65 3.65-5.78 8.52-5.78 13.99 0 5.47 2.13 10.34 5.78 13.99 3.65 3.65 8.52 5.78 13.99 5.78 5.47 0 10.34-2.13 13.99-5.78 3.65-3.65 5.78-8.52 5.78-13.99 0-5.47-2.13-10.34-5.78-13.99zm15.51-20.07c2.43 0 4.56 2.13 4.56 4.56 0 2.44-2.13 4.57-4.56 4.57-2.44 0-4.26-2.13-4.26-4.57 0-2.43 1.82-4.56 4.26-4.56zm-6.69-11.25h-44.7c-6.39 0-11.86 2.43-16.12 6.39-3.95 4.26-6.69 10.03-6.69 16.11v45.01c0 6.08 2.74 11.86 6.69 15.81 4.26 4.26 9.73 6.69 16.12 6.69h44.7c6.38 0 12.16-2.43 16.11-6.69 4.26-3.95 6.69-9.73 6.69-15.81V53.21c0-6.08-2.43-11.85-6.69-16.11-3.95-3.96-9.73-6.39-16.11-6.39z" id="bСлой_x0020_1"/></symbol><symbol viewBox="0 0 263 263" shape-rendering="geometricPrecision" text-rendering="geometricPrecision" image-rendering="optimizeQuality" fill-rule="evenodd" clip-rule="evenodd" id="Phone-2" xmlns="http://www.w3.org/2000/svg"><path class="cfil0" d="M131 0c73 0 132 59 132 131 0 73-59 132-132 132C59 263 0 204 0 131 0 59 59 0 131 0zm-30 74c4 8 8 17 14 24 1 1 1 4 0 6-4 4-10 7-14 12-1 1-2 2-1 3 8 18 20 34 43 45 2 1 4 1 5 0 4-4 7-10 11-13 2-2 5-3 7-2 8 5 16 11 25 15 1 1 1 2 1 3 0 3-1 11-3 13-16 18-36 13-47 8-30-14-54-36-66-67-4-11-10-30 7-46 2-2 8-3 12-3 2 0 5 0 6 2zm30-46c57 0 104 46 104 103s-47 104-104 104S28 188 28 131 74 28 131 28z" id="cСлой_x0020_1"/></symbol><symbol viewBox="0 0 255.96 255.96" shape-rendering="geometricPrecision" text-rendering="geometricPrecision" image-rendering="optimizeQuality" fill-rule="evenodd" clip-rule="evenodd" id="VK" xmlns="http://www.w3.org/2000/svg"><path class="dfil0" d="M0 0h255.96v255.96H0V0zm199.45 149.03s14.81 14.63 18.47 21.4c.1.14.15.25.17.32 1.49 2.5 1.86 4.46 1.12 5.91-1.23 2.39-5.42 3.59-6.84 3.69h-26.18c-1.82 0-5.61-.48-10.23-3.67-3.53-2.46-7.03-6.52-10.43-10.48-5.08-5.89-9.47-11.01-13.91-11.01-.57 0-1.12.1-1.65.28-3.36 1.06-7.63 5.85-7.63 18.61 0 4-3.15 6.27-5.36 6.27h-11.99c-4.08 0-25.35-1.43-44.21-21.32-23.11-24.35-43.87-73.19-44.07-73.62-1.29-3.16 1.42-4.88 4.35-4.88H67.5c3.54 0 4.7 2.14 5.5 4.07.94 2.21 4.4 11.04 10.08 20.96 9.19 16.14 14.85 22.7 19.36 22.7.85 0 1.66-.21 2.42-.64 5.9-3.24 4.8-24.31 4.53-28.65 0-.84-.01-9.41-3.04-13.55-2.16-2.97-5.84-4.12-8.07-4.54.6-.86 1.86-2.18 3.48-2.96 4.04-2.01 11.34-2.31 18.59-2.31h4.02c7.86.11 9.89.62 12.75 1.34 5.75 1.37 5.86 5.1 5.36 17.8-.15 3.62-.3 7.71-.3 12.52 0 1.03-.05 2.17-.05 3.33-.17 6.52-.4 13.85 4.2 16.87.58.36 1.27.56 1.99.56 1.59 0 6.36 0 19.3-22.21 5.68-9.81 10.08-21.38 10.38-22.25.26-.48 1.03-1.85 1.96-2.4.72-.44 1.67-.51 2.17-.51h31.09c3.39 0 5.69.51 6.14 1.79.75 2.08-.15 8.43-14.34 27.63-2.4 3.2-4.49 5.96-6.33 8.38-12.87 16.89-12.87 17.75.76 30.57z" id="dСлой_x0020_1"/></symbol><symbol viewBox="0 0 2954.52 2954.52" shape-rendering="geometricPrecision" text-rendering="geometricPrecision" image-rendering="optimizeQuality" fill-rule="evenodd" clip-rule="evenodd" id="YouTube" xmlns="http://www.w3.org/2000/svg"><path class="efil0" d="M0 0h2954.52v2954.52H0V0zm2082.18 1963.08H1967l.53-66.9c0-29.73 24.42-54.06 54.25-54.06h7.35c29.9 0 54.39 24.33 54.39 54.06l-1.34 66.9zm-432.04-143.38c-29.22 0-53.12 19.64-53.12 43.69l-.01 325.39c0 24 23.91 43.59 53.13 43.59 29.33 0 53.26-19.6 53.26-43.59l.01-325.39c0-24.07-23.93-43.69-53.27-43.69zm701.66-182.01v619.03c0 148.49-128.76 269.98-286.15 269.98H888.9c-157.45 0-286.18-121.49-286.18-269.98v-619.03c0-148.48 128.73-270.01 286.18-270.01l1176.75-.01c157.39 0 286.15 121.54 286.15 270.02zM967.39 2323.93l-.09-652.08 145.87.05v-96.63l-388.86-.58v94.99l121.39.35v653.9h121.69zm437.28-554.94h-121.63v348.2c0 50.37 3.06 75.57-.18 84.45-9.89 27-54.34 55.69-71.68 2.92-2.93-9.24-.35-37.11-.39-84.96l-.5-350.61h-120.93l.37 345.1c.1 52.89-1.18 92.33.43 110.28 2.96 31.65 1.91 68.54 31.27 89.63 54.71 39.4 159.58-5.88 185.82-62.22l-.23 71.89 97.68.12-.03-554.8zm389.06 398.73l-.26-289.81c-.1-110.45-82.72-176.58-194.87-87.21l.49-215.47-121.47.19-.59 743.71 99.91-1.45 9.1-46.32c127.63 117.1 207.87 36.85 207.69-103.64zm380.62-38.41l-91.18.49c-.05 3.62-.19 7.8-.23 12.34v50.89c0 27.24-22.5 49.42-49.84 49.42l-17.87-.01c-27.37 0-49.88-22.17-49.88-49.42v-133.83h208.81v-78.59c0-57.44-1.47-114.86-6.22-147.69-14.95-103.88-160.76-120.36-234.4-67.19-23.11 16.6-40.77 38.82-51.03 68.68-10.35 29.87-15.5 70.69-15.5 122.52v172.81c.03 287.28 348.97 246.67 307.34-.42zm-467.78-938.15c6.28 15.25 16.03 27.62 29.25 36.94 13.06 9.19 29.75 13.8 49.77 13.8 17.53 0 33.07-4.73 46.58-14.5 13.48-9.73 24.84-24.26 34.12-43.63l-2.3 47.71h135.57V654.96h-106.71v448.7c0 24.3-20.02 44.2-44.48 44.2-24.33 0-44.41-19.9-44.41-44.2v-448.7h-111.37v388.86c0 49.54.9 82.56 2.38 99.3 1.51 16.63 5.34 32.58 11.6 48.04zm-410.82-325.6c0-55.35 4.62-98.56 13.79-129.72 9.23-31.04 25.81-55.99 49.83-74.81 23.95-18.92 54.62-28.39 91.91-28.39 31.37 0 58.23 6.17 80.67 18.22 22.55 12.12 39.94 27.87 52 47.29 12.29 19.5 20.64 39.54 25.09 60.03 4.55 20.77 6.79 52.12 6.79 94.4v145.8c0 53.48-2.14 92.82-6.32 117.8-4.13 25.05-12.99 48.27-26.72 70.05-13.53 21.56-31 37.66-52.18 47.95-21.41 10.38-45.89 15.46-73.55 15.46-30.9 0-56.92-4.26-78.39-13.17-21.52-8.86-38.15-22.23-50-39.98-11.96-17.77-20.38-39.41-25.46-64.64-5.11-25.21-7.54-63.13-7.54-113.67l.08-152.62zm106.18 229c0 32.65 24.31 59.31 53.9 59.31 29.62 0 53.84-26.66 53.84-59.31l-.02-306.9c0-32.6-24.2-59.26-53.82-59.26-29.6 0-53.9 26.66-53.9 59.26v306.9zm-375.18 154.97h127.89l.15-442.17 151.11-378.78-139.88.01-80.34 281.34-81.49-282.11H865.77l160.77 379.76.21 441.95z" id="eСлой_x0020_1"/></symbol><symbol viewBox="0 0 512 512" id="baby-boy" xmlns="http://www.w3.org/2000/svg"><path d="M256 0c-84.459 0-153.172 68.713-153.172 153.172v205.655C102.828 443.287 171.541 512 256 512s153.172-68.713 153.172-153.172V153.172C409.172 68.713 340.459 0 256 0zM117.827 153.172C117.828 76.984 179.812 15 256 15s138.172 61.984 138.172 138.172v58.168c-13.052 25.164-35.443 45.931-66.591 61.738-25.924 13.156-57.89 22.923-95.009 29.031-50.806 8.36-97.566 7.482-114.745 6.76V153.172zm276.346 205.657C394.172 435.016 332.188 497 256 497s-138.172-61.984-138.172-138.172v-1.513c5.671.243 14.078.495 24.557.495 37.067 0 99.963-3.154 158.645-21.031a7.5 7.5 0 0 0-4.371-14.349c-72.817 22.183-154.794 20.825-178.831 19.845v-18.372c5.302.227 13.005.454 22.545.454 23.28 0 57.487-1.356 94.347-7.399 38.694-6.343 72.176-16.583 99.515-30.435C359.49 273.727 379.554 257.8 394.173 239v119.829z"/><path d="M356.874 305.123a7.502 7.502 0 0 0-10.156-3.062 238.145 238.145 0 0 1-16.615 8.078 7.5 7.5 0 1 0 6.043 13.728 253.562 253.562 0 0 0 17.666-8.589 7.5 7.5 0 0 0 3.062-10.155zm-4.744-185.106C338.104 79.333 299.41 51.413 256 51.413c-5.389 0-10.706.432-15.911 1.264.954-6.754 6.756-11.971 13.769-11.971a7.5 7.5 0 0 0 0-15c-15.948 0-28.922 12.975-28.922 28.922 0 .563.02 1.121.052 1.676-30.012 9.691-54.558 33.081-65.118 63.712-17.443.974-31.335 15.473-31.335 33.155 0 17.682 13.892 32.183 31.335 33.156 14.026 40.685 52.719 68.604 96.13 68.604s82.104-27.919 96.13-68.604c17.443-.974 31.335-15.473 31.335-33.155s-13.892-32.181-31.335-33.155zm-1.871 51.364c-.513 0-1.202-.099-2-.213l-.512-.072a7.496 7.496 0 0 0-8.261 5.412c-10.419 37.344-44.75 63.425-83.486 63.425-38.736 0-73.067-26.082-83.486-63.425a7.501 7.501 0 0 0-8.26-5.412l-.512.072c-.798.114-1.487.213-2 .213-10.039 0-18.207-8.167-18.207-18.207 0-10.04 8.167-18.208 18.206-18.208.513 0 1.201.099 1.998.212l.516.073a7.498 7.498 0 0 0 8.259-5.413c7.975-28.583 29.965-50.552 57.211-59.294 5.181 7.83 14.062 13.007 24.133 13.007a7.5 7.5 0 0 0 0-15 13.84 13.84 0 0 1-6.611-1.673 86.078 86.078 0 0 1 8.753-.464c38.736 0 73.067 26.081 83.486 63.425a7.5 7.5 0 0 0 8.259 5.413l.516-.073c.797-.114 1.485-.212 1.998-.212 10.039 0 18.207 8.167 18.207 18.207 0 10.04-8.167 18.207-18.207 18.207z"/><path d="M287.501 182.686a7.499 7.499 0 0 0-10.556-1.032c-5.307 4.361-12.94 6.863-20.945 6.863s-15.638-2.502-20.945-6.863a7.5 7.5 0 1 0-9.524 11.588c8.062 6.626 18.882 10.275 30.469 10.275s22.408-3.649 30.469-10.275a7.5 7.5 0 0 0 1.032-10.556zm-74.346-45.583a7.5 7.5 0 0 0-7.5 7.5v8.569a7.5 7.5 0 0 0 15 0v-8.569a7.5 7.5 0 0 0-7.5-7.5zm85.69 0a7.5 7.5 0 0 0-7.5 7.5v8.569a7.5 7.5 0 0 0 15 0v-8.569a7.5 7.5 0 0 0-7.5-7.5z"/></symbol><symbol viewBox="0 0 512 512" id="back" xmlns="http://www.w3.org/2000/svg"><path d="M493.52 211.306c-11.937-11.937-27.807-18.509-44.728-18.509l-233.002-.003 28.465-28.464c11.957-11.941 18.542-27.824 18.542-44.722 0-34.849-28.353-63.2-63.218-63.2-16.874 0-32.741 6.574-44.681 18.512L18.601 211.219c-8.84 8.806-14.827 19.891-17.315 32.055A63.578 63.578 0 0 0 0 256c0 16.928 6.607 32.833 18.584 44.761l136.287 136.287c11.939 11.958 27.823 18.544 44.724 18.544 34.849 0 63.201-28.353 63.202-63.201.003-16.879-6.57-32.752-18.512-44.697l-28.493-28.493h233.035c16.886 0 32.759-6.574 44.694-18.512 24.639-24.644 24.639-64.741-.001-89.383zm-21.215 68.169c-6.269 6.269-14.608 9.724-23.478 9.724h-269.25a15.002 15.002 0 0 0-10.607 25.609l54.099 54.099c6.273 6.275 9.728 14.614 9.727 23.48-.001 18.307-14.895 33.202-33.2 33.202-8.879 0-17.221-3.458-23.5-9.748L39.776 279.524c-6.302-6.278-9.775-14.633-9.775-23.524 0-2.261.228-4.518.676-6.71 1.304-6.37 4.448-12.185 9.117-16.835l136.319-136.32c6.271-6.271 14.606-9.725 23.481-9.725 18.307 0 33.201 14.893 33.201 33.198 0 8.878-3.459 17.22-9.748 23.499l-54.079 54.078a15.003 15.003 0 0 0 10.607 25.609l269.259.003c8.865 0 17.201 3.453 23.47 9.722 12.945 12.946 12.945 34.01.001 46.956z"/></symbol><symbol viewBox="0 0 511.999 511.999" id="birthday-cake" xmlns="http://www.w3.org/2000/svg"><path d="M473.333 301.634H449.65V188.691c0-21.879-17.8-39.68-39.68-39.68H244.524V86.416h22.952v35.704a8.632 8.632 0 0 0 17.264 0V77.784a8.632 8.632 0 0 0-8.632-8.632h-11.476v-8.907c9.826-3.546 16.87-12.962 16.87-23.995 0-11.452-13.396-27.219-19.156-33.467a8.627 8.627 0 0 0-12.693-.001c-5.759 6.247-19.156 22.015-19.156 33.467 0 11.033 7.044 20.451 16.87 23.995v8.907h-11.476a8.632 8.632 0 0 0-8.632 8.632v71.228H102.03c-21.88 0-39.68 17.8-39.68 39.68v82.865a8.632 8.632 0 0 0 17.264 0v-82.867c0-12.359 10.055-22.415 22.415-22.415H409.97c12.36 0 22.415 10.055 22.415 22.415v112.944H38.667a8.632 8.632 0 0 0-8.632 8.632c0 27.286 22.199 49.485 49.485 49.485h150.207v50.895c-34.342 5.206-60.746 34.925-60.746 70.697v22.023a8.632 8.632 0 0 0 8.632 8.632h156.774a8.632 8.632 0 0 0 8.632-8.632v-22.023c0-35.772-26.404-65.492-60.746-70.697V359.75H432.48c27.286 0 49.485-22.199 49.485-49.485a8.632 8.632 0 0 0-8.632-8.631zM255.999 22.062c4.645 6.069 8.115 11.887 8.237 14.202-.008 4.535-3.7 8.223-8.237 8.223-4.542 0-8.238-3.696-8.239-8.214.116-2.311 3.589-8.135 8.239-14.211zm69.755 459.283v13.39H186.245v-13.39c0-29.91 24.334-54.244 54.244-54.244h31.021c29.91 0 54.244 24.334 54.244 54.244zm-78.762-71.509v-48.26h18.017v48.26h-18.017zm185.488-67.349H79.52c-14.777 0-27.264-10-31.046-23.588h415.054c-3.784 13.588-16.27 23.588-31.048 23.588z"/><path d="M404.966 202.988c-.186-.002-.371-.005-.555-.005-13.969 0-23.441 9.339-31.807 17.59-6.748 6.654-12.585 12.373-19.084 12.208-5.773-.169-9.845-4.76-16.012-12.237-6.649-8.064-14.925-18.098-28.816-18.504-13.743-.428-23.015 8.781-31.186 16.883-6.979 6.921-13.007 12.899-20.622 12.906h-.013c-7.54 0-13.378-5.999-20.135-12.944-8.103-8.328-17.28-17.761-31.519-17.761l-.276.001c-14.882.127-24.253 10.388-32.521 19.44-7.57 8.288-12.596 13.371-18.913 13.302-6.298-.017-11.231-5.059-18.609-13.359-7.846-8.829-16.736-18.832-30.832-18.832h-.167a8.633 8.633 0 0 0 .047 17.265c.036.002.072.001.109.001 5.924 0 10.735 4.931 17.938 13.036 7.569 8.516 16.988 19.114 31.465 19.156h.086c14.34 0 23.521-10.053 31.623-18.923 6.741-7.381 12.564-13.756 19.92-13.82h.115c6.493 0 11.581 4.744 19.16 12.535 8.286 8.516 17.677 18.168 32.506 18.168h.03c14.715-.014 24.723-9.938 32.764-17.911 7.573-7.51 12.609-12.028 18.524-11.885 5.768.168 9.837 4.758 16.001 12.231 6.651 8.065 14.929 18.102 28.825 18.51 13.873.429 23.356-8.933 31.713-17.172 6.861-6.765 12.795-12.618 19.72-12.618.073 0 .144 0 .216.002l.155.001a8.633 8.633 0 0 0 .15-17.264z"/></symbol><symbol viewBox="0 0 512 512" id="birthday-cake-2" xmlns="http://www.w3.org/2000/svg"><path d="M503.581 447.667h-28.396V349.17c0-22.047-17.936-39.983-39.983-39.983h-12.327V206.495c0-19.733-16.055-35.788-35.788-35.788h-99.762V88.151a8.419 8.419 0 0 0-8.418-8.419h-14.489V67.156c11.134-3.569 19.218-14.017 19.218-26.321 0-12.899-16.416-31.709-21.447-37.166a8.415 8.415 0 0 0-12.378 0c-5.031 5.457-21.447 24.267-21.447 37.166 0 12.303 8.084 22.751 19.218 26.321v12.577h-14.489a8.42 8.42 0 0 0-8.419 8.419v82.556h-99.762c-19.733 0-35.788 16.055-35.788 35.788v74.069a8.419 8.419 0 0 0 16.837 0v-74.069c0-10.449 8.502-18.951 18.951-18.951h262.175c10.449 0 18.951 8.502 18.951 18.951v102.692H76.797c-22.048 0-39.983 17.936-39.983 39.983v69.082a8.419 8.419 0 0 0 16.837 0v-69.082c0-12.764 10.383-23.146 23.146-23.146H435.2c12.764 0 23.146 10.383 23.146 23.146v98.497H8.419A8.42 8.42 0 0 0 0 456.087c0 30.303 24.654 54.957 54.957 54.957h402.086c30.303 0 54.957-24.654 54.957-54.957a8.419 8.419 0 0 0-8.419-8.42zM245.201 40.834c0-2.897 4.664-10.666 10.799-18.466 6.135 7.8 10.799 15.569 10.799 18.466 0 5.955-4.845 10.799-10.799 10.799-5.955 0-10.799-4.844-10.799-10.799zm25.287 129.873h-28.977V96.569h28.977v74.138zm186.555 323.499H54.957c-18.128 0-33.341-12.719-37.183-29.702h476.452c-3.842 16.983-19.055 29.702-37.183 29.702z"/><path d="M377.719 212.133c-12.217-.199-20.606 8.066-27.354 14.721-6.11 6.024-10.159 9.661-14.526 9.543-4.103-.12-7.237-3.674-12.009-9.461-5.593-6.783-12.556-15.224-24.498-15.574-11.793-.351-19.563 7.357-26.415 14.151-6.339 6.286-10.567 10.102-15.818 10.108h-.009c-5.18 0-9.276-3.824-15.401-10.121-6.456-6.636-14.481-14.884-26.671-14.884l-.231.001c-12.725.109-20.916 9.077-27.498 16.284-5.897 6.458-9.809 10.382-14.351 10.382h-.022c-4.549-.012-8.369-3.943-14.121-10.413-6.26-7.043-14.043-15.802-26.151-15.802h-.14a8.419 8.419 0 0 0-8.371 8.466 8.417 8.417 0 0 0 8.505 8.372c4.245 0 7.964 3.839 13.574 10.15 6.348 7.142 14.246 16.03 26.659 16.066h.072c12.292 0 20.325-8.794 26.781-15.864 6.112-6.692 10.186-10.759 15.209-10.803 4.884-.019 8.76 3.693 14.69 9.788 6.597 6.78 14.804 15.216 27.468 15.216h.026c12.555-.011 20.93-8.316 27.659-14.989 5.804-5.755 9.664-9.279 13.849-9.279l.218.002c4.098.12 7.23 3.672 12 9.457 5.596 6.784 12.558 15.227 24.505 15.578 11.925.378 20.186-7.82 26.843-14.384 6.288-6.201 10.445-9.985 15.235-9.874 4.69.064 8.485-3.62 8.566-8.269.077-4.652-3.623-8.486-8.273-8.568zm56.932 139.38c-12.574-.391-20.936 7.93-28.32 15.253-6.085 6.033-11.341 11.248-17.799 11.29-5.012-.109-8.605-3.842-14.035-9.913-6.203-6.931-13.922-15.558-26.936-15.787-.165-.002-.328-.005-.492-.005-12.762 0-21.683 8.797-28.869 15.883-5.894 5.812-10.978 10.814-16.474 10.67-4.831-.141-8.364-4.136-13.728-10.64-6.019-7.298-13.509-16.381-26.216-16.753-12.563-.391-20.937 7.93-28.32 15.253-6.105 6.055-11.378 11.283-17.866 11.29h-.011c-5.979 0-10.571-4.276-17.42-11.313-6.96-7.154-15.611-16.045-28.616-16.045l-.244.001c-13.577.116-22.41 9.788-29.509 17.56-6.599 7.226-10.992 11.616-16.288 11.616h-.027c-5.308-.015-9.6-4.416-16.04-11.66-6.77-7.617-15.168-17.058-28.171-17.024a8.419 8.419 0 1 0 .097 16.839c5.022-.072 9.186 4.278 15.491 11.372 6.84 7.696 15.353 17.275 28.577 17.312h.08c13.096-.001 21.394-9.084 28.715-17.1 6.832-7.481 11.401-12.027 17.22-12.078h.093c5.501 0 9.934 4.144 16.555 10.95 7.113 7.312 15.965 16.409 29.486 16.409h.027c13.411-.012 22.446-8.972 29.706-16.171 6.61-6.555 10.954-10.513 15.973-10.38 4.826.141 8.357 4.134 13.719 10.635 6.02 7.299 13.512 16.385 26.223 16.757 12.696.394 21.24-8.066 28.79-15.511 6.06-5.976 11.276-11.172 17.241-11.033 5.391.094 9.093 3.93 14.685 10.18 6.111 6.83 13.717 15.33 26.396 15.52l.135.001c13.411-.012 22.446-8.972 29.706-16.171 6.611-6.555 10.97-10.497 15.973-10.38 4.654.143 8.525-3.521 8.661-8.168a8.417 8.417 0 0 0-8.168-8.659z"/></symbol><symbol viewBox="0 0 512 512" id="delivery-truck" xmlns="http://www.w3.org/2000/svg"><path d="M395.583 139.041h-54.69a8.429 8.429 0 0 0-8.429 8.429v93.881a8.429 8.429 0 0 0 8.429 8.429h107.49a8.429 8.429 0 0 0 8.429-8.429v-41.095c0-33.753-27.468-61.215-61.229-61.215zm-46.261 93.882V155.9h46.261c24.467 0 44.37 19.899 44.37 44.357v32.666h-90.631zM122.503 349.479c-16.375 0-29.698 13.323-29.698 29.698s13.323 29.698 29.698 29.698 29.698-13.323 29.698-29.698-13.323-29.698-29.698-29.698zm0 42.537c-7.079 0-12.839-5.76-12.839-12.839 0-7.079 5.76-12.839 12.839-12.839s12.839 5.76 12.839 12.839c.001 7.08-5.759 12.839-12.839 12.839zm267.993-42.537c-16.375 0-29.699 13.323-29.699 29.698s13.323 29.698 29.699 29.698 29.698-13.323 29.698-29.698-13.323-29.698-29.698-29.698zm0 42.537c-7.081 0-12.84-5.76-12.84-12.839 0-7.079 5.76-12.839 12.84-12.839 7.079 0 12.839 5.76 12.839 12.839 0 7.08-5.76 12.839-12.839 12.839zm57.887-111.82a8.429 8.429 0 0 0-8.429 8.429v25.301c0 4.655 3.773 8.429 8.429 8.429s8.429-3.774 8.429-8.429v-25.301a8.43 8.43 0 0 0-8.429-8.429z"/><path d="M503.571 346.908h-6.81v-146.65c0-55.782-45.388-101.165-101.179-101.165h-86.211V79.557a8.429 8.429 0 0 0-8.429-8.429H29.288a8.43 8.43 0 0 0-8.429 8.429v34.011a8.43 8.43 0 0 0 16.858 0V87.986h254.797v186.992h-18.527c-4.656 0-8.429 3.774-8.429 8.429s3.773 8.429 8.429 8.429h18.527v78.911H183.607c-4.125-30.043-29.946-53.266-61.105-53.266s-56.979 23.223-61.104 53.266H37.717v-6.982h8.429a8.43 8.43 0 0 0 0-16.858h-8.429v-55.071h208.172a8.43 8.43 0 0 0 0-16.858H37.717V141.666a8.43 8.43 0 0 0-16.858 0v205.242H8.429a8.43 8.43 0 0 0 0 16.858h12.429v15.411a8.43 8.43 0 0 0 8.429 8.429h32.111c4.125 30.043 29.946 53.266 61.105 53.266 31.159 0 56.979-23.223 61.105-53.266h145.783c4.125 30.043 29.947 53.266 61.105 53.266 31.158 0 56.979-23.223 61.104-53.266h36.732a8.429 8.429 0 0 0 8.429-8.429v-15.411h6.81a8.429 8.429 0 0 0 8.429-8.429 8.429 8.429 0 0 0-8.429-8.429zm-381.068 77.106c-24.723 0-44.837-20.113-44.837-44.837 0-24.723 20.113-44.837 44.837-44.837 24.723 0 44.837 20.113 44.837 44.837 0 24.723-20.114 44.837-44.837 44.837zm267.993 0c-24.719 0-44.829-20.106-44.837-44.822l.001-.015-.001-.015c.008-24.717 20.119-44.822 44.837-44.822 24.722 0 44.837 20.113 44.837 44.837-.001 24.723-20.115 44.837-44.837 44.837zm89.407-53.266h-28.304c-4.125-30.043-29.946-53.266-61.104-53.266-31.158 0-56.98 23.223-61.105 53.266h-20.019V115.951h86.211c46.494 0 84.32 37.82 84.32 84.307v146.65h-14.049a8.429 8.429 0 0 0-8.429 8.429 8.429 8.429 0 0 0 8.429 8.429h14.05v6.982z"/></symbol><symbol viewBox="0 0 511.998 511.998" id="delivery-truck-2" xmlns="http://www.w3.org/2000/svg"><path d="M55.676 207.671H30.023c-4.523 0-8.188 3.666-8.188 8.188s3.665 8.188 8.188 8.188h25.653c4.523 0 8.188-3.666 8.188-8.188s-3.665-8.188-8.188-8.188zm43.67 92.793H40.941c-4.523 0-8.188 3.666-8.188 8.188s3.665 8.188 8.188 8.188h58.406c4.523 0 8.188-3.666 8.188-8.188s-3.665-8.188-8.189-8.188zm-21.835-49.126H8.188c-4.523 0-8.188 3.666-8.188 8.188s3.665 8.188 8.188 8.188h69.323c4.523 0 8.188-3.666 8.188-8.188s-3.665-8.188-8.188-8.188zm0 114.628h-6.715a8.187 8.187 0 0 0-8.188 8.188 8.187 8.187 0 0 0 8.188 8.188h6.715a8.188 8.188 0 0 0 0-16.376zm-34.009 0H8.188A8.187 8.187 0 0 0 0 374.154a8.187 8.187 0 0 0 8.188 8.188h35.314a8.189 8.189 0 0 0 0-16.376zm384.269-206.838h-69.403v-14.739a8.187 8.187 0 0 0-8.188-8.188H246.016c-4.523 0-8.188 3.666-8.188 8.188s3.665 8.188 8.188 8.188h95.976v172.495a8.187 8.187 0 0 0 8.188 8.188 8.187 8.187 0 0 0 8.188-8.188V175.504h69.403c37.414 0 67.851 30.434 67.851 67.842v138.5h-20.818c-3.938-24.717-25.397-43.67-51.206-43.67-25.808 0-47.268 18.953-51.205 43.67h-14.026v-29.48a8.187 8.187 0 0 0-8.188-8.188 8.187 8.187 0 0 0-8.188 8.188v29.48H255.09c-3.938-24.717-25.397-43.67-51.205-43.67s-47.268 18.953-51.206 43.67H135.65V262.43c0-4.522-3.665-8.188-8.188-8.188s-8.188 3.666-8.188 8.188v127.604a8.187 8.187 0 0 0 8.188 8.188h25.217c3.938 24.717 25.398 43.67 51.206 43.67s47.268-18.953 51.205-43.67h117.302c3.938 24.717 25.397 43.67 51.205 43.67s47.268-18.953 51.205-43.67h29.006a8.187 8.187 0 0 0 8.188-8.188V243.346c.004-46.438-37.782-84.218-84.225-84.218zM203.885 425.516c-19.565 0-35.482-15.917-35.482-35.482 0-19.565 15.917-35.482 35.482-35.482 19.565 0 35.482 15.917 35.482 35.482 0 19.566-15.917 35.482-35.482 35.482zm219.715 0c-19.561 0-35.474-15.909-35.482-35.468l.001-.014-.001-.014c.008-19.559 15.921-35.468 35.482-35.468 19.565 0 35.482 15.917 35.482 35.482 0 19.566-15.917 35.482-35.482 35.482z"/><path d="M479.248 243.346c0-28.378-23.092-51.465-51.476-51.465h-44.838a8.187 8.187 0 0 0-8.188 8.188v76.969a8.187 8.187 0 0 0 8.188 8.188h88.128a8.187 8.187 0 0 0 8.188-8.188v-33.692h-.002zm-88.127 25.505v-60.592h36.65c19.355 0 35.1 15.741 35.1 35.089v25.503h-71.75zM203.885 368.925c-11.64 0-21.11 9.47-21.11 21.11 0 11.64 9.47 21.11 21.11 21.11 11.64 0 21.11-9.47 21.11-21.11 0-11.64-9.47-21.11-21.11-21.11zm0 25.843a4.74 4.74 0 0 1-4.734-4.734 4.74 4.74 0 0 1 4.734-4.734 4.74 4.74 0 0 1 4.734 4.734 4.74 4.74 0 0 1-4.734 4.734zM423.6 368.925c-11.64 0-21.11 9.47-21.11 21.11 0 11.64 9.47 21.11 21.11 21.11 11.64 0 21.11-9.47 21.11-21.11 0-11.64-9.47-21.11-21.11-21.11zm0 25.843a4.74 4.74 0 0 1-4.734-4.734 4.74 4.74 0 0 1 4.734-4.734 4.74 4.74 0 0 1 4.734 4.734 4.74 4.74 0 0 1-4.734 4.734zm47.46-87.161a8.187 8.187 0 0 0-8.188 8.188v20.743a8.187 8.187 0 0 0 8.188 8.188 8.187 8.187 0 0 0 8.188-8.188v-20.743a8.188 8.188 0 0 0-8.188-8.188zM140.782 70.105c-11.045 0-21.812 2.041-32.003 6.064a8.188 8.188 0 0 0 6.015 15.231c8.266-3.264 17.01-4.919 25.988-4.919 39.037 0 70.796 31.759 70.796 70.796s-31.759 70.796-70.796 70.796c-39.037 0-70.796-31.759-70.796-70.796 0-19.857 8.419-38.925 23.097-52.317a8.187 8.187 0 0 0 .531-11.567 8.19 8.19 0 0 0-11.568-.531c-18.072 16.488-28.437 39.966-28.437 64.415.001 48.068 39.107 87.173 87.173 87.173 48.067 0 87.172-39.106 87.172-87.172 0-48.067-39.105-87.173-87.172-87.173z"/><path d="M161.004 149.089H148.97v-37.398c0-4.522-3.665-8.188-8.188-8.188s-8.188 3.666-8.188 8.188v45.586a8.187 8.187 0 0 0 8.188 8.188h20.223a8.188 8.188 0 0 0-.001-16.376z"/></symbol><symbol viewBox="0 0 512 512" id="gift" xmlns="http://www.w3.org/2000/svg"><path d="M467.086 93.484H363.747c13.196-12.66 21.437-30.447 21.437-50.135V9.689A9.688 9.688 0 0 0 375.495 0h-59.672C290.393 0 268.119 13.736 256 34.171 243.882 13.736 221.609 0 196.177 0h-59.672a9.688 9.688 0 0 0-9.689 9.689v33.66c0 19.688 8.241 37.475 21.437 50.135H44.915a9.688 9.688 0 0 0-9.689 9.689v68.549a9.688 9.688 0 0 0 9.689 9.689H206.91v311.213H85.652c-9.627 0-17.461-7.832-17.461-17.461V229.086c0-5.351-4.337-9.689-9.689-9.689s-9.689 4.338-9.689 9.689v246.075c0 20.313 16.525 36.838 36.838 36.838h340.694c20.313 0 36.838-16.525 36.838-36.838V171.337a9.688 9.688 0 0 0-9.689-9.689H305.09v-48.786h152.305v19.661c0 5.351 4.337 9.689 9.689 9.689s9.689-4.338 9.689-9.689v-29.349a9.686 9.686 0 0 0-9.687-9.69zm-161.995 87.542h138.718v294.136c0 9.628-7.832 17.461-17.461 17.461H305.091V181.026zm-98.181-18.993H54.604v-49.171h152.305v49.171zm-10.58-68.549c-27.645 0-50.135-22.491-50.135-50.135V19.378h49.983c27.644 0 50.135 22.491 50.135 50.135v23.971H196.33zm89.384 399.138h-59.425v-379.76h59.424v379.76zm29.958-399.138H265.69V69.513c0-27.644 22.49-50.135 50.134-50.135h49.983v23.971c0 27.644-22.49 50.135-50.135 50.135z"/></symbol><symbol viewBox="0 0 24 24" id="ic_clear_black_24px" xmlns="http://www.w3.org/2000/svg"><path d="M19 6.41L17.59 5 12 10.59 6.41 5 5 6.41 10.59 12 5 17.59 6.41 19 12 13.41 17.59 19 19 17.59 13.41 12z"/><path d="M0 0h24v24H0z"/></symbol><symbol viewBox="0 0 24 24" id="ic_dehaze_black_24px" xmlns="http://www.w3.org/2000/svg"><path d="M2 15.5v2h20v-2H2zm0-5v2h20v-2H2zm0-5v2h20v-2H2z"/><path d="M0 0h24v24H0z"/></symbol><symbol viewBox="0 0 512 512" id="online-support" xmlns="http://www.w3.org/2000/svg"><circle cx="226.33" cy="139.91" r="8.611"/><circle cx="284.88" cy="139.91" r="8.611"/><path d="M257.776 397.334c-14.309 0-25.951 11.641-25.951 25.951s11.641 25.951 25.951 25.951c14.309 0 25.951-11.641 25.951-25.951-.001-14.31-11.642-25.951-25.951-25.951zm0 36.773c-5.967 0-10.823-4.855-10.823-10.823 0-5.967 4.855-10.823 10.823-10.823 5.967 0 10.823 4.855 10.823 10.823-.001 5.968-4.856 10.823-10.823 10.823z"/><path d="M428.378 496.872h-24.803v-17.313a7.565 7.565 0 0 0-15.128 0v17.313h-15.706a21.14 21.14 0 0 0 .902-6.097V358.918c0-13.426-10.923-24.349-24.349-24.349h-35.785c12.648-8.328 23.337-19.522 31.181-32.908l4.731 1.107c22.978 5.377 39.026 25.613 39.026 49.212v91.944a7.565 7.565 0 0 0 15.128 0V351.98c0-30.662-20.852-56.956-50.707-63.942l-32.063-7.502c-11.034-2.582-18.74-12.299-18.74-23.631v-11.39a85.894 85.894 0 0 0 22.002-19.696c18.346-.184 33.248-14.976 33.616-33.278 8.865-2.74 15.325-11.011 15.325-20.764v-42.11c0-10.198-7.072-18.755-16.562-21.083a7.506 7.506 0 0 0 1.658-.243 7.564 7.564 0 0 0 5.331-9.274c-7.831-29.013-20.453-52.091-37.513-68.593C306.286 11.479 284.538 1.238 261.284.037c-1.132-.054-21.801-.928-45.223 10.128-10.684-5.368-22.607-8.195-34.639-8.195-42.554 0-77.174 34.62-77.174 77.174 0 27.119 14.068 51.938 37.025 65.917v26.716c0 11.982 9.748 21.73 21.73 21.73h11.371c5.671 23.002 20.702 42.346 40.807 53.765v9.633c0 11.332-7.706 21.049-18.741 23.631l-32.062 7.502c-29.856 6.985-50.708 33.28-50.708 63.942v144.892H83.622a7.565 7.565 0 0 0 0 15.128h344.756a7.565 7.565 0 0 0 0-15.128zm-92.799-290.388a84.517 84.517 0 0 0 4.328-12.978h2.581a18.825 18.825 0 0 1-6.909 12.978zm22.3-76.818v42.11a6.61 6.61 0 0 1-6.602 6.602h-8.886v-55.314h8.886a6.61 6.61 0 0 1 6.602 6.602zm-216.375-3.007c-13.887-11.648-22.129-28.908-22.129-47.515 0-34.212 27.834-62.046 62.046-62.046a62.31 62.31 0 0 1 18.249 2.744 101.924 101.924 0 0 0-6.317 4.951 7.563 7.563 0 0 0-.859 10.662 7.562 7.562 0 0 0 10.662.859c26.233-22.322 57.057-21.186 57.346-21.168 19.497 1.007 37.968 9.823 54.901 26.202 15.069 14.576 26.315 35.323 33.425 61.662.644 2.386 2.369 4.176 4.498 5.031a21.71 21.71 0 0 0-2.05-.104h-9.073c-.756-3.38-3.769-5.908-7.377-5.908a7.523 7.523 0 0 0-4.083 1.203c-.023.015-.044.022-.067.037-8.947 5.871-30.183 9.476-41.469 9.476-27.61 0-54.198-9.863-76.76-27.874l-26.616-28.692c.434-.658.868-1.314 1.309-1.952a7.565 7.565 0 0 0-12.445-8.601 128.628 128.628 0 0 0-4.759 7.434l-.007.009-.025.042-.068.111-.012.024A98.77 98.77 0 0 0 156.95 85.41a98.74 98.74 0 0 0-1.967 24.078c-7.124 2.842-12.388 9.341-13.479 17.171zm30.384 46.445v5.274h-8.886a6.61 6.61 0 0 1-6.602-6.602v-28.945a7.534 7.534 0 0 0 0-4.006v-9.16a6.61 6.61 0 0 1 6.602-6.602h8.886v50.041zm5.896-70.886a7.512 7.512 0 0 0-2.786 1.27 86.078 86.078 0 0 1-4.98 1.991 83.622 83.622 0 0 1 7.405-34.395c5.728 7.122 11.88 13.638 18.393 19.511-6.433 5.267-11.977 8.491-14.456 9.823a84.127 84.127 0 0 1-3.576 1.8zm9.232 70.887v-58.583c.502-.259 1.008-.511 1.505-.778 3.207-1.723 10.777-6.139 19.211-13.414 24.18 17.829 52.275 27.541 81.476 27.541 9.423 0 25.367-2.087 38.055-6.482v51.715c0 13.827-4.039 26.72-10.975 37.594h-51.112a7.565 7.565 0 0 0 0 15.128h38.123c-12.344 10.821-28.493 17.402-46.16 17.402-38.666.001-70.123-31.457-70.123-70.123zm12.871 122.161c17.912-4.191 30.422-19.966 30.422-38.361v-2.898a84.884 84.884 0 0 0 26.831 4.35 84.823 84.823 0 0 0 29.797-5.385v3.932c0 18.395 12.51 34.171 30.422 38.361l11.78 2.756c-12.141 18.321-30.827 31.203-52.513 35.901a7.58 7.58 0 0 0-1.803.646h-32.398a7.58 7.58 0 0 0-1.803-.646c-21.686-4.698-40.373-17.581-52.514-35.901l11.779-2.755zm158.628 195.509a6.104 6.104 0 0 1-6.097 6.097H163.133a6.104 6.104 0 0 1-6.097-6.097v-94.841a7.565 7.565 0 0 0-15.128 0v94.841c0 2.12.321 4.164.902 6.097h-14.012V351.98c0-23.599 16.048-43.836 39.027-49.212l4.73-1.107c7.845 13.386 18.533 24.58 31.181 32.908h-37.479c-13.426 0-24.349 10.923-24.349 24.349v8.693a7.565 7.565 0 0 0 15.128 0v-8.693c0-5.085 4.137-9.221 9.221-9.221h183.037c5.085 0 9.221 4.137 9.221 9.221v131.857z"/><path d="M282.029 183.426a7.5 7.5 0 0 0-10.606 0c-3.743 3.742-8.719 5.803-14.011 5.803s-10.268-2.06-14.01-5.803a7.498 7.498 0 0 0-10.606 0 7.5 7.5 0 0 0 0 10.606c6.575 6.576 15.318 10.197 24.617 10.197s18.042-3.622 24.616-10.197a7.5 7.5 0 0 0 0-10.606z"/></symbol><symbol viewBox="0 0 512 512" id="phone-call" xmlns="http://www.w3.org/2000/svg"><path d="M492.557 400.56L392.234 300.238c-11.976-11.975-31.458-11.975-43.435 0l-26.088 26.088c-8.174 8.174-10.758 19.845-7.773 30.241l-9.843 9.843-.008.008c-6.99 6.998-50.523-3.741-103.145-56.363-52.614-52.613-63.356-96.139-56.366-103.142 0-.002.002-.002.002-.002l9.852-9.851a30.876 30.876 0 0 0 8.523 1.207c7.865 0 15.729-2.993 21.718-8.98l26.088-26.088c11.975-11.975 11.975-31.458 0-43.434L111.436 19.441c-5.8-5.8-13.513-8.994-21.716-8.994-8.205 0-15.915 3.196-21.716 8.994l-26.09 26.09c-8.174 8.174-10.758 19.846-7.773 30.241 0 0-8.344 8.424-8.759 8.956-27.753 30.849-32.96 79.418-14.561 137.487 18.017 56.857 56.857 117.088 109.367 169.595 52.508 52.508 112.739 91.348 169.596 109.367 22.84 7.237 44.207 10.823 63.61 10.823 31.813 0 58.337-9.648 77.35-28.66l5.474-5.474a30.83 30.83 0 0 0 8.532 1.213c8.205 0 15.917-3.196 21.716-8.994l26.09-26.09c11.975-11.975 11.975-31.459.001-43.435zM89.72 41.157l100.324 100.325-26.074 26.102-.014-.014-.375-.375-49.787-49.787-50.163-50.161 26.089-26.09zm319.309 420.466l-.005.005c-22.094 22.091-61.146 25.74-109.961 10.27-52.252-16.558-108.065-52.714-157.156-101.806C92.814 321 56.658 265.189 40.101 212.936c-15.47-48.817-11.821-87.87 10.275-109.967l.002-.002 2.77-2.77 77.857 77.856-7.141 7.141-.015.017c-29.585 29.622 5.963 96.147 56.378 146.562 37.734 37.734 84.493 67.14 118.051 67.14 11.284 0 21.076-3.325 28.528-10.778l.008-.008 7.133-7.133 77.857 77.856-2.775 2.773zm35.723-13.255L344.428 348.044l26.088-26.088L470.84 422.278s-26.079 26.099-26.088 26.09zm-55.934-325.184c-29.209-29.209-68.042-45.294-109.344-45.293-8.481 0-15.356 6.875-15.356 15.356s6.876 15.356 15.356 15.356c33.1-.002 64.219 12.89 87.628 36.297 23.406 23.406 36.295 54.525 36.294 87.624 0 8.481 6.875 15.358 15.356 15.358 8.48 0 15.356-6.875 15.356-15.354.001-41.304-16.085-80.135-45.29-109.344z"/><path d="M443.895 68.107C399.972 24.186 341.578-.002 279.468 0c-8.481 0-15.356 6.876-15.356 15.356 0 8.481 6.876 15.356 15.356 15.356 53.907-.002 104.588 20.992 142.709 59.111 38.118 38.118 59.111 88.799 59.11 142.706 0 8.481 6.875 15.356 15.356 15.356 8.48 0 15.356-6.875 15.356-15.354.002-62.112-24.186-120.504-68.104-164.424zM333.737 178.26c-14.706-14.706-33.465-22.477-54.256-22.477h-.006c-8.481.002-15.356 6.876-15.354 15.358.002 8.481 6.878 15.356 15.358 15.354h.005c12.644 0 23.593 4.536 32.539 13.481 8.819 8.82 13.481 20.075 13.479 32.544-.002 8.481 6.875 15.356 15.354 15.358h.002c8.481 0 15.354-6.875 15.356-15.354.001-20.792-7.77-39.556-22.477-54.264z"/></symbol><symbol viewBox="0 0 470 470" id="quality" xmlns="http://www.w3.org/2000/svg"><path d="M429.591 418.378L367.368 268.16a7.5 7.5 0 1 0-13.858 5.74l56.251 135.801-51.309-14.867a7.497 7.497 0 0 0-8.656 3.586l-25.769 46.793-60.357-145.716c69.663-13.434 122.447-74.853 122.447-148.378C386.118 67.792 318.327 0 235 0S83.881 67.792 83.881 151.119c0 33.751 11.124 64.951 29.896 90.133L40.409 418.378a7.5 7.5 0 0 0 9.017 10.074l60.533-17.541 30.4 55.207a7.502 7.502 0 0 0 13.499-.748l58.136-140.353a7.5 7.5 0 1 0-13.858-5.74l-52.165 125.936-25.767-46.793a7.5 7.5 0 0 0-8.657-3.586l-51.308 14.867 64.397-155.469c27.598 29.52 66.86 48.005 110.364 48.005 4.491 0 8.933-.209 13.325-.594l67.818 163.727a7.498 7.498 0 0 0 13.498.748l30.401-55.207 60.533 17.541a7.499 7.499 0 0 0 9.016-10.074zM98.881 151.119C98.881 76.063 159.944 15 235 15s136.118 61.063 136.118 136.119S310.056 287.237 235 287.237 98.881 226.175 98.881 151.119z"/><path d="M321.659 122.961a7.5 7.5 0 0 0-5.892-5.079l-50.467-8.469-23.649-45.379a7.5 7.5 0 0 0-13.302 0l-23.65 45.379-50.466 8.469a7.499 7.499 0 0 0-4.111 12.651l35.85 36.515-7.54 50.614a7.5 7.5 0 0 0 10.761 7.819L235 202.669l45.806 22.812a7.496 7.496 0 0 0 7.752-.645 7.5 7.5 0 0 0 3.01-7.173l-7.539-50.614 35.85-36.516a7.5 7.5 0 0 0 1.78-7.572zm-50.951 36.244a7.498 7.498 0 0 0-2.066 6.359l5.97 40.074-36.268-18.061a7.506 7.506 0 0 0-6.687 0l-36.268 18.061 5.97-40.074a7.497 7.497 0 0 0-2.066-6.359l-28.385-28.912 39.957-6.706a7.499 7.499 0 0 0 5.41-3.93L235 83.728l18.725 35.93a7.5 7.5 0 0 0 5.41 3.93l39.958 6.706-28.385 28.911z"/><path d="M348.612 158.684c-4.107-.549-7.877 2.343-8.42 6.45-6.957 52.507-52.18 92.104-105.192 92.104-58.514 0-106.119-47.604-106.119-106.119S176.486 45 235 45c53.013 0 98.235 39.596 105.192 92.104.543 4.107 4.32 7.001 8.42 6.45a7.5 7.5 0 0 0 6.449-8.42C347.121 75.198 295.506 30 235 30c-66.785 0-121.119 54.333-121.119 121.119S168.215 272.237 235 272.237c60.506 0 112.121-45.198 120.062-105.134a7.5 7.5 0 0 0-6.45-8.419z"/></symbol><symbol viewBox="0 0 20 20" id="shopping-basket" xmlns="http://www.w3.org/2000/svg"><path d="M18.399 7h-5.007L11.58 8.812a2.384 2.384 0 0 1-1.696.702c-.642 0-1.244-.25-1.698-.703a2.387 2.387 0 0 1-.703-1.695c0-.039.01-.077.011-.116H1.6a.6.6 0 0 0-.6.6V10h18V7.6a.6.6 0 0 0-.601-.6zm-7.631.999l5.055-5.055a.6.6 0 0 0 .002-.849l-.92-.92a.603.603 0 0 0-.85 0L9 6.231a1.25 1.25 0 0 0 1.768 1.768zm-6.945 9.272c.097.401.515.729.927.729h10.5c.412 0 .83-.328.927-.729L17.7 11H2.3l1.523 6.271z"/></symbol><symbol viewBox="0 0 512 512" id="stopwatch" xmlns="http://www.w3.org/2000/svg"><path d="M246.607 161.407a7.51 7.51 0 0 0-7.51 7.51v28.729a7.51 7.51 0 0 0 15.02 0v-28.729a7.51 7.51 0 0 0-7.51-7.51zm0 243.439a7.51 7.51 0 0 0-7.51 7.51v28.729a7.51 7.51 0 0 0 15.02 0v-28.729a7.51 7.51 0 0 0-7.51-7.51zm-47.174-196.572l-14.364-24.879a7.508 7.508 0 0 0-10.259-2.749 7.51 7.51 0 0 0-2.749 10.259l14.365 24.88a7.507 7.507 0 0 0 10.258 2.748 7.509 7.509 0 0 0 2.749-10.259zm121.721 210.823l-14.365-24.88a7.509 7.509 0 0 0-10.259-2.749 7.512 7.512 0 0 0-2.748 10.26l14.365 24.88a7.507 7.507 0 0 0 10.258 2.748 7.51 7.51 0 0 0 2.749-10.259zM157.391 244.82l-24.88-14.364a7.51 7.51 0 1 0-7.51 13.008l24.88 14.364a7.505 7.505 0 0 0 10.258-2.748 7.51 7.51 0 0 0-2.748-10.26zm210.823 121.72l-24.88-14.365a7.508 7.508 0 0 0-10.259 2.749 7.511 7.511 0 0 0 2.75 10.258l24.88 14.365a7.507 7.507 0 0 0 10.258-2.748 7.512 7.512 0 0 0-2.749-10.259zm-228.961-69.049h-28.729a7.51 7.51 0 0 0 0 15.02h28.729a7.51 7.51 0 0 0 0-15.02zm243.439 0h-28.729a7.51 7.51 0 0 0 0 15.02h28.729c4.148 0 7.51-3.362 7.51-7.51s-3.362-7.51-7.51-7.51zm-222.551 57.431a7.51 7.51 0 0 0-10.259-2.749l-24.88 14.365a7.51 7.51 0 0 0 3.762 14.016 7.476 7.476 0 0 0 3.748-1.008l24.88-14.365a7.51 7.51 0 0 0 2.749-10.259zm210.822-121.718a7.51 7.51 0 0 0-10.258-2.748l-24.88 14.364a7.51 7.51 0 1 0 7.509 13.007l24.88-14.364a7.51 7.51 0 0 0 2.749-10.259zM196.685 391.469a7.508 7.508 0 0 0-10.259 2.749l-14.365 24.88a7.51 7.51 0 0 0 2.75 10.258 7.507 7.507 0 0 0 10.258-2.748l14.365-24.88a7.51 7.51 0 0 0-2.749-10.259zm121.719-210.823a7.508 7.508 0 0 0-10.259 2.749l-14.365 24.88a7.51 7.51 0 0 0 2.75 10.258 7.505 7.505 0 0 0 10.258-2.748l14.365-24.88a7.51 7.51 0 0 0-2.749-10.259z"/><path d="M433.304 145.343a12.51 12.51 0 0 0 8.874 3.67 12.51 12.51 0 0 0 8.874-3.67l17.663-17.663a12.47 12.47 0 0 0 3.676-8.875c0-3.353-1.306-6.505-3.676-8.874l-50.198-50.198c-4.894-4.893-12.856-4.893-17.748 0l-17.663 17.663c-4.894 4.893-4.894 12.856 0 17.749l1.938 1.938-31.026 31.026a205.685 205.685 0 0 0-66.463-26.032V63.105h9.607c6.92 0 12.55-5.63 12.55-12.55V12.55c0-6.92-5.63-12.55-12.55-12.55H196.053c-6.92 0-12.55 5.63-12.55 12.55v38.004c0 6.92 5.63 12.55 12.55 12.55h9.607v38.973c-94.592 19.058-166.05 102.8-166.05 202.924 0 36.856 9.81 73.047 28.369 104.658 18.01 30.676 43.772 56.362 74.499 74.281a7.51 7.51 0 0 0 7.567-12.975c-28.507-16.623-52.406-40.452-69.113-68.911-17.207-29.307-26.302-62.868-26.302-97.053 0-105.857 86.122-191.979 191.979-191.979 105.858 0 191.979 86.122 191.979 191.979 0 105.858-86.122 191.979-191.979 191.979-17.992 0-35.798-2.485-52.924-7.386a7.511 7.511 0 0 0-9.286 5.154 7.51 7.51 0 0 0 5.154 9.286c18.47 5.286 37.666 7.966 57.056 7.966 114.14 0 206.999-92.859 206.999-206.999 0-51.187-18.685-98.085-49.579-134.257l27.339-27.339 1.936 1.938zm-160.768-45.72a208.166 208.166 0 0 0-51.855 0V63.105h51.855v36.518zM213.17 48.085h-14.648V15.02h96.17v33.065H213.17zm196.475 24.016l46.705 46.705-14.17 14.17-46.705-46.705 14.17-14.17zm-15.786 87.571a208.619 208.619 0 0 0-27.058-23.104l28.466-28.466 25.081 25.081-26.489 26.489z"/><path d="M246.607 135.56c-36.083 0-70.529 11.19-99.615 32.361a7.51 7.51 0 0 0 8.838 12.144c26.501-19.29 57.89-29.485 90.776-29.485 85.148 0 154.421 69.273 154.421 154.421s-69.273 154.421-154.421 154.421-154.42-69.273-154.42-154.421c0-33.83 10.734-65.946 31.042-92.878a7.51 7.51 0 1 0-11.992-9.043c-22.288 29.558-34.07 64.802-34.07 101.921 0 93.43 76.011 169.441 169.441 169.441s169.441-76.011 169.441-169.441S340.037 135.56 246.607 135.56z"/><path d="M246.608 277.079c-8.017 0-15.251 3.401-20.348 8.831l-36.508-22.998a7.51 7.51 0 0 0-8.006 12.708l37.535 23.645a27.946 27.946 0 0 0-.595 5.736c0 15.397 12.526 27.922 27.922 27.922 15.397 0 27.922-12.526 27.922-27.922 0-15.397-12.526-27.922-27.922-27.922zm-.001 40.825c-7.114 0-12.903-5.788-12.903-12.903s5.789-12.903 12.903-12.903 12.903 5.788 12.903 12.903-5.787 12.903-12.903 12.903z"/></symbol><symbol viewBox="0 0 512 512" id="store" xmlns="http://www.w3.org/2000/svg"><path d="M504 440h-24V214.965c13.868-3.682 24-16.799 24-32.324V72c0-8.822-7.178-16-16-16H24c-8.822 0-16 7.178-16 16v110.642c0 15.525 10.132 28.642 24 32.324V440H8a8 8 0 0 0 0 16h496a8 8 0 0 0 0-16zM48 215.002c5.204-1.332 10.005-3.974 14.025-7.789a31.328 31.328 0 0 0 1.983-2.061C69.876 211.801 78.457 216 88 216c9.547 0 18.132-4.203 24-10.855 5.868 6.652 14.453 10.855 24 10.855s18.132-4.203 24-10.855c5.868 6.652 14.453 10.855 24 10.855s18.132-4.203 24-10.855c5.868 6.652 14.453 10.855 24 10.855s18.132-4.203 24-10.855c5.868 6.652 14.453 10.855 24 10.855s18.132-4.203 24-10.855c.124.141.257.274.383.413a7.987 7.987 0 0 0-.383 2.443v168H48V215.002zM432 256v-41.023a32.041 32.041 0 0 0 15.992-9.823 31.58 31.58 0 0 0 1.983 2.061c4.02 3.814 8.823 6.45 14.025 7.782V376h-32V256zm40.872-56.023a15.857 15.857 0 0 1-11.883-4.368A15.856 15.856 0 0 1 456 184v-4.686l20.104 20.104c-1.042.304-2.122.5-3.232.559zM456 156.686v-25.372l32 32v19.328c0 1.825-.282 3.591-.784 5.261L456 156.686zm32-16l-32-32V83.314l32 32v25.372zm-48-28.688V184c0 8.822-7.178 16-16 16s-16-7.178-16-16V72h32v39.998zm-80 44.688v-25.372l32 32V184c0 1.429-.206 2.808-.559 4.127L360 156.686zm32-16l-32-32V83.314l32 32v25.372zm-32 38.628l20.127 20.127A15.925 15.925 0 0 1 376 200c-8.822 0-16-7.178-16-16v-4.686zm32-86.628L371.314 72H392v20.686zm-48 19.312V184c0 8.822-7.178 16-16 16s-16-7.178-16-16V72h32v39.998zm-80 44.688v-25.372l32 32V184c0 1.429-.206 2.808-.559 4.127L264 156.686zm32-16l-32-32V83.314l32 32v25.372zm-32 38.628l20.127 20.127A15.925 15.925 0 0 1 280 200c-8.822 0-16-7.178-16-16v-4.686zm32-86.628L275.314 72H296v20.686zm-48 19.312V184c0 8.822-7.178 16-16 16s-16-7.178-16-16V72h32v39.998zm-80 44.688v-25.372l32 32V184c0 1.429-.206 2.808-.559 4.127L168 156.686zm32-16l-32-32V83.314l32 32v25.372zm-32 38.628l20.127 20.127A15.925 15.925 0 0 1 184 200c-8.822 0-16-7.178-16-16v-4.686zm32-86.628L179.314 72H200v20.686zm-48 19.312V184c0 8.822-7.178 16-16 16s-16-7.178-16-16V72h32v39.998zm-48 28.688l-32-32V83.314l32 32v25.372zm0 22.628V184c0 1.429-.206 2.808-.559 4.127L72 156.686v-25.372l32 32zm-32 16l20.127 20.127A15.925 15.925 0 0 1 88 200c-8.822 0-16-7.178-16-16v-4.686zm32-86.628L83.314 72H104v20.686zm216 122.291a31.938 31.938 0 0 0 8 1.023c9.547 0 18.132-4.203 24-10.855 5.868 6.652 14.453 10.855 24 10.855s18.132-4.203 24-10.855a32.039 32.039 0 0 0 16 9.832V248h-96v-33.023zM432 392h32v16h-8a8 8 0 0 0 0 16h8v16h-32v-48zm56-299.314L467.314 72H488v20.686zM24 182.642V72h32v112c0 4.433-1.771 8.556-4.989 11.608-3.214 3.049-7.438 4.607-11.883 4.368C30.786 199.54 24 191.764 24 182.642zM48 424h232a8 8 0 0 0 0-16H48v-16h256v48H48v-16zm272 16V264h96v176h-96z"/><path d="M336 336a8 8 0 0 0-8 8v16a8 8 0 0 0 16 0v-16a8 8 0 0 0-8-8zM109.657 234.343a8.001 8.001 0 0 0-11.313 0 7.999 7.999 0 0 0 0 11.314l112 112c1.562 1.562 3.609 2.343 5.657 2.343s4.095-.781 5.657-2.343a7.999 7.999 0 0 0 0-11.314l-112.001-112zm72 24a8.001 8.001 0 0 0-11.313 0 7.999 7.999 0 0 0 0 11.314l64 64c1.562 1.562 3.609 2.343 5.657 2.343s4.095-.781 5.657-2.343a7.999 7.999 0 0 0 0-11.314l-64.001-64z"/></symbol><symbol viewBox="0 0 511.999 511.999" id="thumbs-up" xmlns="http://www.w3.org/2000/svg"><circle cx="116.32" cy="462.288" r="11.961"/><path d="M462.599 381.562a25.014 25.014 0 0 0 3.825-13.316v-4.212c0-13.88-11.291-25.17-25.17-25.17h-78.257c-1.7 0-3.361.171-4.967.495l14.054-70.82c2.061-10.386 2.295-20.595.695-30.345-2.659-16.209-11.221-35.529-36.907-35.529a7.512 7.512 0 0 0-7.406 6.253l-4.93 29.01c-1.948 11.461-4.621 22.378-7.942 32.448-9.197 27.887-20.802 42.181-41.39 50.987a1080.309 1080.309 0 0 0-21.136 9.307H222.08v-6.005a7.51 7.51 0 0 0-7.512-7.512h-50.853v-8.105a7.51 7.51 0 0 0-7.512-7.512H29.925a7.51 7.51 0 0 0-7.512 7.512v44.576a7.511 7.511 0 0 0 7.512 7.512 7.511 7.511 0 0 0 7.512-7.512V316.56h111.255v176.83H37.438V378.665a7.51 7.51 0 0 0-7.512-7.512 7.511 7.511 0 0 0-7.512 7.512v122.237a7.511 7.511 0 0 0 7.512 7.512h126.279a7.51 7.51 0 0 0 7.512-7.512v-8.105h50.853a7.51 7.51 0 0 0 7.512-7.512v-3.521h29.96l16.143 13.069c13.552 10.972 30.618 17.014 48.056 17.014h45.767c.053 0 .104-.007.156-.008.966.103 1.944.16 2.937.16h53.663c15.041 0 27.277-12.236 27.277-27.276 0-4.514-1.109-8.772-3.059-12.527 13.23-1.871 23.44-13.263 23.44-27.001a27.125 27.125 0 0 0-4.537-15.043c8.111-4.184 13.672-12.642 13.672-22.38v-4.211c.002-9.449-5.235-17.695-12.958-21.999zm-99.602-27.671h78.257v-.001c5.594 0 10.146 4.551 10.146 10.146v4.212c0 5.594-4.551 10.146-10.146 10.146h-78.257c-5.594 0-10.146-4.551-10.146-10.146v-4.038a162.53 162.53 0 0 0 1.286-5.103c1.736-3.108 5.055-5.216 8.86-5.216zm-25.171 130.835c0 4.343 1.026 8.45 2.84 12.099H316.24a61.554 61.554 0 0 1-38.6-13.669l-18.212-14.743a7.51 7.51 0 0 0-4.727-1.674h-32.62v-21.542a7.51 7.51 0 0 0-7.512-7.512 7.511 7.511 0 0 0-7.512 7.512v32.576h-43.341V332.178h43.341v87.979a7.511 7.511 0 0 0 7.512 7.512 7.51 7.51 0 0 0 7.512-7.512v-74.461h32.62a7.506 7.506 0 0 0 3.139-.687c.095-.043 9.631-4.424 22.272-9.831 24.751-10.584 39.164-27.995 49.752-60.096 3.556-10.783 6.409-22.435 8.484-34.635l3.756-22.1c8.815 2.056 13.675 9.044 15.847 22.282 1.307 7.967 1.104 16.374-.606 24.987l-16.016 80.709a6.88 6.88 0 0 0-.076.456c-.019.14-.424 2.962-1.418 7.407a24.972 24.972 0 0 0-1.897 7.522c-5.951 21.245-21.266 57.652-56.33 57.652a7.511 7.511 0 0 0-7.512 7.512 7.511 7.511 0 0 0 7.512 7.512c23.252 0 42.635-11.998 56.54-34.819a25.326 25.326 0 0 0-.321 3.998v4.212c0 7.188 3.033 13.676 7.881 18.267-4.869 4.929-7.881 11.696-7.881 19.155 0 7.773 3.273 14.791 8.507 19.763-5.236 4.973-8.508 11.99-8.508 19.764zm80.94 12.249h-53.663c-6.755 0-12.251-5.496-12.251-12.251s5.496-12.252 12.251-12.252h53.663c6.755 0 12.252 5.496 12.252 12.252-.001 6.755-5.497 12.251-12.252 12.251zm20.383-39.527h-74.045c-6.755 0-12.251-5.496-12.251-12.251s5.496-12.251 12.251-12.251h74.046c6.755 0 12.251 5.496 12.251 12.251-.001 6.754-5.497 12.251-12.252 12.251zm21.385-49.674c.001 5.594-4.55 10.146-10.145 10.146h-87.393c-5.594 0-10.146-4.552-10.146-10.146v-4.212c0-5.594 4.551-10.146 10.146-10.146h87.392c5.594 0 10.146 4.551 10.146 10.146v4.212zM173.123 108.399c-1.666-5.123-6.012-8.786-11.343-9.561l-34.159-4.964-15.276-30.953c-2.385-4.831-7.213-7.832-12.601-7.832-5.387 0-10.215 3.001-12.6 7.832L71.87 93.874l-34.158 4.964c-5.332.774-9.678 4.437-11.344 9.561-1.666 5.123-.304 10.643 3.555 14.407l24.718 24.093-5.834 34.02c-.911 5.311 1.231 10.576 5.588 13.744a14.001 14.001 0 0 0 8.247 2.698c2.233 0 4.477-.539 6.552-1.629l30.552-16.062 30.552 16.062c4.769 2.507 10.438 2.097 14.796-1.069 4.359-3.166 6.501-8.433 5.59-13.744l-5.835-34.02 24.718-24.095c3.859-3.761 5.221-9.281 3.556-14.405zm-39.128 28.097a14.047 14.047 0 0 0-4.042 12.437l5.588 32.58-29.259-15.381a14.047 14.047 0 0 0-13.078-.001l-29.259 15.382 5.587-32.58a14.052 14.052 0 0 0-4.04-12.437L41.82 113.423l32.715-4.754a14.045 14.045 0 0 0 10.58-7.687l14.629-29.644 14.628 29.642a14.042 14.042 0 0 0 10.58 7.689l32.712 4.754-23.669 23.073zm197.156-83.187c-1.666-5.123-6.012-8.786-11.343-9.561l-34.159-4.964-15.276-30.952C267.989 3.001 263.161 0 257.773 0s-10.215 3.001-12.6 7.832l-15.276 30.953-34.158 4.964c-5.332.773-9.678 4.437-11.344 9.561-1.666 5.123-.304 10.643 3.555 14.407l24.719 24.094-5.835 34.019c-.911 5.311 1.231 10.576 5.588 13.744 4.359 3.167 10.027 3.576 14.798 1.07l30.552-16.062 30.552 16.062a14.05 14.05 0 0 0 6.552 1.629 14.01 14.01 0 0 0 8.247-2.698c4.358-3.167 6.5-8.433 5.588-13.743l-5.835-34.02 24.72-24.095c3.858-3.764 5.22-9.284 3.555-14.408zm-39.127 28.098a14.054 14.054 0 0 0-4.042 12.437l5.588 32.58-29.26-15.382a14.051 14.051 0 0 0-13.077 0l-29.259 15.382 5.588-32.58a14.05 14.05 0 0 0-4.041-12.437L199.85 58.334l32.713-4.754a14.046 14.046 0 0 0 10.581-7.687l14.629-29.643 14.629 29.644a14.047 14.047 0 0 0 10.58 7.686l32.713 4.754-23.671 23.073zM488.887 108.4c-1.666-5.123-6.012-8.786-11.343-9.561l-34.159-4.964-15.275-30.953c-2.385-4.831-7.212-7.832-12.6-7.832s-10.215 3.001-12.6 7.832l-15.276 30.953-34.158 4.964c-5.332.774-9.678 4.437-11.344 9.561-1.665 5.124-.303 10.644 3.556 14.406l24.718 24.095-5.835 34.019c-.911 5.311 1.23 10.576 5.588 13.744 4.359 3.167 10.026 3.577 14.798 1.07l30.552-16.062 30.552 16.062a14.05 14.05 0 0 0 6.552 1.629c2.902 0 5.784-.909 8.247-2.698 4.358-3.167 6.5-8.433 5.588-13.743l-5.835-34.02 24.72-24.094c3.857-3.765 5.22-9.285 3.554-14.408zm-39.128 28.098a14.051 14.051 0 0 0-4.04 12.435l5.588 32.58-29.26-15.382a14.05 14.05 0 0 0-13.077 0l-29.259 15.382 5.588-32.58a14.046 14.046 0 0 0-4.041-12.437l-23.671-23.073 32.711-4.754a14.048 14.048 0 0 0 10.581-7.687L415.51 71.34l14.629 29.644a14.05 14.05 0 0 0 10.58 7.686l32.713 4.754-23.673 23.074z"/></symbol><symbol viewBox="0 0 512 512" id="wedding-cake" xmlns="http://www.w3.org/2000/svg"><path d="M504.471 478.652h-22.588V380.77c0-20.759-16.888-37.647-37.647-37.647h-22.588v-82.824c0-20.759-16.888-37.647-37.647-37.647h-22.588v-67.765c0-20.759-16.888-37.647-37.647-37.647H188.235c-20.759 0-37.647 16.888-37.647 37.647v67.765H128c-20.759 0-37.647 16.888-37.647 37.647v82.824H67.765c-20.759 0-37.647 16.888-37.647 37.647v97.882H7.529a7.53 7.53 0 0 0 0 15.058H504.47a7.53 7.53 0 0 0 .001-15.058zM165.647 177.473h24.747c4.146 0 7.529-3.373 7.529-7.529 0-4.146-3.383-7.529-7.529-7.529h-24.747v-7.526c0-12.456 10.133-22.588 22.588-22.588h135.529c12.456 0 22.588 10.133 22.588 22.588v7.526h-37.647a7.556 7.556 0 0 0-5.321 2.209 7.574 7.574 0 0 0-2.209 5.321 7.478 7.478 0 0 1-2.209 5.331 7.47 7.47 0 0 1-5.321 2.199 7.47 7.47 0 0 1-5.321-2.199 7.478 7.478 0 0 1-2.209-5.331 7.541 7.541 0 0 0-7.53-7.53h-58.077c-4.156 0-7.529 3.383-7.529 7.529a7.532 7.532 0 0 0 7.529 7.529h51.833c3.182 9.015 11.736 15.059 21.303 15.059s18.121-6.044 21.303-15.059h31.403v45.179H165.647v-45.179zm-60.235 105.411h30.118v7.529c0 6.044 2.349 11.716 6.616 15.982a22.471 22.471 0 0 0 15.972 6.606c12.459 0 22.588-10.13 22.588-22.588v-7.529h76.579c3.182 9.015 11.736 15.059 21.303 15.059s18.121-6.044 21.303-15.059h23.873c4.146 0 7.529-3.373 7.529-7.529 0-4.146-3.383-7.529-7.529-7.529h-30.118a7.539 7.539 0 0 0-7.53 7.53c-.01 4.146-3.383 7.529-7.529 7.529s-7.519-3.383-7.529-7.529a7.543 7.543 0 0 0-7.53-7.53h-90.353a7.556 7.556 0 0 0-5.321 2.209 7.572 7.572 0 0 0-2.209 5.321v15.059c-.01 4.146-3.383 7.529-7.529 7.529s-7.519-3.383-7.529-7.529v-15.059a7.541 7.541 0 0 0-7.53-7.53H105.41V260.3c0-12.456 10.133-22.588 22.588-22.588h256c12.456 0 22.588 10.133 22.588 22.588v7.526H353.88c-4.156 0-7.529 3.383-7.529 7.529a7.532 7.532 0 0 0 7.529 7.529h52.706v60.238H105.412v-60.238zm361.412 105.412h-37.647a7.556 7.556 0 0 0-5.321 2.209 7.56 7.56 0 0 0-2.209 5.321v15.059a7.461 7.461 0 0 1-2.209 5.331c-1.416 1.416-3.303 2.199-5.321 2.199s-3.905-.783-5.321-2.199a7.461 7.461 0 0 1-2.209-5.331v-15.059a7.574 7.574 0 0 0-2.209-5.321 7.56 7.56 0 0 0-5.321-2.209h-90.353a7.556 7.556 0 0 0-5.321 2.209 7.574 7.574 0 0 0-2.209 5.321v30.118a7.461 7.461 0 0 1-2.209 5.331 7.47 7.47 0 0 1-5.321 2.199c-4.146-.01-7.519-3.383-7.529-7.529v-30.118a7.556 7.556 0 0 0-2.209-5.321 7.559 7.559 0 0 0-5.321-2.209H147.366c-4.146 0-7.519 3.383-7.519 7.529 0 4.156 3.373 7.529 7.519 7.529h123.693v22.588c0 6.044 2.359 11.716 6.626 15.982 4.257 4.257 9.929 6.606 15.962 6.606s11.706-2.349 15.972-6.616c4.267-4.257 6.616-9.929 6.616-15.972v-22.588h75.294v7.529c0 6.044 2.349 11.716 6.616 15.982a22.471 22.471 0 0 0 15.972 6.606c12.459 0 22.588-10.13 22.588-22.588v-7.529h30.118v75.297H45.176v-75.297h72.072a7.532 7.532 0 0 0 7.529-7.529c0-4.146-3.373-7.529-7.529-7.529H45.176v-7.526c0-12.456 10.133-22.588 22.588-22.588h376.471c12.456 0 22.588 10.133 22.588 22.588v7.525zM292.52 26.965c-5.584-5.593-13.013-8.673-20.919-8.673-5.597 0-10.957 1.544-15.594 4.43-4.64-2.888-10.005-4.433-15.608-4.433-7.904 0-15.332 3.075-20.915 8.658-11.525 11.525-11.528 30.291-.004 41.834.094.093.191.185.29.274l30.9 30.916a7.526 7.526 0 0 0 5.326 2.211H256a7.526 7.526 0 0 0 5.324-2.206l31.191-31.192c5.59-5.59 8.669-13.019 8.669-20.917 0-7.901-3.08-15.327-8.664-20.902zm-10.653 31.173l-25.862 25.863-25.858-25.864a6.803 6.803 0 0 0-.23-.22c-5.439-5.688-5.369-14.739.216-20.322a14.416 14.416 0 0 1 10.266-4.248c3.781 0 7.342 1.432 10.061 4.037a7.526 7.526 0 0 0 10.863.225 14.44 14.44 0 0 1 10.277-4.258c3.879 0 7.523 1.51 10.27 4.263a14.396 14.396 0 0 1 4.254 10.255 14.425 14.425 0 0 1-4.257 10.269z"/></symbol><symbol viewBox="0 0 90 90" id="whatsapp-logo" xmlns="http://www.w3.org/2000/svg"><path d="M90 43.841c0 24.213-19.779 43.841-44.182 43.841a44.256 44.256 0 0 1-21.357-5.455L0 90l7.975-23.522a43.38 43.38 0 0 1-6.34-22.637C1.635 19.628 21.416 0 45.818 0 70.223 0 90 19.628 90 43.841zM45.818 6.982c-20.484 0-37.146 16.535-37.146 36.859 0 8.065 2.629 15.534 7.076 21.61L11.107 79.14l14.275-4.537A37.122 37.122 0 0 0 45.819 80.7c20.481 0 37.146-16.533 37.146-36.857S66.301 6.982 45.818 6.982zm22.311 46.956c-.273-.447-.994-.717-2.076-1.254-1.084-.537-6.41-3.138-7.4-3.495-.993-.358-1.717-.538-2.438.537-.721 1.076-2.797 3.495-3.43 4.212-.632.719-1.263.809-2.347.271-1.082-.537-4.571-1.673-8.708-5.333-3.219-2.848-5.393-6.364-6.025-7.441-.631-1.075-.066-1.656.475-2.191.488-.482 1.084-1.255 1.625-1.882.543-.628.723-1.075 1.082-1.793.363-.717.182-1.344-.09-1.883-.27-.537-2.438-5.825-3.34-7.977-.902-2.15-1.803-1.792-2.436-1.792-.631 0-1.354-.09-2.076-.09s-1.896.269-2.889 1.344c-.992 1.076-3.789 3.676-3.789 8.963 0 5.288 3.879 10.397 4.422 11.113.541.716 7.49 11.92 18.5 16.223C58.2 65.771 58.2 64.336 60.186 64.156c1.984-.179 6.406-2.599 7.312-5.107.9-2.512.9-4.663.631-5.111z"/></symbol>
<symbol xmlns="http://www.w3.org/2000/svg" id="choco" xml:space="preserve" style="shape-rendering:geometricPrecision; text-rendering:geometricPrecision; image-rendering:optimizeQuality; fill-rule:evenodd; clip-rule:evenodd" viewBox="0 0 12.55 14.26" xmlns:xlink="http://www.w3.org/1999/xlink"><g><path d="M11 4.38c0.49,0.53 0.88,1.15 1.15,1.82 0.26,0.65 0.4,1.36 0.4,2.1 0,3.41 -2.95,5.96 -6.28,5.96 -1.72,0 -3.29,-0.67 -4.43,-1.74 -1.13,-1.08 -1.84,-2.57 -1.84,-4.22 0,-0.69 0.12,-1.35 0.35,-1.97 0.23,-0.64 0.58,-1.22 1.01,-1.74 0.58,-0.69 1.72,-1.68 2.86,-2.69 0.65,-0.57 1.3,-1.14 1.86,-1.66l0.25 -0.24 0.26 0.24c0.47,0.43 0.83,0.76 1.2,1.1 1.21,1.09 2.44,2.21 3.21,3.04zm0.77 3.41c-0.82,2.62 -2.92,4.49 -5.27,5.71 0.24,-0.01 0.55,-0.04 0.79,-0.08 2.49,-0.44 4.51,-2.49 4.51,-5.12 0,-0.17 -0.01,-0.34 -0.03,-0.51zm-6.88 5.57c3.14,-1.33 5.99,-3.69 6.41,-7.22 -0.26,-0.53 -0.5,-0.87 -0.91,-1.3 -0.72,3.66 -3.95,6.39 -7.27,7.74 0.55,0.36 1.11,0.63 1.77,0.78zm-2.54 -1.39c3.45,-1.28 6.8,-4.03 7.3,-7.87 -0.29,-0.29 -0.68,-0.67 -1.01,-0.98 -0.71,3.76 -3.88,6.25 -7.3,7.53 0.26,0.49 0.61,0.93 1.01,1.32zm-1.34 -2.1c3.33,-1.25 6.44,-3.7 6.88,-7.44 -0.2,-0.18 -0.4,-0.36 -0.6,-0.54 -0.16,-0.15 -0.32,-0.29 -0.48,-0.43 -0.6,3.24 -3.15,5.48 -6.06,6.76 0,0.02 0,0.05 0,0.08 0,0.54 0.09,1.07 0.26,1.57zm-0.14 -2.64c2.43,-1.19 4.56,-3.12 5.09,-5.87 -0.39,0.36 -0.82,0.73 -1.25,1.11 -1.12,0.98 -2.23,1.95 -2.77,2.6 -0.38,0.45 -0.68,0.97 -0.89,1.52 -0.07,0.21 -0.13,0.42 -0.18,0.64z"/></g></symbol><symbol xmlns="http://www.w3.org/2000/svg" id="visa" xmlns:xlink="http://www.w3.org/1999/xlink" xml:space="preserve" style="shape-rendering:geometricPrecision; text-rendering:geometricPrecision; image-rendering:optimizeQuality; fill-rule:evenodd; clip-rule:evenodd" viewBox="0 0 242.85 186.13"><g id="Layer_x0020_1"><g id="_885481696"><path d="M159.23 135.29c0.59,-2.17 1.05,-2.86 3.67,-2.63 0.72,1.15 0.7,0.83 0.81,2.63l-4.48 0zm8.19 29.06c0.9,-1.55 2.47,-3.17 3.01,-4.75l-7.77 -0.01c-1.01,-1.47 -1.36,-1.32 -2.15,-3.09l13.22 -0.02 1.75 -3.73c0.31,-2.36 0.11,-0.55 -0.27,-1.35l-18.02 -0.23c-0.74,-1.45 -1.34,-2.12 -1.85,-3.63l21.84 -0.08 1.87 -6.35c1.98,2.33 1.84,3.86 5.88,4.32 5.79,0.66 5.01,-0.58 5.75,-4.87 -1.93,0.4 -4.02,1.61 -5.87,0.16 -2.33,-1.82 -2.92,-8.01 1.31,-10.88 2.4,-1.62 3.96,-0.09 6.18,0.03l0.63 -4.14c-8.12,-1.85 -10.34,-0.31 -13.54,5.81l-0.89 -4.45c-2.55,-0.82 -19.57,-0.31 -23.63,-0.31 0.11,-1.35 0.57,-2.37 0.99,-3.32l21.67 0 -1.39 -5.51 -17.93 -0.04 1 -2.89 14.29 0.04c-0.88,-2.33 -2.04,-3.63 -2.95,-5.53l-7.32 0c1.38,-4.17 11.82,-10.28 17.47,-12.08 23.24,-7.42 48.7,7.49 51.82,33.55 1.91,16.01 -6.86,31.18 -20.61,38.78 -14.31,7.93 -36.04,5.08 -44.49,-5.43zm0.51 -3.66c-0.96,4.63 -11.84,10.21 -17.55,12.11 -8.46,2.81 -17.07,2.1 -25.25,-0.7 -31.9,-10.94 -35.55,-56.48 -4.63,-72.09 7.28,-3.69 14.74,-5.37 24.6,-3.99 7.36,1.04 16.48,5.6 19.98,9.64 -0.92,2.07 -2.72,2.61 -3.98,4.84l8.92 0.05c0.76,0.99 1.58,2.04 2.14,3.52l-13.92 0c-0.8,1.63 -1.55,2.92 -2.05,4.85l18.51 0.07c0.61,1.06 1.2,1.9 1.39,3.48l-21.72 0.01 -1.28 4.25 -4.21 0.32c-0.7,4.22 -2.74,13.51 -1.86,17.43 0.56,0.85 7.35,3.47 6.33,-2.81 -3.24,-0.15 -2.56,-0.15 -1.05,-8.53l2.18 -0.04 0.4 -4c-3.1,-0.07 -1.46,0.17 -1.86,-0.89 1.02,-0.66 0.62,-0.49 2.74,-0.37l21.08 0.45c-0.61,1.41 0.24,0.04 -1.22,1.23 -0.59,0.49 -0.77,0.76 -1.21,1.29l-0.42 -1.71 -3.77 0 -2.38 16.3 4.17 -0.05c3.14,-17.79 2.56,-7.08 5.16,-13.8 0.82,4.47 -0.14,10.21 -1.16,14.36l-10.09 -0.85c0.64,-1.13 0.83,-2.65 0.91,-4.03 -3.36,0.97 -7.82,2.41 -7.98,-2.18l8.22 -0.22c4.79,-14.61 -15.14,-12.19 -12.54,1.87 0.91,4.89 5.45,4.89 6.61,5.22l-7.01 0.76c-0.56,2.08 1.19,4.85 2.15,5.84l18.09 0.01c-1.48,4.6 -5.89,3.18 -15.69,3.18 0.54,2.02 1.34,3.63 2.82,5.13l6.43 0.05zm-107.11 25.44l173.73 0 1.47 -0.66c1.55,-0.61 2.65,-1.09 3.88,-2.29 0.55,-0.53 1.26,-1.48 1.7,-2.28 0.69,-1.24 0.74,-2.08 1.25,-2.98l0 -108.31c-0.45,-0.74 -0.99,-2.61 -1.54,-3.52 -0.83,-1.37 -1.52,-1.86 -2.64,-2.68 -2.64,-1.93 -4.85,-1.77 -8.64,-1.76 -6.93,0.01 -13.86,0 -20.78,0l-145.46 0c-5.91,-0.01 -11.39,1.9 -11.94,8.64 -0.5,6.07 -0.02,14.46 -0.02,20.78l0 83.12c-0.03,10.65 5.2,10.19 8.99,11.94z"/><path class="fil0" d="M87.23 44.99c0.14,-2.24 9.12,-22.35 11.12,-27.21 2.56,-6.24 1.74,-7.92 11.45,-7.4 2.56,0.13 2.19,0.91 2.64,3.3 0.94,5.01 6.27,28.58 6.37,31.27l-8.11 0.05 -1.08 -5.2 -11.48 -0.04c-2.02,7.01 -1.26,5.23 -10.91,5.23zm-23.74 -9.04c3.04,0.9 4.16,2.05 8.26,2.17 2.96,0.08 6.93,-0.49 6.55,-3.55 -0.28,-2.21 -3.74,-3.53 -5.6,-4.56 -11.87,-6.57 -5.91,-15.63 -0.67,-18.24 2.4,-1.19 5.01,-1.86 8.11,-1.95 2.9,-0.08 6.3,0.12 8.78,1.69l-1.2 7.06c-2.65,-0.56 -3.14,-1.38 -6.68,-1.44 -6.74,-0.12 -8.12,3.59 -1.67,6.67 5.76,2.74 10.84,7.24 7.08,14.76 -3.77,7.55 -15.31,7.7 -24.22,5.17l1.26 -7.78zm-15.47 9.01c-0.28,-2.77 1.92,-13.96 2.53,-17.55 3.47,-20.38 0.06,-17 11.58,-17 -0.56,6.11 -3.49,22.51 -4.8,30.4 -0.75,4.56 -0.79,3.01 -1.07,4.14l-8.24 0.01zm-39 -33.8c0.86,-0.91 -0.96,-0.31 1.26,-0.76l9.96 -0.05c11.91,-0.7 5.99,7.7 11.51,23.09l8.61 -22.99 9.23 0.03 -13.21 32.82c-1.03,2.37 -1.02,1.56 -10.16,1.5 -1.73,-6.81 -3.57,-13.56 -5.33,-20.46 -0.52,-2.02 -1.6,-8.57 -3.07,-9.74 -1.63,-1.3 -6.48,-2.77 -8.8,-3.44zm173.84 -11.16l-174.24 0c-2.01,1.01 -4.32,0.84 -6.89,4.24 -2.05,2.72 -1.71,5.66 -1.71,9.47l0 99.47c-0.02,13.37 10.32,11.3 21.77,11.3 6.33,0 16.37,0.59 22.25,-0.11 0.56,-4.69 0.11,-45.66 0.11,-54.08 -0.01,-7.3 0.6,-15.13 10.86,-16.23 7.47,-0.81 19.41,-0.1 27.35,-0.1 36.26,0 72.51,0 108.76,0 0,-5.42 0.43,-42.49 -0.34,-46.11 -1.27,-5.94 -5.59,-6.52 -7.92,-7.85z"/><path class="fil0" d="M106.81 125.34c-0.65,0.78 -0.29,-0.04 -0.71,0.96 -0.15,0.34 -0.19,0.69 -0.26,1.07l-2.94 17.89 3.95 0.11 1.81 -9.48c0.57,-3.87 0.18,-2.38 1,-2.94l0.11 12.35 2.65 0.19c2.09,-2.19 3.58,-8.32 4.56,-11.55l-1.06 11.51 4.16 0 3.4 -20 -6.8 0c-0.69,2.43 -2.48,9.92 -4.12,11.08l-0.11 -11.08 -5.64 -0.11z"/><path class="fil0" d="M219.27 133.08l2.44 -0.04c4.06,6.63 -4.94,12.74 -4.5,4.45 0.13,-2.45 1.04,-3.24 2.06,-4.41zm4.52 -2.34c-4.83,-4 -9.36,-0.63 -10.71,4.85 -2.21,8.95 4.62,11.87 8.24,8.67 0.8,1.11 -0.15,0.79 1.75,1 0.93,0.1 1.65,0.02 2.48,-0.25l3.39 -19.55 -4.33 -0.17 -0.82 5.45z"/><path class="fil0" d="M130.71 138.18c-1.17,8.69 -9.94,0.27 0,0zm-5.99 -8.66l-0.48 3.63c4.7,-0.71 6.84,-1.67 7.11,1.71 -4.38,0.64 -8.63,-0.02 -9.31,5.28 -0.71,5.53 3.75,6.98 7.63,4.39 1.01,0.31 0.45,-0.19 0.77,0.92l3.29 0c0.66,-2.64 2.08,-10.42 1.6,-13.19 -0.79,-4.59 -6.96,-3.57 -10.61,-2.74z"/><path class="fil0" d="M195.57 139.14c1.25,-1.07 1.94,-1.33 4.22,-1.03 -0.09,3.75 -4.86,6.22 -4.22,1.03zm-1.74 -9.58l-0.53 3.53c2.37,-0.34 4.63,-1.21 6.73,-0.09l0.43 1.84c-5.24,-0.01 -8.53,0.56 -9.2,5.43 -0.76,5.58 4.34,6.33 7.82,3.9l3.67 1.03c0.87,-2.09 2.08,-10.19 1.79,-12.59 -0.62,-5.08 -7.17,-4.14 -10.71,-3.05z"/><path class="fil0" d="M141.88 140.92c-1.78,1.93 -3.76,1.09 -6.49,0.55l-0.51 3.92c3.89,0.3 11.14,1.46 11.14,-4.8 0,-6.2 -5.2,-3.42 -4.77,-7.43 1.8,-0.84 2.84,-0.51 4.95,-0.32l0.5 -3.57c-3.5,-0.46 -10.24,-1.72 -10.2,5.11 0.02,4.76 4.06,3.54 5.38,6.54z"/><path class="fil0" d="M206.9 129.55l-2.31 15.29 3.77 0.46c0.91,-1.71 0.72,-2.56 1.05,-4.56 0.28,-1.66 0.55,-3.06 1.08,-4.66 1.01,-3.07 1.23,-1.4 2.5,-2.78 0.7,-0.78 1.25,-3.29 1.51,-4.26 -2.21,-0.01 -2.5,0.78 -3.64,1.62 -0.36,-2.31 -0.1,-0.89 -0.73,-1.59 -0.37,0 -1.51,-0.06 -1.79,-0.02 -2,0.25 -0.89,0.17 -1.44,0.5z"/><path class="fil0" d="M100.91 32.71l7.12 0 -2.44 -12.32c-1.1,1.57 -4.33,10.28 -4.68,12.32z"/></g></g></symbol><symbol xmlns="http://www.w3.org/2000/svg" id="slider-arrow" viewBox="0 0 512 512"><path d="M493.52 211.306c-11.937-11.937-27.807-18.509-44.728-18.509l-233.002-.003 28.465-28.464c11.957-11.941 18.542-27.824 18.542-44.722 0-34.849-28.353-63.2-63.218-63.2-16.874 0-32.741 6.574-44.681 18.512L18.601 211.219c-8.84 8.806-14.827 19.891-17.315 32.055A63.578 63.578 0 0 0 0 256c0 16.928 6.607 32.833 18.584 44.761l136.287 136.287c11.939 11.958 27.823 18.544 44.724 18.544 34.849 0 63.201-28.353 63.202-63.201.003-16.879-6.57-32.752-18.512-44.697l-28.493-28.493h233.035c16.886 0 32.759-6.574 44.694-18.512 24.639-24.644 24.639-64.741-.001-89.383zm-21.215 68.169c-6.269 6.269-14.608 9.724-23.478 9.724h-269.25a15.002 15.002 0 0 0-10.607 25.609l54.099 54.099c6.273 6.275 9.728 14.614 9.727 23.48-.001 18.307-14.895 33.202-33.2 33.202-8.879 0-17.221-3.458-23.5-9.748L39.776 279.524c-6.302-6.278-9.775-14.633-9.775-23.524 0-2.261.228-4.518.676-6.71 1.304-6.37 4.448-12.185 9.117-16.835l136.319-136.32c6.271-6.271 14.606-9.725 23.481-9.725 18.307 0 33.201 14.893 33.201 33.198 0 8.878-3.459 17.22-9.748 23.499l-54.079 54.078a15.003 15.003 0 0 0 10.607 25.609l269.259.003c8.865 0 17.201 3.453 23.47 9.722 12.945 12.946 12.945 34.01.001 46.956z"/></symbol><symbol xmlns="http://www.w3.org/2000/svg" id="close" viewBox="0 0 32 32"><path fill="#a1a9b3" d="M25.333 8.547l-1.88-1.88L16 14.12 8.547 6.667l-1.88 1.88L14.12 16l-7.453 7.453 1.88 1.88L16 17.88l7.453 7.453 1.88-1.88L17.88 16z"/></symbol><symbol xmlns="http://www.w3.org/2000/svg" id="mail" viewBox="0 0 512 512"><path d="M498.208,68.235c-8.945-8.947-19.701-13.418-32.261-13.418H45.682c-12.562,0-23.318,4.471-32.264,13.418
C4.471,77.18,0,87.935,0,100.499v310.633c0,12.566,4.471,23.312,13.418,32.257c8.945,8.953,19.701,13.422,32.264,13.422h420.266
c12.56,0,23.315-4.469,32.261-13.422c8.949-8.945,13.418-19.697,13.418-32.257V100.499
C511.626,87.935,507.158,77.18,498.208,68.235z M475.078,411.125c0,2.475-0.903,4.616-2.714,6.424
c-1.81,1.81-3.949,2.706-6.42,2.706H45.679c-2.474,0-4.616-0.896-6.423-2.706c-1.809-1.808-2.712-3.949-2.712-6.424V191.858
c6.09,6.852,12.657,13.134,19.7,18.843c51.012,39.209,91.553,71.374,121.627,96.5c9.707,8.186,17.607,14.561,23.697,19.13
c6.09,4.571,14.322,9.185,24.694,13.846c10.373,4.668,20.129,6.991,29.265,6.991h0.287h0.284c9.134,0,18.894-2.323,29.263-6.991
c10.376-4.661,18.613-9.274,24.701-13.846c6.089-4.569,13.99-10.944,23.698-19.13c30.074-25.126,70.61-57.291,121.624-96.5
c7.043-5.708,13.613-11.991,19.694-18.843V411.125L475.078,411.125z M475.078,107.92v3.14c0,11.229-4.421,23.745-13.271,37.543
c-8.851,13.798-18.419,24.792-28.691,32.974c-36.74,28.936-74.897,59.101-114.495,90.506c-1.14,0.951-4.474,3.757-9.996,8.418
c-5.514,4.668-9.894,8.241-13.131,10.712c-3.241,2.478-7.471,5.475-12.703,8.993c-5.236,3.518-10.041,6.14-14.418,7.851
c-4.377,1.707-8.47,2.562-12.275,2.562h-0.284h-0.287c-3.806,0-7.895-0.855-12.275-2.562c-4.377-1.711-9.185-4.333-14.417-7.851
c-5.231-3.519-9.467-6.516-12.703-8.993c-3.234-2.471-7.614-6.044-13.132-10.712c-5.52-4.661-8.854-7.467-9.995-8.418
c-39.589-31.406-77.75-61.57-114.487-90.506c-27.981-22.076-41.969-49.106-41.969-81.083c0-2.472,0.903-4.615,2.712-6.421
c1.809-1.809,3.949-2.714,6.423-2.714h420.266c1.52,0.855,2.854,1.093,3.997,0.715c1.143-0.385,1.998,0.331,2.566,2.138
c0.571,1.809,1.095,2.664,1.57,2.57c0.477-0.096,0.764,1.093,0.859,3.571c0.089,2.473,0.137,3.718,0.137,3.718V107.92
L475.078,107.92z"/></symbol>
</svg> 