<?xml version="1.0" encoding="utf-8"?>
<!-- Generator: Adobe Illustrator 27.5.0, SVG Export Plug-In . SVG Version: 6.00 Build 0)  -->
<svg version="1.1" xmlns="http://www.w3.org/2000/svg" xmlns:xlink="http://www.w3.org/1999/xlink" x="0px" y="0px"
	 viewBox="0 0 500 500" style="enable-background:new 0 0 500 500;" xml:space="preserve">
<g id="Background_Complete">
	<g>
		<g>
			<path style="fill:#EBEBEB;" d="M456.108,269.611c0,0-8.41-2.922-12.792,16.53c-4.381,19.452-5.172,30.227-5.172,30.227
				s-1.399,4.198-4.477,2.473s-8.178-7.547-12.082-5.269c-4.049,2.363-4.243,7.604-1.583,14.554c2.66,6.95,7.929,22.39,8.4,23.788
				c0.463,1.372,0.187,3.638-2.098,2.799c-2.286-0.839-16.654-10.445-20.804-3.355c-4.15,7.091,6.442,25.234,7.561,27.24
				c1.12,2.005,0.934,3.032,0.047,3.825c-0.886,0.793-5.411-2.891-9.61-5.456c-4.198-2.565-9.517-4.803-11.568-0.511
				c-2.052,4.292,0.75,19.218,20.811,39.505l9.911,8.792l12.692-3.999c26.64-10.214,35.345-22.658,35.245-27.413
				c-0.1-4.756-5.868-4.909-10.75-4.303c-4.882,0.606-10.524,2.097-11.004,1.009c-0.48-1.088-0.227-2.1,1.62-3.465
				c1.847-1.366,18.976-13.529,18.118-21.701c-0.858-8.171-17.909-5.342-20.337-5.52c-2.428-0.178-1.745-2.356-0.758-3.415
				c1.006-1.079,12.171-12.974,17.459-18.21c5.288-5.235,7.271-10.09,4.557-13.912c-2.617-3.685-9.663-0.483-13.18-0.18
				c-3.516,0.303-3.06-4.099-3.06-4.099s3.721-10.143,7.748-29.671c4.027-19.528-5.068-20.309-5.068-20.309"/>
		</g>
		<g>
			<g>
				<path style="fill:#E0E0E0;" d="M452.155,287.025c0,0-0.015,0.141-0.064,0.413c-0.054,0.288-0.13,0.688-0.228,1.205
					c-0.213,1.075-0.521,2.63-0.917,4.625c-0.8,4.016-2,9.819-3.51,16.983c-3.014,14.33-7.343,34.091-12.195,55.898
					c-4.853,21.816-9.228,41.566-12.314,55.88c-1.533,7.146-2.775,12.934-3.637,16.954c-0.428,1.988-0.762,3.538-0.992,4.609
					c-0.115,0.513-0.204,0.911-0.268,1.197c-0.063,0.269-0.105,0.405-0.105,0.405s0.015-0.141,0.064-0.413
					c0.054-0.288,0.13-0.688,0.228-1.205c0.213-1.075,0.521-2.63,0.917-4.625c0.8-4.016,2-9.818,3.509-16.982
					c3.014-14.33,7.344-34.092,12.197-55.908c4.851-21.808,9.226-41.557,12.312-55.87c1.533-7.146,2.775-12.935,3.638-16.955
					c0.428-1.988,0.762-3.539,0.992-4.609c0.115-0.513,0.204-0.911,0.268-1.197C452.112,287.16,452.155,287.025,452.155,287.025z"/>
			</g>
		</g>
		<g>
			<g>
				<path style="fill:#E0E0E0;" d="M428.39,322.004c0.025-0.014,0.218,0.267,0.546,0.788c0.331,0.52,0.786,1.285,1.341,2.236
					c1.105,1.904,2.564,4.573,4.121,7.547c1.525,2.938,2.903,5.595,3.958,7.628c0.481,0.913,0.887,1.683,1.213,2.303
					c0.289,0.542,0.438,0.85,0.413,0.864c-0.024,0.014-0.219-0.265-0.552-0.784c-0.329-0.521-0.786-1.287-1.33-2.244
					c-1.087-1.915-2.51-4.602-4.067-7.576c-1.545-2.926-2.942-5.572-4.011-7.596c-0.486-0.911-0.896-1.68-1.226-2.298
					C428.512,322.326,428.366,322.018,428.39,322.004z"/>
			</g>
		</g>
		<g>
			<g>
				<path style="fill:#E0E0E0;" d="M441.22,343.297c-0.057-0.098,5.312-3.349,11.991-7.26c6.682-3.912,12.143-7.003,12.201-6.905
					c0.057,0.098-5.311,3.348-11.993,7.261C446.74,340.303,441.278,343.395,441.22,343.297z"/>
			</g>
		</g>
		<g>
			<g>
				<path style="fill:#E0E0E0;" d="M432.258,376.456c-0.006-0.028,0.328-0.128,0.936-0.285c0.691-0.174,1.554-0.391,2.579-0.648
					c2.176-0.55,5.177-1.323,8.458-2.297c3.284-0.967,6.225-1.945,8.349-2.671c1-0.341,1.842-0.628,2.517-0.857
					c0.596-0.2,0.93-0.297,0.94-0.271c0.01,0.026-0.305,0.175-0.884,0.42c-0.579,0.245-1.423,0.585-2.475,0.981
					c-2.102,0.797-5.037,1.822-8.331,2.792c-3.29,0.977-6.312,1.707-8.508,2.186c-1.099,0.235-1.991,0.415-2.611,0.521
					C432.609,376.436,432.264,376.483,432.258,376.456z"/>
			</g>
		</g>
		<g>
			<g>
				<path style="fill:#E0E0E0;" d="M416.414,359.75c0.02-0.02,0.263,0.191,0.686,0.59c0.479,0.467,1.067,1.04,1.761,1.716
					c1.474,1.461,3.489,3.5,5.697,5.769c2.209,2.27,4.191,4.341,5.612,5.854c0.657,0.712,1.213,1.315,1.667,1.807
					c0.387,0.433,0.591,0.682,0.571,0.702c-0.02,0.02-0.263-0.191-0.686-0.59c-0.479-0.467-1.067-1.04-1.761-1.716
					c-1.474-1.461-3.49-3.5-5.698-5.77c-2.208-2.269-4.19-4.34-5.611-5.853c-0.657-0.712-1.214-1.316-1.667-1.807
					C416.598,360.019,416.394,359.77,416.414,359.75z"/>
			</g>
		</g>
		<g>
			<g>
				<path style="fill:#E0E0E0;" d="M404.783,388.019c0.02-0.02,0.329,0.253,0.87,0.764c0.59,0.571,1.351,1.307,2.264,2.19
					c1.899,1.862,4.503,4.455,7.361,7.336c2.859,2.882,5.43,5.507,7.276,7.422c0.876,0.921,1.606,1.688,2.172,2.282
					c0.506,0.545,0.776,0.856,0.756,0.876c-0.02,0.02-0.329-0.253-0.87-0.764c-0.59-0.571-1.351-1.307-2.264-2.19
					c-1.899-1.862-4.503-4.455-7.362-7.337c-2.858-2.881-5.429-5.506-7.275-7.421c-0.876-0.921-1.606-1.688-2.172-2.282
					C405.034,388.35,404.763,388.039,404.783,388.019z"/>
			</g>
		</g>
		<g>
			<g>
				<path style="fill:#E0E0E0;" d="M425.128,408.251c-0.007-0.028,0.412-0.165,1.177-0.391c0.836-0.242,1.926-0.559,3.24-0.94
					c2.734-0.796,6.506-1.911,10.635-3.259c4.132-1.342,7.84-2.655,10.518-3.625c1.287-0.465,2.354-0.85,3.172-1.146
					c0.751-0.268,1.171-0.403,1.181-0.377c0.01,0.026-0.39,0.212-1.123,0.526c-0.733,0.314-1.8,0.751-3.128,1.269
					c-2.654,1.04-6.353,2.399-10.493,3.744c-4.136,1.351-7.928,2.423-10.685,3.148c-1.379,0.359-2.499,0.639-3.276,0.814
					C425.568,408.193,425.135,408.278,425.128,408.251z"/>
			</g>
		</g>
	</g>
	<g>
		<g>
			<path style="fill:#E0E0E0;" d="M375.898,171.352c7.47,2.453,12.351-6.115,12.351-6.115l-4.516-2.714
				c-2.361,5.263-9.86,4.474-9.86,4.474L375.898,171.352z"/>
			<path style="fill:#E0E0E0;" d="M438.604,145.737c0.454,7.849,10.215,9.252,10.215,9.252l0.871-5.196
				c-5.762-0.268-7.776-7.535-7.776-7.535L438.604,145.737z"/>
			<path style="fill:#E0E0E0;" d="M86.246,248.702c-2.211-4.932-8.825-3.447-8.825-3.447l0.711,3.551
				c3.768-1.237,6.838,2.94,6.838,2.94L86.246,248.702z"/>
			<path style="fill:#E0E0E0;" d="M317.879,96.543c-2.211-4.932-8.825-3.446-8.825-3.446l0.711,3.551
				c3.767-1.237,6.838,2.94,6.838,2.94L317.879,96.543z"/>
			<path style="fill:#E0E0E0;" d="M420.878,44.571c-2.211-4.932-8.825-3.446-8.825-3.446l0.711,3.551
				c3.768-1.237,6.838,2.94,6.838,2.94L420.878,44.571z"/>
			<path style="fill:#E0E0E0;" d="M257.102,70.44c-1.501-3.349-5.992-2.34-5.992-2.34l0.483,2.411
				c2.558-0.84,4.643,1.996,4.643,1.996L257.102,70.44z"/>
			<path style="fill:#E0E0E0;" d="M155.582,80.149c-3.554,0.915-3.317,5.511-3.317,5.511l2.458-0.069
				c-0.396-2.663,2.75-4.24,2.75-4.24L155.582,80.149z"/>
			<path style="fill:#E0E0E0;" d="M47.137,158.812c-0.005-3.67-4.516-4.581-4.516-4.581l-0.543,2.399
				c2.678,0.277,3.425,3.716,3.425,3.716L47.137,158.812z"/>
			<path style="fill:#E0E0E0;" d="M367.927,107.621c9.632,3.163,15.926-7.884,15.926-7.884l-5.823-3.5
				c-3.044,6.787-12.713,5.769-12.713,5.769L367.927,107.621z"/>
			<path style="fill:#E0E0E0;" d="M111.002,59.126c9.632,3.163,15.926-7.884,15.926-7.884l-5.823-3.5
				c-3.044,6.786-12.713,5.769-12.713,5.769L111.002,59.126z"/>
			<path style="fill:#E0E0E0;" d="M91.339,96.543c-2.211-4.932-8.825-3.446-8.825-3.446l0.711,3.552
				c3.767-1.237,6.838,2.94,6.838,2.94L91.339,96.543z"/>
			<path style="fill:#E0E0E0;" d="M81.834,207.568c-3.506-9.355-16.305-5.502-16.305-5.502l0.848,6.862
				c7.346-2.961,12.595,4.791,12.595,4.791L81.834,207.568z"/>
			<path style="fill:#E0E0E0;" d="M318.566,227.866c-4.23-9.435-16.883-6.593-16.883-6.593l1.361,6.794
				c7.207-2.366,13.081,5.624,13.081,5.624L318.566,227.866z"/>
			<path style="fill:#E0E0E0;" d="M249.078,123.302c-0.005-3.67-4.516-4.581-4.516-4.581l-0.543,2.398
				c2.678,0.277,3.425,3.716,3.425,3.716L249.078,123.302z"/>
			<path style="fill:#E0E0E0;" d="M311.695,160.825c-0.005-3.67-4.516-4.581-4.516-4.581l-0.543,2.399
				c2.678,0.277,3.425,3.716,3.425,3.716L311.695,160.825z"/>
			<path style="fill:#E0E0E0;" d="M273.319,236.751c-0.005-3.67-4.516-4.581-4.516-4.581l-0.543,2.399
				c2.678,0.277,3.425,3.716,3.425,3.716L273.319,236.751z"/>
			<path style="fill:#E0E0E0;" d="M437.569,209.023c-0.005-3.67-4.516-4.581-4.516-4.581l-0.543,2.399
				c2.678,0.277,3.425,3.716,3.425,3.716L437.569,209.023z"/>
		</g>
	</g>
</g>
<g id="Background_Simple" style="display:none;">
	<path style="display:inline;fill:#EBEBEB;" d="M432.603,127.382l-2.371-3.858c-19.987-32.523-56.123-52.129-94.223-49.75
		c-4.898,0.306-9.774,0.961-14.585,1.978c-34.64,7.322-64.782,33.189-77.275,66.317c-7.348,19.483-9.4,41.916-23.344,57.38
		c-18.147,20.127-48.955,20.759-76.042,19.925c-27.087-0.834-57.916-0.123-75.974,20.083c-11.31,12.655-14.904,30.65-13.992,47.598
		c2.415,44.869,34.077,84.988,74.343,104.929c40.266,19.941,87.675,21.727,131.744,12.955
		c61.735-12.289,120.445-46.036,155.734-98.161C451.907,254.655,460.838,183.641,432.603,127.382z"/>
</g>
<g id="Character">
	<g>
		<g>
			<g>
				<path style="fill:#FFBE9D;" d="M434.213,241.94c-1.4-1.49-0.794-0.98-13.592,6.837c0,0,18.169-11.318,12.307-11.961
					c-1.033-0.113-4.066,1.291-7.338,3.015c4.531-3.162,5.919-5.446,5.235-6.672c-1.176-2.109-12.224,4.078-17.319,7.081
					c4.178-2.531,12.145-7.457,13.624-9.098c2.021-2.243-1.626-2.398-4.679-1.671c-3.427,0.816-22.653,8.412-28.317,10.314
					c-3.896,1.308-4.883-2.197-4.883-2.197c-1.193-8.588-6.71-14.639-8.975-15.578c-2.266-0.933-4.309,1.861-2.866,4.155
					c1.166,1.855,2.171,5.529,2.814,8.316c0.529,2.298,0.688,4.661,0.424,6.988c-0.306,2.709-6.262,13.979-8.66,15.864
					l23.092,20.169c0,0,26.535-22.447,31.647-26.663C433.028,245.642,435.262,243.056,434.213,241.94z"/>
				<g>
					<g>
						<g>
							<path style="fill:#EB996E;" d="M414.242,252.145c0.208,0.359,4.642-2.103,9.902-5.499c5.262-3.397,9.329-6.424,9.088-6.761
								c-0.241-0.337-4.675,2.124-9.903,5.5C418.103,248.758,414.034,251.786,414.242,252.145z"/>
						</g>
					</g>
				</g>
				<g>
					<g>
						<g>
							<path style="fill:#EB996E;" d="M410.366,247.08c0.203,0.362,5.075-1.996,10.879-5.264c5.807-3.27,10.347-6.212,10.143-6.574
								c-0.203-0.361-5.074,1.996-10.88,5.265C414.704,243.775,410.163,246.719,410.366,247.08z"/>
						</g>
					</g>
				</g>
				<g>
					<g>
						<g>
							<path style="fill:#EB996E;" d="M406.37,241.801c0.198,0.364,4.846-1.79,10.378-4.809c5.535-3.021,9.859-5.764,9.66-6.128
								c-0.199-0.364-4.845,1.789-10.38,4.81C410.496,238.693,406.171,241.437,406.37,241.801z"/>
						</g>
					</g>
				</g>
			</g>
		</g>
		<g>
			<path style="fill:#263238;" d="M293.814,302.21l71.537-51.479l32.391,28.804l-62.959,58.083
				c-25.026,22.633-33.788,28.37-75.284,4.732l-26.33-15.084l9.725,120.1H123.787c-13.081-0.414,17.016-33.232,14.949-33.232
				l-26.117-88.187L72.2,353.111l38.312,29.954l-18.682,39.596l-60.946-37.118c-23.748-15.793-20.558-46.552-0.302-66.628
				c36.477-36.152,63.929-61.426,95.12-66.76c11.072-2.592,24.021-3.929,24.021-3.929s23.133-3.173,39.131-2.58
				c3.616,0.134,7.526,0.555,11.412,1.128c14.675,2.162,28.586,7.931,40.559,16.687L293.814,302.21z"/>
			<g>
				<path style="fill:#455A64;" d="M118.364,343.259c-0.017,0.006-0.086-0.144-0.202-0.435c-0.132-0.35-0.292-0.773-0.484-1.282
					c-0.411-1.116-0.981-2.74-1.672-4.752c-1.383-4.102-3.247-9.631-5.307-15.741c-2.082-6.144-4.061-11.671-5.569-15.644
					c-0.739-1.925-1.348-3.512-1.803-4.698c-0.192-0.509-0.351-0.931-0.483-1.281c-0.105-0.295-0.153-0.454-0.136-0.461
					c0.017-0.007,0.096,0.138,0.233,0.42c0.157,0.34,0.346,0.75,0.574,1.244c0.492,1.083,1.162,2.67,1.959,4.643
					c1.598,3.944,3.635,9.461,5.719,15.61c2.082,6.147,3.869,11.743,5.163,15.793c0.621,1.968,1.132,3.59,1.514,4.802
					c0.155,0.521,0.285,0.954,0.391,1.313C118.345,343.092,118.381,343.254,118.364,343.259z"/>
			</g>
			<g>
				<path style="fill:#455A64;" d="M198.4,266.638c0.018,0,0.028,0.171,0.03,0.497c-0.005,0.387-0.01,0.857-0.017,1.426
					c-0.008,0.318-0.016,0.661-0.025,1.032c-0.023,0.376-0.081,0.783-0.126,1.221c-0.11,0.874-0.173,1.88-0.425,2.963
					c-0.109,0.547-0.223,1.117-0.341,1.71c-0.125,0.593-0.324,1.193-0.494,1.824c-0.315,1.271-0.831,2.569-1.337,3.949
					c-1.124,2.714-2.614,5.597-4.544,8.391c-1.967,2.769-4.168,5.156-6.335,7.14c-1.124,0.947-2.168,1.876-3.255,2.607
					c-0.535,0.374-1.03,0.767-1.545,1.087c-0.517,0.314-1.014,0.615-1.49,0.905c-0.932,0.607-1.856,1.01-2.639,1.411
					c-0.396,0.192-0.758,0.385-1.104,0.535c-0.345,0.135-0.666,0.26-0.961,0.376c-0.533,0.201-0.973,0.367-1.335,0.503
					c-0.307,0.109-0.47,0.159-0.477,0.142c-0.006-0.017,0.145-0.099,0.439-0.24c0.35-0.16,0.777-0.355,1.292-0.592
					c0.288-0.128,0.601-0.266,0.937-0.415c0.337-0.163,0.69-0.367,1.078-0.57c0.765-0.423,1.669-0.845,2.58-1.467
					c0.466-0.295,0.952-0.604,1.458-0.924c0.504-0.325,0.988-0.723,1.512-1.1c1.064-0.737,2.086-1.669,3.189-2.614
					c2.124-1.98,4.287-4.347,6.23-7.083c1.906-2.76,3.391-5.601,4.526-8.274c0.512-1.359,1.039-2.637,1.367-3.889
					c0.176-0.621,0.384-1.212,0.518-1.797c0.128-0.584,0.252-1.147,0.37-1.686c0.273-1.068,0.36-2.062,0.497-2.926
					c0.058-0.433,0.13-0.835,0.168-1.208c0.025-0.367,0.048-0.708,0.07-1.023c0.046-0.565,0.083-1.033,0.114-1.417
					C198.357,266.809,198.382,266.638,198.4,266.638z"/>
			</g>
			<g>
				<path style="fill:#455A64;" d="M227.9,291.238c0.143-0.02,1.452,8.352,2.924,18.696c1.473,10.349,2.551,18.751,2.408,18.772
					c-0.142,0.02-1.451-8.35-2.924-18.698C228.836,299.663,227.758,291.258,227.9,291.238z"/>
			</g>
		</g>
		<g>
			<path style="fill:#455A64;" d="M73.682,353.255c-0.037,0.109-1.859-0.627-4.951-1.159c-0.773-0.128-1.62-0.262-2.541-0.315
				c-0.915-0.108-1.9-0.098-2.934-0.118c-2.067,0.042-4.338,0.261-6.672,0.767c-2.328,0.536-4.476,1.304-6.366,2.146
				c-0.927,0.458-1.823,0.868-2.605,1.355c-0.81,0.44-1.52,0.922-2.165,1.367c-2.571,1.797-3.907,3.238-3.986,3.156
				c-0.026-0.025,0.303-0.385,0.922-1.019c0.305-0.323,0.691-0.703,1.18-1.1c0.484-0.402,1.011-0.894,1.67-1.337
				c0.64-0.47,1.348-0.976,2.16-1.439c0.784-0.51,1.686-0.941,2.622-1.418c1.907-0.879,4.088-1.675,6.455-2.219
				c2.373-0.514,4.684-0.723,6.784-0.739c1.05,0.033,2.049,0.04,2.976,0.167c0.932,0.074,1.788,0.23,2.567,0.383
				c0.785,0.121,1.471,0.341,2.08,0.499c0.612,0.15,1.123,0.33,1.536,0.493C73.244,353.035,73.694,353.221,73.682,353.255z"/>
		</g>
		<g>
			<path style="fill:#455A64;" d="M295.459,325.821c-0.032,0.017-0.218-0.284-0.53-0.845c-0.321-0.556-0.715-1.4-1.136-2.468
				c-0.428-1.067-0.83-2.38-1.168-3.864c-0.314-1.488-0.55-3.151-0.621-4.907c-0.054-1.758,0.064-3.433,0.272-4.94
				c0.232-1.504,0.539-2.843,0.891-3.937c0.344-1.096,0.677-1.965,0.958-2.542c0.271-0.582,0.436-0.895,0.469-0.88
				c0.088,0.038-0.483,1.334-1.073,3.524c-0.302,1.093-0.567,2.418-0.769,3.9c-0.178,1.486-0.279,3.13-0.227,4.857
				c0.07,1.725,0.288,3.358,0.57,4.827c0.307,1.464,0.665,2.767,1.044,3.836C294.883,324.525,295.545,325.778,295.459,325.821z"/>
		</g>
		<g>
			<path style="fill:#263238;" d="M152.801,125.981c9.992-10.172,25.76-16.178,38.823-10.462
				c8.783,3.843,14.74,12.085,22.449,17.784c5.614,4.15,12.551,7.358,15.493,13.69c2.594,5.582,1.343,12.078,0.717,18.202
				c-0.626,6.123-0.187,13.186,4.555,17.11c2.49,2.061,5.765,2.875,8.57,4.481c5.645,3.234,8.999,9.529,10.208,15.922
				c1.209,6.393,0.557,12.973-0.099,19.446l-26.907,5.127l-4.42-7.434l-1.541,11.687l-34.339,3.099L152.801,125.981z"/>
			<g>
				<g>
					<g>
						<g>
							<g>
								<g>
									<g>
										<g>
											<g>
												<g>
													<g>
														<path style="fill:#FFBE9D;" d="M148.363,137.087l-0.058,7.487l-2.117,112.234
															c-0.184,13.009,12.263,24.086,26.194,24.177l0,0c14.069,0.091,19.809-10.478,20.211-23.617
															c0.423-13.79,1.12-28.301,1.12-28.301s17.848-2.46,22.168-25.539c2.148-11.477,2.09-30.395,1.543-45.872
															c-0.493-13.93-12.473-24.648-26.37-23.565L148.363,137.087z"/>
													</g>
												</g>
											</g>
										</g>
									</g>
									<g>
										<g>
											<g>
												<g>
													<g>
														<g>
															<path style="fill:#263238;" d="M209.575,170.562c0.012,1.571-1.309,2.877-2.949,2.92
																c-1.638,0.043-2.978-1.193-2.99-2.765c-0.012-1.571,1.308-2.879,2.946-2.922
																C208.222,167.752,209.563,168.991,209.575,170.562z"/>
														</g>
													</g>
												</g>
											</g>
										</g>
										<g>
											<g>
												<g>
													<g>
														<g>
															<g>
																<path style="fill:#263238;" d="M213.053,167.375c-0.379,0.377-2.586-1.351-5.785-1.431
																	c-3.194-0.125-5.587,1.455-5.924,1.054c-0.166-0.178,0.229-0.867,1.272-1.583c1.027-0.713,2.763-1.387,4.756-1.323
																	c1.992,0.066,3.648,0.846,4.591,1.623C212.926,166.496,213.24,167.206,213.053,167.375z"/>
															</g>
														</g>
													</g>
												</g>
											</g>
										</g>
									</g>
									<g>
										<g>
											<g>
												<g>
													<g>
														<g>
															<path style="fill:#263238;" d="M177.725,170.197c0.012,1.571-1.309,2.877-2.949,2.92
																c-1.638,0.043-2.978-1.193-2.99-2.765c-0.013-1.571,1.308-2.879,2.946-2.922
																C176.372,167.387,177.713,168.626,177.725,170.197z"/>
														</g>
													</g>
												</g>
											</g>
										</g>
										<g>
											<g>
												<g>
													<g>
														<g>
															<g>
																<path style="fill:#263238;" d="M181.592,167.105c-0.38,0.377-2.589-1.351-5.786-1.431
																	c-3.194-0.126-5.588,1.455-5.925,1.054c-0.165-0.178,0.226-0.867,1.273-1.583c1.027-0.714,2.763-1.387,4.755-1.324
																	c1.993,0.066,3.649,0.846,4.592,1.623C181.461,166.226,181.777,166.936,181.592,167.105z"/>
															</g>
														</g>
													</g>
												</g>
											</g>
										</g>
									</g>
									<g>
										<g>
											<g>
												<g>
													<g>
														<g>
															<path style="fill:#263238;" d="M192.547,191.149c-0.01-0.182,1.989-0.47,5.222-0.794
																c0.819-0.062,1.597-0.203,1.75-0.757c0.209-0.585-0.109-1.475-0.479-2.436c-0.713-1.998-1.46-4.092-2.245-6.287
																c-3.11-8.949-5.338-16.298-4.977-16.42c0.362-0.122,3.176,7.032,6.287,15.981c0.747,2.206,1.462,4.309,2.141,6.321
																c0.284,0.937,0.786,2.004,0.336,3.218c-0.237,0.604-0.849,1.031-1.376,1.157c-0.528,0.145-0.988,0.141-1.393,0.154
																C194.566,191.372,192.554,191.332,192.547,191.149z"/>
														</g>
													</g>
												</g>
											</g>
										</g>
									</g>
									<g>
										<g>
											<g>
												<g>
													<g>
														<path style="fill:#EB996E;" d="M193.713,229.066c0,0-15.623,0.575-30.816-9.138c0,0,7.092,16.132,30.352,14.602
															L193.713,229.066z"/>
													</g>
												</g>
											</g>
										</g>
									</g>
									<g>
										<g>
											<g>
												<g>
													<g>
														<path style="fill:#EB996E;" d="M190.982,198.822c-1.109-1.553-3.101-2.444-5.109-2.283
															c-1.392,0.111-2.814,0.742-3.688,1.849c-0.875,1.107-1.095,2.707-0.359,3.806c0.83,1.238,2.626,1.568,4.164,1.176
															c1.539-0.392,2.881-1.361,4.156-2.328c0.353-0.268,0.714-0.547,0.94-0.921c0.226-0.374,0.285-0.869,0.028-1.191"/>
													</g>
												</g>
											</g>
										</g>
									</g>
									<g>
										<g>
											<g>
												<g>
													<g>
														<g>
															<path style="fill:#263238;" d="M183.072,193.103c0.521-0.016,0.432,3.456,3.336,6.003
																c2.898,2.555,6.611,2.267,6.625,2.753c0.043,0.218-0.843,0.651-2.406,0.65c-1.534,0.01-3.758-0.543-5.535-2.101
																c-1.772-1.562-2.496-3.6-2.575-5.028C182.423,193.926,182.835,193.076,183.072,193.103z"/>
														</g>
													</g>
												</g>
											</g>
										</g>
									</g>
								</g>
							</g>
						</g>
						<g>
							<g>
								<g>
									<g>
										<g>
											<path style="fill:#263238;" d="M182.608,157.8c-0.34,0.861-3.522,0.36-7.288,0.709c-3.773,0.273-6.83,1.289-7.306,0.495
												c-0.212-0.38,0.338-1.183,1.585-1.992c1.236-0.807,3.194-1.553,5.453-1.742c2.26-0.184,4.313,0.231,5.665,0.824
												C182.08,156.688,182.755,157.391,182.608,157.8z"/>
										</g>
									</g>
								</g>
							</g>
						</g>
						<g>
							<g>
								<g>
									<g>
										<g>
											<path style="fill:#263238;" d="M213.172,160.913c-0.705,0.707-3.367-0.12-6.591-0.245
												c-3.22-0.217-5.97,0.324-6.578-0.454c-0.265-0.377,0.185-1.093,1.398-1.747c1.195-0.653,3.177-1.159,5.392-1.043
												c2.214,0.119,4.117,0.83,5.218,1.605C213.13,159.808,213.484,160.566,213.172,160.913z"/>
										</g>
									</g>
								</g>
							</g>
						</g>
					</g>
				</g>
			</g>
			<path style="fill:#263238;" d="M164.919,123.394c4.199,5.637,6.195,9.967,8.711,19.992c1.233,4.91-2.759,8.377-6.724,11.374
				c-1.858,1.405-4.546,0.424-5.053-1.85l0,0c0,0,1.377,15.361-4.177,22.249c-2.604,3.228-2.714,7.37-2.096,10.86
				c0.631,3.564,2.467,6.771,4.961,9.394c6.439,6.77,8.229,17.814,3.786,26.118c-1.138,2.126-2.622,4.073-3.53,6.307
				c-0.52,1.278-0.823,2.709-0.74,4.077c0.102,1.691-1.062,3.187-2.738,3.43c-19.059,2.765-38.433,3.348-57.624,1.732
				c-1.351-0.114-2.509-1.07-2.821-2.389c-1.504-6.365,1.004-13.306,4.221-19.168c3.592-6.546,8.167-12.826,9.403-20.189
				c1.164-6.93-0.728-14.402,2.056-20.854c3.417-7.918,12.705-11.662,17.354-18.925c4.387-6.853,4.035-15.839,7.965-22.964
				C142.92,123.44,155.343,119.217,164.919,123.394"/>
			<path style="fill:#263238;" d="M165.989,131.902c7.291,3.748,10.66,12.666,17.743,16.794c6.451,3.759,14.5,2.767,21.884,1.658
				c-0.274-1.638-0.548-3.275-0.822-4.913c0.747,1.436,1.522,2.907,2.736,3.977c1.215,1.071,2.986,1.667,4.488,1.062
				c2.477-0.998,2.806-4.406,2.17-6.999c-1.018-4.155-3.444-7.87-6.445-10.918c-5.454-5.538-12.94-9.03-20.688-9.649
				c-7.748-0.619-15.694,1.639-21.958,6.241"/>
			<path style="fill:#263238;" d="M137.705,150.866c2.383-5.377,0.851-12.139-3.389-16.215c-4.24-4.076-10.825-5.378-16.416-3.556
				c-2.502,0.815-4.865,2.251-6.408,4.383c-2.842,3.926-2.289,9.7,0.651,13.555c2.939,3.854,7.835,5.891,12.675,6.159
				c4.84,0.268,9.643-1.06,14.119-2.922"/>
			<g>
				<path style="fill:#455A64;" d="M129.764,151.031c0.075-0.095,1.392,1.038,3.819,2.371c1.207,0.677,2.718,1.341,4.442,1.939
					c1.736,0.562,3.692,1.036,5.783,1.29c2.096,0.228,4.108,0.21,5.927,0.058c1.815-0.191,3.438-0.494,4.767-0.879
					c2.666-0.746,4.206-1.551,4.258-1.441c0.019,0.037-0.355,0.252-1.053,0.612c-0.346,0.186-0.778,0.397-1.301,0.591
					c-0.52,0.2-1.102,0.464-1.782,0.647c-1.336,0.444-2.981,0.798-4.831,1.023c-1.853,0.187-3.911,0.221-6.053-0.011
					c-2.137-0.26-4.134-0.761-5.895-1.364c-1.75-0.639-3.272-1.358-4.472-2.094c-0.62-0.333-1.127-0.722-1.588-1.035
					c-0.466-0.308-0.838-0.612-1.133-0.872C130.053,151.358,129.737,151.063,129.764,151.031z"/>
			</g>
			<g>
				<path style="fill:#455A64;" d="M159.716,164.368c0.009,0.039-0.44,0.182-1.263,0.391c-0.824,0.209-2.024,0.481-3.523,0.742
					c-2.979,0.508-7.26,1.014-11.876,0.07c-4.623-0.957-8.318-3.477-10.261-5.85c-0.988-1.18-1.611-2.27-1.944-3.058
					c-0.339-0.786-0.454-1.247-0.424-1.257c0.123-0.064,0.672,1.801,2.689,4.033c1.969,2.232,5.576,4.609,10.064,5.54
					c4.494,0.92,8.711,0.497,11.688,0.099c1.496-0.206,2.704-0.412,3.54-0.55C159.241,164.39,159.707,164.326,159.716,164.368z"/>
			</g>
			<g>
				<path style="fill:#455A64;" d="M118.432,235.323c-0.008,0.007-0.06-0.047-0.153-0.16c-0.089-0.115-0.238-0.277-0.394-0.517
					c-0.308-0.479-0.709-1.245-0.924-2.321c-0.457-2.113,0.019-5.562,2.549-8.612c1.257-1.501,2.943-2.85,4.849-4.091
					c1.901-1.255,4.039-2.408,6.133-3.82c2.073-1.417,4.166-3.138,5.586-5.454c0.704-1.152,1.205-2.453,1.388-3.831
					c0.194-1.377,0.086-2.809-0.224-4.217c-0.633-2.827-1.901-5.419-2.936-7.996c-1.065-2.557-1.896-5.204-1.96-7.805
					c-0.212-5.214,1.733-9.721,3.977-12.851c2.269-3.185,4.925-5.041,6.838-6.028c0.48-0.23,0.913-0.437,1.299-0.622
					c0.378-0.133,0.708-0.249,0.995-0.349c0.539-0.182,0.824-0.267,0.831-0.247c0.006,0.02-0.266,0.144-0.788,0.362
					c-0.278,0.115-0.598,0.247-0.965,0.399c-0.374,0.197-0.794,0.418-1.26,0.664c-1.855,1.038-4.422,2.914-6.602,6.067
					c-2.156,3.099-4.007,7.523-3.769,12.579c0.078,2.521,0.886,5.062,1.952,7.606c1.032,2.556,2.319,5.162,2.978,8.091
					c0.321,1.458,0.437,2.968,0.229,4.429c-0.196,1.462-0.735,2.849-1.478,4.056c-1.503,2.429-3.665,4.178-5.78,5.607
					c-2.14,1.423-4.28,2.555-6.172,3.779c-1.897,1.21-3.556,2.508-4.798,3.949c-2.481,2.904-3.016,6.237-2.641,8.292
					C117.567,234.397,118.524,235.282,118.432,235.323z"/>
			</g>
			<g>
				<path style="fill:#455A64;" d="M149.312,235.745c-0.01,0.018-0.239-0.111-0.671-0.378c-0.398-0.303-1.002-0.786-1.496-1.628
					c-0.51-0.823-0.916-1.971-1.043-3.341c-0.127-1.369,0.028-2.95,0.506-4.61c0.942-3.404,3.786-6.5,5.921-10.388
					c1.061-1.945,1.819-4.199,1.743-6.605c-0.041-2.399-0.769-4.841-1.862-7.157c-2.202-4.662-5.588-8.368-7.927-12.247
					c-1.183-1.93-2.152-3.882-2.735-5.828c-0.618-1.942-0.731-3.876-0.569-5.59c0.326-3.466,1.925-5.999,3.376-7.25
					c0.742-0.619,1.395-0.995,1.859-1.193c0.469-0.189,0.717-0.278,0.724-0.258c0.043,0.078-1.026,0.358-2.425,1.625
					c-1.36,1.269-2.845,3.746-3.109,7.115c-0.13,1.669,0.003,3.528,0.622,5.402c0.588,1.887,1.551,3.788,2.73,5.683
					c1.185,1.896,2.59,3.789,4.019,5.782c1.432,1.987,2.863,4.123,3.981,6.501c1.118,2.367,1.872,4.893,1.907,7.405
					c0.074,2.52-0.744,4.9-1.845,6.879c-2.219,3.958-5.058,6.993-6.003,10.249c-0.489,1.601-0.669,3.133-0.577,4.458
					c0.092,1.327,0.45,2.438,0.91,3.249C148.283,235.27,149.392,235.663,149.312,235.745z"/>
			</g>
			<g>
				<path style="fill:#455A64;" d="M195.066,148.711c-0.01,0.018-0.16-0.045-0.438-0.184c-0.276-0.143-0.671-0.38-1.148-0.731
					c-0.951-0.702-2.196-1.929-3.334-3.719c-1.165-1.776-2.157-4.103-3.21-6.658c-0.534-1.276-1.104-2.607-1.804-3.923
					c-0.731-1.295-1.537-2.616-2.559-3.823c-4.012-4.948-9.414-7.603-13.4-8.637c-4.039-1.054-6.676-0.815-6.667-0.955
					c-0.001-0.039,0.646-0.086,1.825-0.103c1.174,0.049,2.891,0.139,4.948,0.645c2.048,0.503,4.453,1.349,6.865,2.781
					c2.4,1.427,4.874,3.352,6.898,5.888c1.047,1.237,1.873,2.596,2.614,3.927c0.709,1.35,1.274,2.703,1.796,3.987
					c1.029,2.575,1.963,4.877,3.058,6.643c1.069,1.781,2.231,3.017,3.118,3.762C194.516,148.357,195.094,148.663,195.066,148.711z"
					/>
			</g>
			<g>
				<path style="fill:#455A64;" d="M211.235,148.615c-0.003,0.021-0.217-0.002-0.623-0.065c-0.408-0.053-1.001-0.198-1.741-0.452
					c-1.479-0.503-3.528-1.614-5.527-3.591c-2.022-1.947-3.971-4.699-5.736-7.925c-1.816-3.186-3.577-6.851-6.304-10.04
					c-2.699-3.228-6.363-5.15-9.838-6.137c-3.501-0.996-6.816-1.198-9.572-1.277c-2.766-0.061-5.009,0.055-6.559,0.115
					c-0.719,0.027-1.309,0.05-1.786,0.068c-0.409,0.01-0.624,0.006-0.626-0.015c-0.002-0.021,0.211-0.057,0.617-0.106
					c0.406-0.048,1.006-0.117,1.78-0.181c1.547-0.132,3.792-0.314,6.579-0.307c2.777,0.026,6.133,0.182,9.718,1.169
					c3.553,0.972,7.367,2.953,10.143,6.278c2.798,3.277,4.55,6.979,6.333,10.164c1.729,3.223,3.605,5.942,5.551,7.892
					c1.922,1.976,3.883,3.113,5.309,3.675C210.386,148.443,211.249,148.549,211.235,148.615z"/>
			</g>
			<g>
				<path style="fill:#455A64;" d="M238.613,223.865c-0.067-0.026,0.297-0.823,0.682-2.341c0.385-1.51,0.821-3.758,0.697-6.548
					c-0.099-2.774-0.76-6.107-2.464-9.369c-0.842-1.632-1.967-3.206-3.315-4.691c-1.342-1.491-2.878-2.908-4.432-4.392
					c-1.554-1.483-3.055-2.98-4.297-4.611c-1.251-1.619-2.273-3.317-3.092-5.005c-0.825-1.687-1.437-3.37-1.869-4.981
					c-0.447-1.607-0.727-3.139-0.872-4.548c-0.311-2.819-0.152-5.122,0.066-6.684c0.091-0.785,0.23-1.383,0.319-1.789
					c0.09-0.405,0.148-0.615,0.168-0.611c0.062,0.012-0.116,0.866-0.254,2.427c-0.145,1.556-0.236,3.834,0.124,6.606
					c0.17,1.385,0.47,2.889,0.93,4.463c0.445,1.578,1.064,3.225,1.887,4.873c0.817,1.65,1.828,3.307,3.059,4.886
					c1.219,1.589,2.698,3.059,4.247,4.538c1.548,1.48,3.094,2.91,4.455,4.433c1.365,1.516,2.52,3.149,3.369,4.831
					c1.722,3.364,2.35,6.783,2.396,9.612c0.071,2.846-0.439,5.118-0.897,6.625c-0.233,0.757-0.451,1.33-0.628,1.707
					C238.728,223.677,238.632,223.873,238.613,223.865z"/>
			</g>
			<g>
				<path style="fill:#455A64;" d="M111.604,147.698c-0.033-0.005-0.011-0.414,0.148-1.137c0.155-0.722,0.5-1.749,1.139-2.916
					c1.23-2.309,3.997-5.212,8.037-6.199c4.051-0.949,7.832,0.387,9.974,1.891c1.098,0.751,1.87,1.511,2.335,2.085
					c0.468,0.572,0.673,0.927,0.646,0.947c-0.095,0.089-1.018-1.303-3.213-2.674c-2.133-1.365-5.765-2.562-9.602-1.662
					c-3.827,0.933-6.525,3.644-7.809,5.826C111.922,146.075,111.729,147.734,111.604,147.698z"/>
			</g>
			<g>
				<path style="fill:#455A64;" d="M122.839,152.58c-0.074-0.014,0.003-1.021,0.324-2.632c0.34-1.573,0.926-3.917,2.74-5.813
					c1.892-1.898,4.566-2.133,6.146-1.556c0.804,0.294,1.363,0.746,1.643,1.125c0.29,0.371,0.38,0.619,0.353,0.634
					c-0.094,0.095-0.599-0.913-2.126-1.352c-1.458-0.429-3.9-0.13-5.584,1.571c-1.674,1.74-2.319,3.958-2.757,5.491
					C123.156,151.61,122.929,152.597,122.839,152.58z"/>
			</g>
			<g>
				<path style="fill:#E8505B;" d="M137.565,135.597c0.157,0.109-1.779,2.652-3.045,6.315c-1.303,3.652-1.383,6.846-1.574,6.833
					c-0.143,0.024-0.337-3.267,1.004-7.033C135.259,137.936,137.468,135.489,137.565,135.597z"/>
			</g>
		</g>
		<g>
			<g>
				<polygon style="fill:#E8505B;" points="129.366,423.432 152.801,405.874 146.185,319.022 225.087,314.856 233.168,405.874 
					240.425,419.672 246.549,457.834 111.379,457.834 				"/>
				<path style="fill:#E8505B;" d="M207.206,245.572l10.54,73.905l7.603-1.67l-9.071-69.617
					C216.278,248.19,211.429,243.943,207.206,245.572z"/>
				<path style="fill:#E8505B;" d="M146.185,319.022l-29.378-64.785c0,0,3.244-4.445,6.447-4.445c3.204,0,2.447,2.363,2.447,2.363
					l27.099,67.322L146.185,319.022z"/>
				<g>
					<path style="fill:#263238;" d="M216.087,349.661c0.009,0,0.02,0.081,0.033,0.241c0.012,0.191,0.028,0.424,0.046,0.711
						c0.039,0.625,0.068,1.547,0.089,2.736c0.017,2.375-0.009,5.832-0.622,10.054c-0.632,4.193-1.896,9.242-4.891,14.079
						c-1.487,2.413-3.487,4.67-5.885,6.61c-1.204,0.962-2.508,1.852-3.926,2.584c-1.399,0.769-2.924,1.349-4.502,1.789
						c-1.579,0.462-3.21,0.62-4.807,0.666c-1.601-0.011-3.18-0.214-4.675-0.622c-3.001-0.815-5.621-2.392-7.777-4.22
						c-4.36-3.688-6.859-8.328-8.422-12.26c-1.572-3.969-2.355-7.336-2.902-9.645c-0.262-1.159-0.452-2.062-0.573-2.676
						c-0.052-0.282-0.095-0.512-0.13-0.7c-0.026-0.158-0.036-0.24-0.027-0.242c0.009-0.002,0.035,0.076,0.079,0.231
						c0.049,0.185,0.108,0.411,0.18,0.688c0.163,0.648,0.386,1.533,0.667,2.651c0.607,2.291,1.443,5.635,3.047,9.554
						c1.594,3.886,4.096,8.436,8.389,12.032c2.123,1.783,4.686,3.311,7.603,4.095c1.454,0.392,2.984,0.586,4.538,0.596
						c1.55-0.048,3.135-0.2,4.674-0.651c1.538-0.429,3.027-0.993,4.396-1.744c1.388-0.714,2.667-1.583,3.849-2.524
						c2.355-1.897,4.328-4.105,5.798-6.467c2.967-4.739,4.26-9.723,4.933-13.879c0.655-4.185,0.738-7.628,0.783-9.998
						c0.004-1.153,0.007-2.066,0.009-2.733c0.002-0.287,0.004-0.52,0.006-0.712C216.071,349.743,216.078,349.661,216.087,349.661z"
						/>
				</g>
				<g>
					<path style="fill:#263238;" d="M211.795,346.021c0.009,0.015-0.12,0.11-0.376,0.276c-0.258,0.161-0.631,0.415-1.14,0.692
						c-1.001,0.584-2.498,1.349-4.42,2.132c-3.827,1.559-9.498,3.054-15.862,2.891c-3.17-0.065-6.16-0.406-8.879-0.592
						c-2.718-0.207-5.17-0.252-7.215-0.077c-2.045,0.171-3.675,0.528-4.773,0.866c-1.096,0.342-1.692,0.577-1.71,0.534
						c-0.007-0.016,0.134-0.091,0.412-0.218c0.281-0.116,0.683-0.331,1.235-0.509c1.09-0.401,2.733-0.819,4.801-1.039
						c2.068-0.225,4.551-0.217,7.281-0.035c2.732,0.161,5.72,0.486,8.857,0.55c6.284,0.161,11.888-1.255,15.718-2.713
						c1.922-0.733,3.433-1.442,4.458-1.968C211.211,346.29,211.773,345.984,211.795,346.021z"/>
				</g>
				<g style="opacity:0.4;">
					<path d="M167.193,362.948c1.681,7.025,3.412,14.176,7.138,20.365c3.726,6.188,9.832,11.374,17.013,12.15
						c5.989,0.647,12.072-1.903,16.405-6.088c4.333-4.185,7.025-9.861,8.365-15.734c1.341-5.873,0.381-11.546,0.041-17.56
						c0,0-0.435,6.728-1.15,9.169c-1.832,6.258-4.133,12.035-8.63,16.757c-4.496,4.722-11.244,7.502-17.665,6.369
						c-5.485-0.968-10.224-4.631-13.5-9.136c-3.275-4.505-5.247-9.817-6.868-15.146"/>
				</g>
			</g>
			<g style="opacity:0.4;">
				<path style="fill:#FFFFFF;" d="M185.154,341.001c-1.942-0.377-3.828-1.04-5.579-1.961c-0.959-0.505-1.902-1.109-2.531-1.992
					c-0.628-0.883-0.884-2.099-0.399-3.068c0.545-1.087,1.931-1.592,3.115-1.317c1.184,0.275,2.141,1.206,2.68,2.295
					c-0.548-1.535,0.635-3.581,2.259-3.436c1.197,0.107,2.07,1.299,2.205,2.493c0.134,1.194-0.299,2.375-0.78,3.476
					c-0.481,1.101-1.026,2.207-1.134,3.404"/>
			</g>
			<g style="opacity:0.4;">
				<path style="fill:#FFFFFF;" d="M204.458,417.715c-1.942-0.377-3.828-1.04-5.579-1.961c-0.959-0.505-1.902-1.109-2.531-1.992
					c-0.628-0.883-0.884-2.099-0.399-3.068c0.545-1.086,1.931-1.592,3.114-1.317c1.184,0.275,2.141,1.206,2.68,2.295
					c-0.548-1.535,0.635-3.581,2.259-3.436c1.197,0.107,2.07,1.299,2.205,2.493c0.134,1.194-0.299,2.375-0.78,3.476
					c-0.481,1.101-1.026,2.207-1.134,3.404"/>
			</g>
			<g style="opacity:0.4;">
				<path style="fill:#FFFFFF;" d="M220.3,452.108c-1.942-0.377-3.828-1.04-5.579-1.961c-0.959-0.505-1.902-1.109-2.531-1.992
					c-0.628-0.883-0.884-2.099-0.399-3.068c0.545-1.087,1.931-1.592,3.115-1.317c1.184,0.275,2.141,1.206,2.68,2.295
					c-0.548-1.535,0.635-3.581,2.259-3.436c1.197,0.107,2.07,1.299,2.205,2.493c0.134,1.194-0.299,2.374-0.78,3.476
					c-0.481,1.101-1.026,2.207-1.134,3.404"/>
			</g>
			<g style="opacity:0.4;">
				<path style="fill:#FFFFFF;" d="M195.701,372.714c-1.942-0.377-3.828-1.04-5.579-1.961c-0.959-0.504-1.902-1.109-2.531-1.992
					c-0.628-0.883-0.884-2.099-0.398-3.068c0.545-1.087,1.93-1.592,3.114-1.317c1.184,0.275,2.141,1.205,2.68,2.295
					c-0.548-1.535,0.635-3.581,2.259-3.436c1.197,0.107,2.07,1.299,2.205,2.493c0.134,1.194-0.299,2.375-0.78,3.476
					c-0.481,1.101-1.026,2.207-1.134,3.404"/>
			</g>
			<g style="opacity:0.4;">
				<path style="fill:#FFFFFF;" d="M218.926,397.257c-1.73-0.959-3.319-2.173-4.699-3.59c-0.756-0.776-1.466-1.643-1.79-2.677
					c-0.324-1.034-0.192-2.27,0.57-3.04c0.854-0.865,2.328-0.917,3.369-0.289c1.041,0.628,1.664,1.809,1.839,3.012
					c-0.047-1.63,1.711-3.209,3.211-2.569c1.105,0.472,1.567,1.876,1.326,3.053c-0.242,1.177-1.019,2.166-1.817,3.064
					c-0.798,0.898-1.658,1.781-2.131,2.886"/>
			</g>
			<g style="opacity:0.4;">
				<path style="fill:#FFFFFF;" d="M157.211,451.9c-1.73-0.959-3.319-2.173-4.699-3.59c-0.756-0.776-1.466-1.643-1.79-2.677
					c-0.324-1.034-0.192-2.27,0.57-3.04c0.854-0.865,2.328-0.917,3.369-0.289s1.664,1.809,1.839,3.012
					c-0.047-1.63,1.711-3.209,3.211-2.569c1.105,0.472,1.567,1.876,1.326,3.053c-0.242,1.177-1.019,2.166-1.817,3.064
					c-0.798,0.898-1.658,1.782-2.131,2.886"/>
			</g>
			<g style="opacity:0.4;">
				<path style="fill:#FFFFFF;" d="M207.869,336.767c-1.05-0.295-2.056-0.745-2.976-1.331c-0.504-0.321-0.995-0.696-1.3-1.209
					c-0.305-0.514-0.391-1.193-0.08-1.704c0.349-0.572,1.133-0.787,1.771-0.582c0.638,0.205,1.122,0.76,1.368,1.383
					c-0.232-0.868,0.511-1.939,1.397-1.785c0.653,0.113,1.079,0.808,1.098,1.47c0.02,0.662-0.272,1.291-0.586,1.874
					c-0.314,0.583-0.664,1.166-0.777,1.819"/>
			</g>
			<g style="opacity:0.4;">
				<path style="fill:#FFFFFF;" d="M223.148,367.262c-0.766-0.215-1.501-0.544-2.172-0.971c-0.368-0.234-0.726-0.508-0.949-0.882
					c-0.223-0.375-0.285-0.871-0.058-1.243c0.254-0.418,0.827-0.574,1.292-0.425c0.466,0.15,0.819,0.554,0.999,1.009
					c-0.169-0.634,0.373-1.415,1.02-1.303c0.476,0.083,0.787,0.59,0.801,1.073c0.014,0.483-0.198,0.942-0.428,1.368
					s-0.484,0.851-0.567,1.327"/>
			</g>
			<g style="opacity:0.4;">
				<path style="fill:#FFFFFF;" d="M221.021,324.123c-0.766-0.215-1.501-0.544-2.172-0.971c-0.368-0.234-0.726-0.508-0.949-0.883
					c-0.223-0.375-0.285-0.871-0.058-1.243c0.254-0.418,0.827-0.574,1.292-0.425c0.466,0.15,0.819,0.554,0.999,1.009
					c-0.169-0.634,0.373-1.415,1.02-1.303c0.476,0.082,0.787,0.589,0.802,1.073c0.014,0.483-0.199,0.942-0.428,1.368
					c-0.229,0.426-0.484,0.851-0.567,1.327"/>
			</g>
			<g style="opacity:0.4;">
				<path style="fill:#FFFFFF;" d="M154.893,421.246c-0.766-0.215-1.501-0.544-2.172-0.971c-0.368-0.234-0.726-0.508-0.949-0.883
					c-0.223-0.375-0.285-0.871-0.058-1.243c0.255-0.418,0.827-0.574,1.292-0.425c0.466,0.15,0.819,0.554,0.999,1.009
					c-0.169-0.634,0.373-1.415,1.019-1.303c0.476,0.082,0.787,0.59,0.802,1.073c0.014,0.483-0.199,0.942-0.428,1.368
					c-0.229,0.426-0.484,0.851-0.567,1.327"/>
			</g>
			<g style="opacity:0.4;">
				<path style="fill:#FFFFFF;" d="M227.395,422.359c-0.766-0.215-1.501-0.544-2.172-0.971c-0.368-0.234-0.726-0.508-0.949-0.883
					c-0.223-0.375-0.285-0.871-0.058-1.243c0.254-0.418,0.827-0.574,1.292-0.425c0.466,0.15,0.819,0.554,0.999,1.009
					c-0.169-0.634,0.373-1.415,1.02-1.303c0.476,0.082,0.787,0.589,0.802,1.073c0.014,0.483-0.199,0.942-0.428,1.368
					c-0.229,0.426-0.484,0.851-0.568,1.327"/>
			</g>
			<g style="opacity:0.4;">
				<path style="fill:#FFFFFF;" d="M155.199,329.778c-0.766-0.215-1.501-0.544-2.172-0.971c-0.368-0.234-0.726-0.508-0.949-0.883
					c-0.223-0.375-0.285-0.871-0.058-1.243c0.254-0.418,0.827-0.574,1.292-0.425s0.819,0.554,0.999,1.009
					c-0.169-0.634,0.373-1.415,1.02-1.303c0.476,0.082,0.787,0.589,0.802,1.073c0.014,0.483-0.198,0.942-0.428,1.368
					c-0.229,0.426-0.484,0.851-0.567,1.327"/>
			</g>
			<g style="opacity:0.4;">
				<path style="fill:#FFFFFF;" d="M179.83,402.671c-1.05-0.295-2.056-0.745-2.976-1.33c-0.504-0.321-0.995-0.696-1.3-1.209
					c-0.305-0.514-0.391-1.193-0.08-1.704c0.349-0.572,1.133-0.787,1.771-0.582c0.638,0.205,1.122,0.76,1.369,1.383
					c-0.232-0.868,0.511-1.939,1.397-1.785c0.653,0.113,1.079,0.808,1.098,1.47c0.02,0.662-0.272,1.291-0.586,1.874
					c-0.314,0.583-0.664,1.166-0.777,1.819"/>
			</g>
			<g style="opacity:0.4;">
				<path style="fill:#FFFFFF;" d="M190.828,443.935c-1.05-0.295-2.056-0.745-2.976-1.331c-0.504-0.321-0.995-0.696-1.3-1.209
					c-0.305-0.514-0.391-1.193-0.08-1.704c0.349-0.572,1.133-0.787,1.771-0.582c0.638,0.205,1.122,0.76,1.368,1.383
					c-0.232-0.868,0.511-1.939,1.397-1.785c0.653,0.113,1.079,0.808,1.098,1.47c0.02,0.662-0.272,1.291-0.586,1.874
					c-0.314,0.583-0.664,1.166-0.777,1.819"/>
			</g>
			<g style="opacity:0.4;">
				<path style="fill:#FFFFFF;" d="M159.874,370.239c-1.05-0.295-2.056-0.745-2.976-1.331c-0.504-0.321-0.995-0.696-1.3-1.209
					c-0.305-0.514-0.391-1.193-0.08-1.704c0.349-0.572,1.133-0.787,1.771-0.582c0.638,0.205,1.122,0.76,1.368,1.383
					c-0.232-0.868,0.511-1.939,1.397-1.785c0.653,0.113,1.079,0.808,1.098,1.47c0.02,0.662-0.272,1.291-0.586,1.874
					s-0.664,1.166-0.777,1.819"/>
			</g>
			<g>
				<path style="fill:#263238;" d="M233.168,405.874c0.01,0.015-0.229,0.178-0.694,0.476c-0.474,0.281-1.136,0.765-2.069,1.245
					c-1.826,1.034-4.598,2.314-8.17,3.475c-7.13,2.362-17.577,3.796-29.012,3.01c-5.708-0.428-11.124-0.993-16.03-1.72
					c-4.905-0.722-9.283-1.642-12.906-2.606c-3.623-0.968-6.504-1.93-8.466-2.664c-0.988-0.35-1.736-0.671-2.249-0.873
					c-0.511-0.208-0.775-0.326-0.769-0.343c0.007-0.017,0.284,0.068,0.806,0.245c0.525,0.17,1.283,0.46,2.279,0.78
					c1.979,0.674,4.869,1.579,8.491,2.499c3.623,0.915,7.99,1.794,12.884,2.487c4.891,0.698,10.309,1.248,15.995,1.675
					c11.377,0.781,21.757-0.586,28.867-2.842c3.563-1.108,6.339-2.328,8.186-3.302c0.944-0.45,1.62-0.904,2.11-1.155
					C232.901,405.993,233.159,405.859,233.168,405.874z"/>
			</g>
		</g>
		<path style="fill:#FFBE9D;" d="M109.268,385.316c0.387,0.58,4.193,3.53,4.193,3.53l6.966-2.512l8.695,4.444
			c0,0,7.799,0.821,7.867,3.636c0.068,2.815,4.643,16.654-1.297,26.122c-5.94,9.468-10.135,12.608-10.135,12.608l-20.314-21.536
			l-6.003-4.656L109.268,385.316z"/>
	</g>
</g>
<g id="Table">
	<g>
		<path style="fill:#263238;" d="M466.485,457.833c0,0.144-96.036,0.26-214.475,0.26c-118.48,0-214.496-0.117-214.496-0.26
			c0-0.144,96.015-0.26,214.496-0.26C370.449,457.573,466.485,457.69,466.485,457.833z"/>
	</g>
</g>
<g id="Confetti">
	<g>
		<circle style="fill:#E8505B;" cx="273.269" cy="175.412" r="2.48"/>
		<circle style="fill:#E8505B;" cx="51.875" cy="270.93" r="2.48"/>
		<path style="fill:#E8505B;" d="M458.516,171.488c0,1.37-1.11,2.48-2.48,2.48c-1.37,0-2.48-1.11-2.48-2.48
			c0-1.37,1.11-2.48,2.48-2.48C457.406,169.008,458.516,170.119,458.516,171.488z"/>
		<path style="fill:#E8505B;" d="M72.364,148.546c0,1.37-1.11,2.48-2.48,2.48c-1.37,0-2.48-1.11-2.48-2.48
			c0-1.37,1.11-2.48,2.48-2.48C71.253,146.066,72.364,147.176,72.364,148.546z"/>
		<circle style="fill:#E8505B;" cx="206.605" cy="90.896" r="2.48"/>
		<circle style="fill:#E8505B;" cx="343.846" cy="120.334" r="2.48"/>
		<path style="fill:#E8505B;" d="M304.735,223.342c0.366,0.366,0.366,0.96,0,1.327c-0.366,0.366-0.96,0.366-1.327,0
			c-0.366-0.366-0.366-0.96,0-1.327C303.774,222.976,304.368,222.976,304.735,223.342z"/>
		<path style="fill:#E8505B;" d="M392.582,159.426c0.366,0.366,0.366,0.96,0,1.327c-0.366,0.366-0.96,0.366-1.327,0
			c-0.366-0.366-0.366-0.96,0-1.327C391.622,159.06,392.215,159.06,392.582,159.426z"/>
		<path style="fill:#E8505B;" d="M266.72,117.854c0.366,0.366,0.366,0.96,0,1.327c-0.366,0.366-0.96,0.366-1.327,0
			c-0.366-0.366-0.366-0.96,0-1.327C265.759,117.488,266.353,117.488,266.72,117.854z"/>
		<path style="fill:#E8505B;" d="M391.918,67.547c0.366,0.366,0.366,0.96,0,1.327c-0.366,0.366-0.96,0.366-1.327,0
			c-0.366-0.366-0.366-0.96,0-1.327C390.958,67.181,391.552,67.181,391.918,67.547z"/>
		<path style="fill:#E8505B;" d="M457.363,220.499c0.366,0.366,0.366,0.96,0,1.327c-0.366,0.366-0.96,0.366-1.327,0
			c-0.366-0.366-0.366-0.96,0-1.327C456.403,220.132,456.997,220.132,457.363,220.499z"/>
		<path style="fill:#E8505B;" d="M131.547,78.297c0.366,0.366,0.366,0.96,0,1.327c-0.366,0.366-0.96,0.366-1.327,0
			c-0.366-0.366-0.366-0.96,0-1.327C130.586,77.93,131.18,77.93,131.547,78.297z"/>
		<path style="fill:#E8505B;" d="M50.722,221.162c0.366,0.366,0.366,0.96,0,1.327c-0.366,0.366-0.96,0.366-1.327,0
			c-0.366-0.366-0.366-0.96,0-1.327C49.762,220.796,50.356,220.796,50.722,221.162z"/>
		<path style="fill:#E8505B;" d="M40.031,105.562c0.366,0.366,0.366,0.96,0,1.327c-0.366,0.366-0.96,0.366-1.327,0
			c-0.366-0.366-0.366-0.96,0-1.327C39.071,105.195,39.665,105.195,40.031,105.562z"/>
		<path style="fill:#E8505B;" d="M263.761,61.49c-0.449,0.259-1.022,0.105-1.281-0.343c-0.259-0.449-0.105-1.022,0.343-1.282
			c0.449-0.259,1.022-0.105,1.281,0.343C264.363,60.657,264.21,61.231,263.761,61.49z"/>
		<path style="fill:#E8505B;" d="M451.774,88.416c0,1.37-1.11,2.48-2.48,2.48c-1.37,0-2.48-1.11-2.48-2.48
			c0-1.37,1.11-2.48,2.48-2.48C450.664,85.936,451.774,87.046,451.774,88.416z"/>
		<circle style="fill:#E8505B;" cx="309.215" cy="44.265" r="2.48"/>
		<path style="fill:#E8505B;" d="M348.009,203.526c0,1.37-1.11,2.48-2.48,2.48c-1.37,0-2.48-1.11-2.48-2.48
			c0-1.37,1.11-2.48,2.48-2.48C346.899,201.046,348.009,202.156,348.009,203.526z"/>
	</g>
</g>
<g id="Cake">
	<g>
		<g>
			<circle style="fill:#E8505B;" cx="333.143" cy="269.324" r="3.747"/>
			<g>
				<path style="fill:#263238;" d="M323.592,260.815c-0.005-0.059,0.676-0.191,1.779-0.05c1.093,0.134,2.611,0.607,3.976,1.644
					c1.365,1.037,2.229,2.372,2.651,3.389c0.431,1.024,0.488,1.716,0.429,1.727c-0.081,0.021-0.264-0.628-0.761-1.568
					c-0.49-0.938-1.35-2.159-2.633-3.133c-1.283-0.974-2.689-1.476-3.724-1.696C324.267,260.901,323.593,260.898,323.592,260.815z"
					/>
			</g>
			<g>
				<path style="fill:#263238;" d="M331.39,267.497c0.064-0.131,0.471-0.084,0.879-0.32c0.421-0.214,0.603-0.58,0.747-0.563
					c0.066,0.011,0.116,0.153,0.055,0.371c-0.058,0.216-0.251,0.486-0.554,0.65c-0.302,0.164-0.633,0.179-0.846,0.11
					C331.455,267.678,331.363,267.559,331.39,267.497z"/>
			</g>
			<g>
				<path style="fill:#FFFFFF;" d="M335.772,270.93c-0.14-0.047,0.486-1.303-0.034-2.767c-0.518-1.464-1.796-2.046-1.716-2.17
					c0.022-0.06,0.375-0.014,0.854,0.285c0.474,0.292,1.057,0.879,1.353,1.711c0.294,0.832,0.211,1.655,0.027,2.181
					C336.072,270.705,335.827,270.963,335.772,270.93z"/>
			</g>
		</g>
		<g>
			<path style="fill:#E8505B;" d="M365.925,268.077c0,2.916-2.364,5.28-5.28,5.28c-2.916,0-5.28-2.364-5.28-5.28
				c0-2.916,2.364-5.28,5.28-5.28C363.561,262.797,365.925,265.161,365.925,268.077z"/>
			<g>
				<path style="fill:#455A64;" d="M374.104,256.086c0,0.088-0.952,0.065-2.43,0.367c-1.47,0.293-3.475,0.994-5.299,2.379
					c-1.825,1.386-3.038,3.13-3.714,4.467c-0.687,1.343-0.92,2.266-1.005,2.242c-0.054-0.009,0.051-0.974,0.673-2.401
					c0.609-1.417,1.825-3.275,3.732-4.724c1.906-1.448,4.022-2.121,5.551-2.327C373.151,255.874,374.11,256.031,374.104,256.086z"/>
			</g>
			<g>
				<path style="fill:#263238;" d="M363.115,265.503c0.026,0.06-0.109,0.2-0.402,0.275c-0.289,0.076-0.73,0.046-1.135-0.174
					c-0.406-0.221-0.671-0.574-0.764-0.857c-0.098-0.286-0.054-0.476,0.011-0.487c0.142-0.024,0.363,0.559,1.002,0.887
					C362.449,265.503,363.058,265.37,363.115,265.503z"/>
			</g>
			<g>
				<path style="fill:#FFFFFF;" d="M356.94,270.34c-0.052,0.032-0.372-0.342-0.609-1.089c-0.239-0.735-0.341-1.871,0.065-3.019
					c0.408-1.148,1.203-1.966,1.852-2.387c0.655-0.431,1.138-0.52,1.158-0.462c0.033,0.075-0.385,0.283-0.936,0.756
					c-0.549,0.465-1.218,1.241-1.583,2.267c-0.363,1.027-0.332,2.05-0.198,2.757C356.819,269.877,357.013,270.303,356.94,270.34z"/>
			</g>
		</g>
		<path style="fill:#E8505B;" d="M372.668,319.909h-52.944v-44.107c0-1.659,1.345-3.004,3.004-3.004h49.94V319.909z"/>
		<g style="opacity:0.3;">
			<path d="M321.638,275.648c16.278,0.202,32.106-0.815,48.383-0.613l2.632,1.766l0.057,7.758c0,0-1.124,0.445-1.437-0.402
				c-0.313-0.848-0.187-2.07-0.029-2.96c-0.956-0.629-1.515,0.218-1.99,1.26c-0.474,1.041-0.36,2.24-0.369,3.384
				c-0.009,1.144-0.217,2.411-1.109,3.128c-0.987,0.793-2.496,0.592-3.54-0.123c-1.044-0.716-1.729-1.833-2.38-2.918
				c-0.919-1.532-1.872-3.113-3.321-4.158c-1.449-1.045-3.543-1.418-5.009-0.397c-1.58,1.101-2.166,3.55-4.045,3.966
				c-2.18,0.483-3.969-2.253-6.197-2.108c-1.879,0.123-2.944,2.137-3.753,3.838c-0.809,1.701-2.22,3.618-4.076,3.296
				c-2.457-0.426-3.078-4.401-5.559-4.653c-1.898-0.193-3.141,1.96-4.901,2.698c-1.8,0.755-4.009-0.183-5.087-1.81
				c-1.078-1.628-1.174-3.751-0.701-5.645S320.665,277.341,321.638,275.648"/>
		</g>
		<path style="fill:#E8505B;" d="M372.842,272.607c-0.921-0.444-1.982-0.465-3.004-0.478c-15.82-0.196-31.23,0.721-47.001,0.659
			c-1.99-0.008-3.794,1.146-4.634,2.95c-0.378,0.811-0.699,1.645-0.916,2.514c-0.489,1.959-0.39,4.155,0.725,5.838
			c1.115,1.683,3.399,2.653,5.261,1.872c1.819-0.763,3.105-2.99,5.068-2.79c2.566,0.26,3.208,4.371,5.749,4.812
			c2.183,0.379,3.772-2.24,4.525-4.116c0.355-0.885,0.847-1.727,1.571-2.348c3.327-2.854,5.542,1.901,8.41,1.266
			c1.944-0.431,2.55-2.964,4.184-4.102c1.516-1.056,3.682-0.671,5.181,0.41c1.499,1.081,2.484,2.716,3.434,4.3
			c0.673,1.123,1.382,2.278,2.461,3.018c1.08,0.74,2.64,0.947,3.661,0.127c0.923-0.741,1.137-2.051,1.147-3.234
			c0.009-1.184-0.109-2.423,0.382-3.5c0.491-1.077,1.894-1.853,2.882-1.202c-0.164,0.92-0.324,1.892-0.001,2.768
			c0.323,0.877,1.318,1.579,2.189,1.239c0.927-0.361,1.137-1.555,1.208-2.547C375.523,277.278,375.357,273.819,372.842,272.607z"/>
		<g>
			<path style="fill:#E8505B;" d="M346.6,243.95c-1.158-0.303-2.142-1.204-2.546-2.332c-0.403-1.127-0.214-2.449,0.49-3.417
				c0.758-1.044,2.064-1.705,2.484-2.925c0.212-0.617,0.161-1.289,0.259-1.934c0.098-0.645,0.423-1.337,1.046-1.531
				c0.543-0.169,1.148,0.113,1.512,0.55c0.364,0.437,0.535,1.001,0.671,1.553c0.49,1.98,0.656,4.101,0.018,6.039
				C349.897,241.891,348.597,243.531,346.6,243.95"/>
			<g>
				<rect x="344.665" y="245.538" style="fill:#455A64;" width="3.768" height="26.906"/>
				<g>
					<path style="fill:#263238;" d="M348.389,247.85c0.036,0.045-0.753,0.727-1.762,1.522c-1.009,0.796-1.855,1.404-1.891,1.359
						c-0.036-0.045,0.753-0.727,1.762-1.522C347.507,248.413,348.353,247.805,348.389,247.85z"/>
				</g>
				<g>
					<path style="fill:#263238;" d="M348.389,252.592c0.036,0.045-0.753,0.727-1.762,1.522c-1.009,0.796-1.855,1.404-1.891,1.359
						c-0.036-0.045,0.753-0.727,1.762-1.522C347.507,253.155,348.353,252.546,348.389,252.592z"/>
				</g>
				<g>
					<path style="fill:#263238;" d="M348.389,257.334c0.036,0.045-0.753,0.727-1.762,1.522c-1.009,0.796-1.855,1.404-1.891,1.359
						c-0.036-0.045,0.753-0.727,1.762-1.522C347.507,257.897,348.353,257.289,348.389,257.334z"/>
				</g>
				<g>
					<path style="fill:#263238;" d="M348.389,262.076c0.036,0.045-0.753,0.727-1.762,1.522c-1.009,0.796-1.855,1.404-1.891,1.359
						c-0.036-0.045,0.753-0.727,1.762-1.522C347.507,262.639,348.353,262.03,348.389,262.076z"/>
				</g>
				<g>
					<path style="fill:#263238;" d="M348.389,266.817c0.036,0.045-0.753,0.727-1.762,1.522c-1.009,0.796-1.855,1.404-1.891,1.359
						c-0.036-0.045,0.753-0.727,1.762-1.522C347.507,267.381,348.353,266.772,348.389,266.817z"/>
				</g>
			</g>
			<g>
				<path style="fill:#263238;" d="M346.613,241.262c0.057,0,0.104,1.001,0.104,2.236c0,1.235-0.047,2.236-0.104,2.236
					c-0.058,0-0.104-1.001-0.104-2.236C346.509,242.263,346.556,241.262,346.613,241.262z"/>
			</g>
		</g>
		<g>
			<g>
				<path style="fill:#E8505B;" d="M290.282,320.017c-1.665-1.768-1.561-4.896,0.216-6.551c0.977-0.91,2.292-1.352,3.415-2.074
					c1.123-0.723,2.127-1.965,1.861-3.273c-0.187-0.921-0.98-1.737-0.806-2.661c0.171-0.908,1.273-1.395,2.177-1.202
					c0.904,0.193,1.621,0.869,2.226,1.568c2.059,2.383,3.383,5.393,3.749,8.521c0.178,1.516-0.244,4.326-1.337,5.391
					c0,0-2.86,0.272-4.767,0.156"/>
				<path style="fill:#E8505B;" d="M308.876,320.017c-1.665-1.768-1.561-4.896,0.216-6.551c0.977-0.91,2.292-1.352,3.415-2.074
					c1.123-0.723,2.127-1.965,1.861-3.273c-0.187-0.921-0.98-1.737-0.806-2.661c0.171-0.908,1.273-1.395,2.177-1.202
					c0.904,0.193,1.622,0.869,2.226,1.568c2.059,2.383,3.383,5.393,3.749,8.521c0.178,1.516-0.244,4.326-1.337,5.391
					c0,0-2.86,0.272-4.767,0.156"/>
				<path style="fill:#E8505B;" d="M327.471,320.017c-1.664-1.768-1.561-4.896,0.216-6.551c0.977-0.91,2.292-1.352,3.415-2.074
					c1.123-0.723,2.127-1.965,1.861-3.273c-0.187-0.921-0.98-1.737-0.806-2.661c0.171-0.908,1.273-1.395,2.177-1.202
					c0.904,0.193,1.622,0.869,2.226,1.568c2.059,2.383,3.383,5.393,3.749,8.521c0.178,1.516-0.244,4.326-1.337,5.391
					c0,0-2.86,0.272-4.767,0.156"/>
				<path style="fill:#E8505B;" d="M346.066,320.017c-1.665-1.768-1.561-4.896,0.216-6.551c0.977-0.91,2.292-1.352,3.415-2.074
					c1.123-0.723,2.127-1.965,1.861-3.273c-0.187-0.921-0.98-1.737-0.806-2.661c0.171-0.908,1.273-1.395,2.177-1.202
					c0.904,0.193,1.621,0.869,2.226,1.568c2.059,2.383,3.383,5.393,3.749,8.521c0.178,1.516-0.244,4.326-1.337,5.391
					c0,0-2.86,0.272-4.767,0.156"/>
				<path style="fill:#E8505B;" d="M364.66,320.017c-1.664-1.768-1.561-4.896,0.216-6.551c0.977-0.91,2.292-1.352,3.415-2.074
					c1.123-0.723,2.127-1.965,1.861-3.273c-0.187-0.921-0.98-1.737-0.806-2.661c0.171-0.908,1.273-1.395,2.177-1.202
					s1.622,0.869,2.226,1.568c2.059,2.383,3.383,5.393,3.749,8.521c0.178,1.516-0.244,4.326-1.337,5.391c0,0-2.86,0.272-4.767,0.156
					"/>
				<path style="fill:#E8505B;" d="M383.255,320.017c-1.664-1.768-1.561-4.896,0.216-6.551c0.977-0.91,2.292-1.352,3.415-2.074
					c1.123-0.723,2.127-1.965,1.861-3.273c-0.187-0.921-0.98-1.737-0.806-2.661c0.171-0.908,1.273-1.395,2.177-1.202
					c0.904,0.193,1.622,0.869,2.226,1.568c2.059,2.383,3.383,5.393,3.749,8.521c0.178,1.516-0.244,4.326-1.337,5.391
					c0,0-2.86,0.272-4.767,0.156"/>
			</g>
			<g style="opacity:0.8;">
				<path style="fill:#FFFFFF;" d="M290.282,320.017c-1.665-1.768-1.561-4.896,0.216-6.551c0.977-0.91,2.292-1.352,3.415-2.074
					c1.123-0.723,2.127-1.965,1.861-3.273c-0.187-0.921-0.98-1.737-0.806-2.661c0.171-0.908,1.273-1.395,2.177-1.202
					c0.904,0.193,1.621,0.869,2.226,1.568c2.059,2.383,3.383,5.393,3.749,8.521c0.178,1.516-0.244,4.326-1.337,5.391
					c0,0-2.86,0.272-4.767,0.156"/>
				<path style="fill:#FFFFFF;" d="M308.876,320.017c-1.665-1.768-1.561-4.896,0.216-6.551c0.977-0.91,2.292-1.352,3.415-2.074
					c1.123-0.723,2.127-1.965,1.861-3.273c-0.187-0.921-0.98-1.737-0.806-2.661c0.171-0.908,1.273-1.395,2.177-1.202
					c0.904,0.193,1.622,0.869,2.226,1.568c2.059,2.383,3.383,5.393,3.749,8.521c0.178,1.516-0.244,4.326-1.337,5.391
					c0,0-2.86,0.272-4.767,0.156"/>
				<path style="fill:#FFFFFF;" d="M327.471,320.017c-1.664-1.768-1.561-4.896,0.216-6.551c0.977-0.91,2.292-1.352,3.415-2.074
					c1.123-0.723,2.127-1.965,1.861-3.273c-0.187-0.921-0.98-1.737-0.806-2.661c0.171-0.908,1.273-1.395,2.177-1.202
					c0.904,0.193,1.622,0.869,2.226,1.568c2.059,2.383,3.383,5.393,3.749,8.521c0.178,1.516-0.244,4.326-1.337,5.391
					c0,0-2.86,0.272-4.767,0.156"/>
				<path style="fill:#FFFFFF;" d="M346.066,320.017c-1.665-1.768-1.561-4.896,0.216-6.551c0.977-0.91,2.292-1.352,3.415-2.074
					c1.123-0.723,2.127-1.965,1.861-3.273c-0.187-0.921-0.98-1.737-0.806-2.661c0.171-0.908,1.273-1.395,2.177-1.202
					c0.904,0.193,1.621,0.869,2.226,1.568c2.059,2.383,3.383,5.393,3.749,8.521c0.178,1.516-0.244,4.326-1.337,5.391
					c0,0-2.86,0.272-4.767,0.156"/>
				<path style="fill:#FFFFFF;" d="M364.66,320.017c-1.664-1.768-1.561-4.896,0.216-6.551c0.977-0.91,2.292-1.352,3.415-2.074
					c1.123-0.723,2.127-1.965,1.861-3.273c-0.187-0.921-0.98-1.737-0.806-2.661c0.171-0.908,1.273-1.395,2.177-1.202
					s1.622,0.869,2.226,1.568c2.059,2.383,3.383,5.393,3.749,8.521c0.178,1.516-0.244,4.326-1.337,5.391c0,0-2.86,0.272-4.767,0.156
					"/>
				<path style="fill:#FFFFFF;" d="M383.255,320.017c-1.664-1.768-1.561-4.896,0.216-6.551c0.977-0.91,2.292-1.352,3.415-2.074
					c1.123-0.723,2.127-1.965,1.861-3.273c-0.187-0.921-0.98-1.737-0.806-2.661c0.171-0.908,1.273-1.395,2.177-1.202
					c0.904,0.193,1.622,0.869,2.226,1.568c2.059,2.383,3.383,5.393,3.749,8.521c0.178,1.516-0.244,4.326-1.337,5.391
					c0,0-2.86,0.272-4.767,0.156"/>
			</g>
		</g>
		<rect x="282.444" y="319.909" style="fill:#E8505B;" width="125.889" height="55.579"/>
		<rect x="249.576" y="446.891" style="fill:#263238;" width="191.211" height="10.243"/>
		<g style="opacity:0.3;">
			<path d="M278.997,443.496c-0.041,0.138-0.677,0.069-1.42-0.154c-0.743-0.223-1.312-0.515-1.27-0.653
				c0.041-0.138,0.677-0.069,1.42,0.154C278.469,443.066,279.038,443.359,278.997,443.496z"/>
		</g>
		<g style="opacity:0.3;">
			<path d="M295.158,442.981c0.09,0.112-0.138,0.444-0.51,0.742c-0.371,0.297-0.745,0.448-0.835,0.335
				c-0.09-0.112,0.138-0.444,0.51-0.742C294.694,443.019,295.068,442.869,295.158,442.981z"/>
		</g>
		<g style="opacity:0.3;">
			<path d="M314.56,443.463c-0.119,0.081-0.46-0.212-0.762-0.654c-0.302-0.443-0.451-0.867-0.332-0.948
				c0.119-0.081,0.46,0.212,0.762,0.654C314.53,442.958,314.679,443.382,314.56,443.463z"/>
		</g>
		<g style="opacity:0.3;">
			<path d="M335.455,440.24c0.122,0.077-0.083,0.62-0.457,1.212c-0.374,0.593-0.776,1.011-0.898,0.934
				c-0.122-0.077,0.083-0.619,0.457-1.212C334.931,440.582,335.333,440.164,335.455,440.24z"/>
		</g>
		<g style="opacity:0.3;">
			<path d="M348.682,444.573c-0.102,0.102-0.485-0.117-0.857-0.488c-0.371-0.372-0.59-0.755-0.488-0.857
				c0.102-0.102,0.485,0.117,0.857,0.489C348.565,444.087,348.784,444.471,348.682,444.573z"/>
		</g>
		<g style="opacity:0.3;">
			<path d="M367.516,444.034c0,0.144-0.361,0.26-0.807,0.26s-0.807-0.116-0.807-0.26c0-0.144,0.361-0.26,0.807-0.26
				S367.516,443.891,367.516,444.034z"/>
		</g>
		<g style="opacity:0.3;">
			<path d="M386.35,441.075c0.071,0.125-0.292,0.467-0.812,0.764c-0.52,0.297-1,0.437-1.071,0.312
				c-0.071-0.125,0.292-0.467,0.813-0.764C385.799,441.09,386.279,440.95,386.35,441.075z"/>
		</g>
		<g style="opacity:0.3;">
			<path d="M409.758,443.765c0.046,0.136-0.098,0.307-0.321,0.382c-0.223,0.074-0.44,0.024-0.486-0.113
				c-0.045-0.136,0.098-0.307,0.321-0.381C409.495,443.579,409.712,443.629,409.758,443.765z"/>
		</g>
		<g style="opacity:0.3;">
			<path d="M417.009,440.781c0.065,0.128-0.002,0.293-0.15,0.368c-0.148,0.075-0.321,0.032-0.386-0.096
				c-0.065-0.128,0.002-0.293,0.15-0.368C416.771,440.609,416.944,440.652,417.009,440.781z"/>
		</g>
		<g>
			<path style="fill:#E8505B;" d="M421.542,446.891h-152.72c-1.489,0-2.696-1.207-2.696-2.696v-62.75
				c0-4.027,3.264-7.291,7.291-7.291h148.125c1.489,0,2.696,1.207,2.696,2.696v67.344
				C424.238,445.684,423.031,446.891,421.542,446.891z"/>
			<g style="opacity:0.3;">
				<path d="M422.651,435.07c-34.03-1.349-68.137-2.696-102.118-0.401c-15.457,1.044-31.125,2.829-46.328-0.176
					c-1.753-0.347-3.566-0.756-5.305-0.343c-0.604,0.143-1.196,0.422-1.704,0.8c-1.322,0.982-0.871,3.112,0.737,3.443
					c26.279,5.406,53.292-1.719,80.196-0.49c9.027,0.412,18.034,1.734,27.062,1.347c6.19-0.266,12.322-1.333,18.508-1.688
					c9.641-0.553,19.342,0.628,28.953-0.318c0.775-0.076,1.784-0.44,1.701-1.222C424.276,435.308,423.36,435.098,422.651,435.07z"/>
			</g>
			<g style="opacity:0.3;">
				<path d="M265.922,398.221c2.677,1.846,6.46,1.921,9.208,0.183c2.748-1.738,4.301-5.189,3.781-8.398
					c1.528,2.47,4.909,3.603,7.617,2.551c2.708-1.051,4.439-4.168,3.899-7.023c2.219,2.173,6.25,2.062,8.347-0.229
					c0.828-0.905,1.409-2.104,2.506-2.654c1.735-0.871,3.91,0.412,4.775,2.151c0.865,1.738,0.817,3.766,0.916,5.706
					c0.099,1.939,0.443,4.03,1.841,5.376c1.399,1.346,4.158,1.332,4.949-0.441c0.458-1.026,0.337-2.55,1.401-2.911
					c0.804-0.272,1.62,0.464,1.937,1.252c0.317,0.788,0.36,1.68,0.779,2.419c0.87,1.536,3.097,1.813,4.697,1.066
					c1.6-0.747,2.716-2.223,3.766-3.643c-0.241,2.306-0.474,4.694,0.249,6.898c0.723,2.204,2.677,4.181,4.996,4.158
					c2.968-0.029,4.972-3.137,5.578-6.042c0.606-2.905,0.423-6.027,1.719-8.697c0.797-1.642,2.592-3.136,4.31-2.518
					c1.861,0.669,2.286,3.277,4.01,4.246c2.072,1.165,4.567-0.659,5.957-2.587s2.74-4.302,5.081-4.715
					c2.492-0.441,4.757,1.692,5.795,4c1.038,2.308,1.324,4.911,2.466,7.169c1.142,2.258,3.66,4.198,6.068,3.422
					c1.981-0.639,2.993-2.754,4.211-4.442c1.219-1.688,3.55-3.163,5.26-1.977c1.617,1.121,1.613,4.017,3.507,4.552
					c2.336,0.66,3.554-3.058,5.886-3.731c3.259-0.941,5.016,4.249,8.297,5.111c2.674,0.703,5.165-1.794,6.197-4.359
					c1.032-2.565,1.33-5.482,2.988-7.694c1.658-2.213,5.574-3.059,6.976-0.676c0.545,0.927,0.548,2.08,1.003,3.054
					c1.153,2.469,6.269,2.693,7.341,0.188v-10.788H266.125L265.922,398.221z"/>
			</g>
			<path style="fill:#E8505B;" d="M422.735,432.99c-34.381-1.349-68.84-2.696-103.171-0.401c-15.617,1.044-31.446,2.83-46.806-0.176
				c-1.771-0.347-3.603-0.756-5.359-0.343c-0.611,0.143-1.208,0.422-1.722,0.8c-1.336,0.982-0.88,3.112,0.744,3.443
				c26.55,5.405,53.842-1.719,81.023-0.49c9.12,0.413,18.22,1.734,27.341,1.347c6.254-0.266,12.449-1.333,18.699-1.687
				c9.74-0.553,19.542,0.628,29.251-0.318c0.783-0.076,1.802-0.44,1.719-1.222C424.377,433.228,423.452,433.018,422.735,432.99z"/>
			<g style="opacity:0.3;">
				<path d="M268.002,418.301c14.723,0.394,29.445,0.787,44.168,1.181c14.017,0.375,28.099,0.746,42.008-1.023
					c13.151-1.673,26.257-5.259,39.456-4.031c5.947,0.553,11.775,2.079,17.728,2.576c5.105,0.426,7.877,1.384,12.875-0.889v-2.747
					c-13.065,0.002-24.031-1.458-36.855-1.464c-13.716-0.006-27.263,1.542-40.979,1.536c-25.139-0.01-50.277-0.02-75.416-0.031
					c-1.461-0.001-2.994,0.017-4.272,0.725C265.438,414.842,265.195,417.931,268.002,418.301"/>
			</g>
			<g style="opacity:0.3;">
				<path d="M281.581,426.79c-0.085,0.116-0.585-0.108-1.116-0.5c-0.531-0.392-0.892-0.803-0.806-0.919
					c0.085-0.116,0.585,0.108,1.116,0.5C281.305,426.263,281.666,426.675,281.581,426.79z"/>
			</g>
			<g style="opacity:0.3;">
				<path d="M295.432,423.409c-0.114-0.088-0.047-0.365,0.149-0.617c0.196-0.253,0.447-0.387,0.56-0.298
					c0.114,0.088,0.047,0.364-0.149,0.617C295.797,423.364,295.546,423.497,295.432,423.409z"/>
			</g>
			<g style="opacity:0.3;">
				<path d="M313.128,427.893c-0.112,0.094-0.428-0.101-0.792-0.331c-0.361-0.235-0.669-0.442-0.63-0.583
					c0.035-0.137,0.476-0.136,0.912,0.145C313.054,427.403,313.238,427.805,313.128,427.893z"/>
			</g>
			<g style="opacity:0.3;">
				<path d="M322.383,421.911c0.087,0.115-0.165,0.452-0.563,0.754c-0.398,0.302-0.791,0.454-0.878,0.339
					c-0.087-0.115,0.165-0.452,0.563-0.754C321.903,421.948,322.296,421.796,322.383,421.911z"/>
			</g>
			<g style="opacity:0.3;">
				<path d="M340.235,426.176c-0.129,0.064-0.369-0.158-0.536-0.495c-0.167-0.337-0.199-0.662-0.07-0.726
					c0.129-0.064,0.369,0.158,0.536,0.495C340.333,425.787,340.364,426.112,340.235,426.176z"/>
			</g>
			<g style="opacity:0.3;">
				<path d="M366.57,420.984c0.08,0.12-0.129,0.399-0.465,0.623c-0.337,0.224-0.674,0.309-0.754,0.19
					c-0.08-0.12,0.129-0.399,0.465-0.623C366.152,420.949,366.49,420.865,366.57,420.984z"/>
			</g>
			<g style="opacity:0.3;">
				<path d="M386.619,426.546c-0.136,0.062-0.494-0.462-1.065-0.954c-0.563-0.501-1.131-0.787-1.087-0.93
					c0.029-0.136,0.768-0.046,1.43,0.538C386.562,425.779,386.749,426.499,386.619,426.546z"/>
			</g>
			<g style="opacity:0.3;">
				<path d="M404.887,417.373c0.108,0.096-0.288,0.715-0.882,1.383c-0.595,0.669-1.164,1.133-1.272,1.037
					c-0.107-0.096,0.288-0.715,0.883-1.383C404.21,417.742,404.78,417.278,404.887,417.373z"/>
			</g>
			<g style="opacity:0.3;">
				<path d="M414.912,425.713c-0.13,0.068-0.47-0.324-1.042-0.505c-0.564-0.203-1.072-0.096-1.134-0.23
					c-0.087-0.118,0.524-0.529,1.301-0.264C414.816,424.974,415.053,425.672,414.912,425.713z"/>
			</g>
			<g style="opacity:0.3;">
				<path d="M401.955,439.191c0,0.144-0.422,0.26-0.942,0.26c-0.52,0-0.942-0.117-0.942-0.26s0.422-0.26,0.942-0.26
					C401.533,438.931,401.955,439.048,401.955,439.191z"/>
			</g>
			<path style="fill:#E8505B;" d="M265.492,416.001c14.723,0.394,29.445,0.787,44.168,1.181c14.016,0.375,28.099,0.746,42.008-1.023
				c13.151-1.673,26.257-5.259,39.456-4.031c5.948,0.553,11.775,2.079,17.728,2.576c5.105,0.426,12.111-0.036,17.109-2.309
				c0.658-0.299,0.457-1.285-0.266-1.285c-13.065,0.002-27.83,0.053-40.654,0.048c-13.716-0.006-27.432-0.011-41.148-0.017
				c-25.139-0.01-50.277-0.02-75.416-0.031c-1.461-0.001-2.994,0.017-4.272,0.725C262.928,412.543,262.685,415.632,265.492,416.001"
				/>
			<g style="opacity:0.3;">
				<path d="M358.334,404.558c-0.116-0.085,0.306-0.858,0.943-1.726c0.637-0.869,1.247-1.504,1.363-1.418
					c0.116,0.085-0.306,0.858-0.943,1.726C359.061,404.008,358.45,404.643,358.334,404.558z"/>
			</g>
			<g style="opacity:0.3;">
				<path d="M376.993,404.977c-0.131,0.06-0.472-0.409-0.761-1.045c-0.29-0.637-0.418-1.201-0.287-1.261
					c0.131-0.059,0.472,0.409,0.761,1.045C376.995,404.353,377.124,404.918,376.993,404.977z"/>
			</g>
			<g style="opacity:0.3;">
				<path d="M391.668,402.042c0.08,0.12-0.278,0.498-0.799,0.846c-0.521,0.347-1.008,0.532-1.088,0.412
					c-0.08-0.12,0.278-0.498,0.799-0.846C391.101,402.107,391.589,401.923,391.668,402.042z"/>
			</g>
			<g style="opacity:0.3;">
				<path d="M414.336,403.486c-0.107,0.096-0.616-0.295-1.137-0.874c-0.521-0.579-0.857-1.126-0.75-1.223
					c0.107-0.096,0.616,0.295,1.137,0.874C414.108,402.842,414.443,403.39,414.336,403.486z"/>
			</g>
			<g style="opacity:0.3;">
				<path d="M312.213,407.284c-0.102-0.102,0.144-0.513,0.549-0.918c0.405-0.405,0.816-0.651,0.918-0.55
					c0.102,0.102-0.144,0.513-0.55,0.918C312.725,407.139,312.314,407.385,312.213,407.284z"/>
			</g>
			<g style="opacity:0.3;">
				<path d="M299.036,402.926c-0.081-0.119,0.273-0.501,0.79-0.854c0.517-0.353,1.002-0.543,1.083-0.424
					c0.081,0.119-0.273,0.501-0.79,0.854C299.602,402.855,299.117,403.045,299.036,402.926z"/>
			</g>
			<g style="opacity:0.3;">
				<path d="M276.992,406.235c-0.068,0.123-0.578-0.059-0.912-0.596c-0.337-0.536-0.276-1.074-0.136-1.081
					c0.147-0.016,0.308,0.383,0.578,0.805C276.783,405.791,277.071,406.111,276.992,406.235z"/>
			</g>
			<g style="opacity:0.3;">
				<path d="M290.2,395.124c0.109,0.094-0.084,0.498-0.431,0.903c-0.347,0.405-0.717,0.658-0.827,0.564
					c-0.109-0.094,0.084-0.498,0.431-0.903C289.721,395.283,290.091,395.03,290.2,395.124z"/>
			</g>
			<path style="fill:#E8505B;" d="M265.922,394.178c2.677,1.846,6.46,1.921,9.208,0.183c2.748-1.738,4.301-5.189,3.781-8.398
				c1.528,2.47,4.909,3.603,7.617,2.551c2.708-1.052,4.439-4.168,3.899-7.023c2.219,2.173,6.25,2.062,8.347-0.229
				c1.128-1.232,1.797-3.01,3.934-2.952c1.02,0.027,1.976,0.557,2.628,1.343c1.612,1.943,1.514,4.444,1.635,6.811
				c0.099,1.939,0.443,4.03,1.841,5.376c1.399,1.346,4.158,1.332,4.949-0.441c0.458-1.026,0.337-2.55,1.401-2.911
				c0.804-0.272,1.62,0.464,1.937,1.252c0.317,0.788,0.36,1.68,0.779,2.419c0.87,1.536,3.097,1.813,4.697,1.066
				c1.6-0.747,2.716-2.223,3.766-3.643c-0.289,2.766-0.567,5.648,0.802,8.19c0.759,1.409,2.055,2.526,3.632,2.799
				c3.413,0.59,5.73-2.812,6.39-5.975c0.696-3.336,0.351-6.958,2.4-9.853c0.663-0.936,1.725-1.585,2.87-1.515
				c2.536,0.154,2.832,3.31,4.769,4.398c2.072,1.165,4.567-0.659,5.957-2.587c1.572-2.179,3.091-4.928,6.049-4.772
				c1.37,0.072,2.604,0.828,3.486,1.879c2.794,3.328,2.173,8.004,5.099,11.258c0.908,1.01,2.163,1.704,3.521,1.703
				c2.856-0.002,4.014-2.621,5.467-4.633c1.219-1.688,3.55-3.163,5.26-1.977c1.617,1.121,1.613,4.017,3.507,4.552
				c2.336,0.66,3.554-3.058,5.886-3.731c3.259-0.941,5.016,4.249,8.297,5.111c2.674,0.703,5.165-1.794,6.197-4.359
				c1.203-2.991,1.409-6.46,3.936-8.733c1.205-1.084,2.94-1.473,4.455-0.898c2.252,0.855,1.868,2.802,2.575,4.315
				c1.153,2.469,6.269,2.693,7.341,0.188l0.666-8.758c0.106-1.396-0.996-2.587-2.395-2.591l-152.716-0.397
				c-2.48-0.015-4.476,2.033-4.397,4.512L265.922,394.178z"/>
			<g style="opacity:0.6;">
				<path style="fill:#FFFFFF;" d="M265.492,416.001c14.723,0.394,29.445,0.787,44.168,1.181
					c14.016,0.375,28.099,0.746,42.008-1.023c13.151-1.673,26.257-5.259,39.456-4.031c5.948,0.553,11.775,2.079,17.728,2.576
					c5.105,0.426,12.111-0.036,17.109-2.309c0.658-0.299,0.457-1.285-0.266-1.285c-13.065,0.002-27.83,0.053-40.654,0.048
					c-13.716-0.006-27.432-0.011-41.148-0.017c-25.139-0.01-50.277-0.02-75.416-0.031c-1.461-0.001-2.994,0.017-4.272,0.725
					C262.928,412.543,262.685,415.632,265.492,416.001"/>
			</g>
			<g style="opacity:0.6;">
				<path style="fill:#FFFFFF;" d="M422.735,432.99c-34.381-1.349-68.84-2.696-103.171-0.401
					c-15.617,1.044-31.446,2.83-46.806-0.176c-1.771-0.347-3.603-0.756-5.359-0.343c-0.611,0.143-1.208,0.422-1.722,0.8
					c-1.336,0.982-0.88,3.112,0.744,3.443c26.55,5.405,53.842-1.719,81.023-0.49c9.12,0.413,18.22,1.734,27.341,1.347
					c6.254-0.266,12.449-1.333,18.699-1.687c9.74-0.553,19.542,0.628,29.251-0.318c0.783-0.076,1.802-0.44,1.719-1.222
					C424.377,433.228,423.452,433.018,422.735,432.99z"/>
			</g>
		</g>
		<g style="opacity:0.3;">
			<path d="M406.889,348.849c-27.187-1.078-54.434-2.154-81.581-0.32c-12.349,0.834-24.865,2.26-37.011-0.141
				c-1.401-0.277-2.849-0.604-4.238-0.274c-0.483,0.115-0.955,0.337-1.362,0.639c-1.056,0.784-0.696,2.486,0.588,2.75
				c20.994,4.318,42.575-1.374,64.068-0.391c7.212,0.33,14.407,1.385,21.62,1.076c4.945-0.212,9.844-1.065,14.786-1.348
				c7.702-0.442,15.452,0.502,23.13-0.254c0.619-0.061,1.425-0.351,1.359-0.976C408.188,349.039,407.456,348.872,406.889,348.849z"
				/>
		</g>
		<path style="fill:#E8505B;" d="M406.956,347.188c-27.467-1.077-54.996-2.154-82.422-0.32c-12.476,0.834-25.122,2.26-37.393-0.141
			c-1.415-0.277-2.878-0.604-4.282-0.274c-0.488,0.115-0.965,0.337-1.376,0.639c-1.067,0.784-0.703,2.486,0.594,2.75
			c21.21,4.318,43.014-1.373,64.729-0.391c7.286,0.33,14.556,1.385,21.843,1.076c4.996-0.212,9.946-1.065,14.938-1.348
			c7.781-0.442,15.612,0.502,23.369-0.254c0.626-0.061,1.44-0.351,1.373-0.976C408.268,347.378,407.529,347.21,406.956,347.188z"/>
		<g style="opacity:0.3;">
			<path d="M282.444,319.909c0,6.83,5.161,13.436,10.154,15.671c4.993,2.235,10.917,2.291,15.951,0.151
				c4.306-1.83,8.575-5.258,13.096-4.056c2.407,0.639,4.26,2.493,6.242,4.001c1.982,1.508,4.543,2.76,6.895,1.941
				c3.662-1.274,4.764-6.8,8.584-7.458c3.962-0.683,7.335,4.592,11.199,3.481c2.751-0.791,3.875-4.433,6.606-5.289
				c2.653-0.831,5.383,1.369,8.153,1.139c2.264-0.188,4.178-1.972,6.448-2.081c2.357-0.113,4.414,1.619,5.79,3.536
				c1.376,1.917,2.36,4.134,4.022,5.809c1.662,1.676,4.357,2.692,6.4,1.51c1.928-1.115,2.453-3.589,3.114-5.717
				c0.661-2.127,2.165-4.496,4.388-4.351c2.362,0.154,3.927,3.137,6.288,2.977c1.528-0.104,2.664-1.598,2.892-3.113
				c0.228-1.514-0.231-3.038-0.686-4.501L282.444,319.909z"/>
		</g>
		<path style="fill:#E8505B;" d="M282.444,319.636c1.759,5.18,5.161,10.253,10.154,12.488c4.993,2.235,10.917,2.291,15.951,0.151
			c4.306-1.83,8.575-5.258,13.096-4.056c2.407,0.639,4.26,2.493,6.242,4.001s4.543,2.76,6.895,1.941
			c3.662-1.273,4.764-6.8,8.584-7.458c3.962-0.683,7.335,4.592,11.199,3.481c2.751-0.791,3.875-4.433,6.606-5.289
			c2.653-0.83,5.383,1.369,8.153,1.139c2.264-0.188,4.178-1.972,6.448-2.08c2.357-0.113,4.414,1.619,5.79,3.536
			c1.376,1.917,2.36,4.134,4.022,5.809c1.662,1.676,4.357,2.692,6.4,1.51c1.928-1.115,2.453-3.589,3.114-5.716
			c0.661-2.127,2.165-4.496,4.388-4.351c2.362,0.154,3.927,3.137,6.288,2.977c1.528-0.104,2.664-1.599,2.892-3.113
			c0.228-1.514,0.515-3.934,0.061-5.396L282.444,319.636z"/>
		<g style="opacity:0.3;">
			<path d="M300.14,364.014c-0.116-0.085,0.509-1.139,1.395-2.355c0.887-1.216,1.7-2.133,1.816-2.048
				c0.116,0.085-0.508,1.139-1.396,2.355C301.069,363.182,300.256,364.099,300.14,364.014z"/>
		</g>
		<g style="opacity:0.3;">
			<path d="M317.743,363.152c-0.095,0.108-0.696-0.263-1.343-0.829c-0.647-0.566-1.095-1.113-1.001-1.221
				c0.095-0.108,0.696,0.263,1.343,0.83C317.39,362.497,317.838,363.044,317.743,363.152z"/>
		</g>
		<g style="opacity:0.3;">
			<path d="M311.59,367.254c0.09,0.112-0.165,0.466-0.57,0.789c-0.405,0.324-0.805,0.495-0.895,0.383
				c-0.09-0.112,0.165-0.466,0.57-0.789C311.1,367.313,311.5,367.142,311.59,367.254z"/>
		</g>
		<g style="opacity:0.3;">
			<path d="M334.444,359.636c-0.12,0.08-0.61-0.446-1.096-1.174c-0.485-0.728-0.782-1.383-0.662-1.463
				c0.12-0.08,0.61,0.446,1.096,1.174C334.267,358.902,334.564,359.557,334.444,359.636z"/>
		</g>
		<g style="opacity:0.3;">
			<path d="M335.313,368.709c0.111,0.084-0.238,0.66-0.977,0.944c-0.737,0.288-1.384,0.098-1.358-0.039
				c0.014-0.148,0.565-0.205,1.17-0.446C334.757,368.938,335.202,368.61,335.313,368.709z"/>
		</g>
		<g style="opacity:0.3;">
			<path d="M351.731,361.101c-0.088,0.107-0.704-0.302-1.06-1.108c-0.36-0.804-0.251-1.535-0.112-1.529
				c0.149-0.004,0.273,0.624,0.588,1.318C351.451,360.48,351.834,360.993,351.731,361.101z"/>
		</g>
		<g style="opacity:0.3;">
			<path d="M354.091,367.317c0.036,0.139-0.459,0.387-1.105,0.553c-0.646,0.166-1.199,0.188-1.235,0.049
				c-0.036-0.139,0.459-0.387,1.105-0.553C353.502,367.199,354.055,367.178,354.091,367.317z"/>
		</g>
		<g style="opacity:0.3;">
			<path d="M367.26,360.808c-0.129,0.064-0.561-0.54-0.965-1.349c-0.405-0.809-0.628-1.517-0.5-1.582
				c0.129-0.064,0.561,0.539,0.965,1.349C367.165,360.036,367.389,360.744,367.26,360.808z"/>
		</g>
		<g style="opacity:0.3;">
			<path d="M373.413,369.012c-0.096-0.113,0.264-0.566,0.566-1.182c0.312-0.611,0.458-1.171,0.606-1.162
				c0.139-0.001,0.223,0.674-0.14,1.395C374.086,368.786,373.496,369.124,373.413,369.012z"/>
		</g>
		<g style="opacity:0.3;">
			<path d="M380.422,359.357c-0.102,0.103-0.65-0.496-0.534-1.406c0.109-0.911,0.787-1.359,0.86-1.234
				c0.1,0.109-0.269,0.595-0.343,1.298C380.306,358.715,380.546,359.276,380.422,359.357z"/>
		</g>
		<g style="opacity:0.3;">
			<path d="M393.411,366.361c-0.141,0.028-0.387-0.604-0.55-1.413c-0.163-0.809-0.181-1.488-0.04-1.516
				c0.141-0.028,0.387,0.604,0.55,1.413C393.534,365.653,393.552,366.332,393.411,366.361z"/>
		</g>
		<g style="opacity:0.3;">
			<path d="M399.745,364.885c-0.119-0.08,0.047-0.538,0.372-1.023c0.325-0.485,0.685-0.813,0.805-0.733
				c0.119,0.08-0.047,0.538-0.372,1.023C400.225,364.637,399.865,364.965,399.745,364.885z"/>
		</g>
		<g style="opacity:0.3;">
			<path d="M400.565,340.238c-0.122-0.076-0.02-0.462,0.229-0.863c0.249-0.401,0.549-0.664,0.672-0.588
				c0.122,0.076,0.02,0.462-0.229,0.863C400.987,340.051,400.687,340.314,400.565,340.238z"/>
		</g>
		<g style="opacity:0.3;">
			<path d="M374.585,341.763c-0.129,0.064-0.561-0.539-0.965-1.348c-0.405-0.809-0.628-1.517-0.5-1.582
				c0.128-0.064,0.561,0.539,0.965,1.349C374.49,340.991,374.714,341.699,374.585,341.763z"/>
		</g>
		<g style="opacity:0.3;">
			<path d="M377.808,334.439c-0.144,0-0.261-0.066-0.261-0.147s0.117-0.146,0.261-0.146c0.144,0,0.26,0.066,0.26,0.146
				S377.952,334.439,377.808,334.439z"/>
		</g>
		<g style="opacity:0.3;">
			<path d="M355.296,340.923c-0.113-0.089,0.315-0.821,0.957-1.635c0.641-0.814,1.253-1.401,1.366-1.312
				c0.113,0.089-0.315,0.821-0.957,1.635C356.021,340.425,355.409,341.012,355.296,340.923z"/>
		</g>
		<g style="opacity:0.3;">
			<path d="M344.992,337.954c-0.135-0.051-0.047-0.616,0.196-1.263c0.243-0.647,0.549-1.131,0.683-1.081
				c0.135,0.051,0.047,0.616-0.196,1.263C345.433,337.521,345.127,338.005,344.992,337.954z"/>
		</g>
		<g style="opacity:0.3;">
			<path d="M337.081,341.177c-0.064-0.129,0.277-0.43,0.763-0.672c0.486-0.243,0.931-0.335,0.995-0.207s-0.277,0.43-0.763,0.672
				C337.591,341.214,337.145,341.306,337.081,341.177z"/>
		</g>
		<g style="opacity:0.3;">
			<path d="M319.171,339.735c-0.123,0.074-0.421-0.192-0.665-0.596c-0.244-0.404-0.342-0.791-0.219-0.866
				c0.123-0.074,0.421,0.193,0.665,0.596C319.196,339.273,319.294,339.66,319.171,339.735z"/>
		</g>
		<g style="opacity:0.3;">
			<path d="M318.938,337.087c-0.129-0.064-0.102-0.379,0.06-0.702c0.162-0.324,0.397-0.534,0.526-0.47
				c0.128,0.064,0.102,0.379-0.06,0.703C319.302,336.941,319.067,337.151,318.938,337.087z"/>
		</g>
		<g style="opacity:0.3;">
			<path d="M306.902,345.865c-0.129,0.064-0.626-0.671-1.112-1.641c-0.486-0.971-0.775-1.81-0.646-1.875
				c0.129-0.064,0.626,0.671,1.112,1.642C306.742,344.962,307.031,345.801,306.902,345.865z"/>
		</g>
		<g style="opacity:0.3;">
			<ellipse cx="293.424" cy="340.591" rx="0.26" ry="0.879"/>
		</g>
		<g style="opacity:0.3;">
			<path d="M284.927,340.298c-0.142-0.02-0.192-0.496-0.111-1.062c0.081-0.566,0.262-1.009,0.404-0.989
				c0.142,0.02,0.192,0.496,0.111,1.062C285.251,339.876,285.07,340.319,284.927,340.298z"/>
		</g>
		<g style="opacity:0.3;">
			<path d="M318.329,343.521c0.045,0.137-0.508,0.444-1.236,0.687c-0.728,0.243-1.355,0.329-1.401,0.193
				c-0.046-0.137,0.508-0.444,1.236-0.687C317.656,343.471,318.284,343.385,318.329,343.521z"/>
		</g>
		<g style="opacity:0.8;">
			<path style="fill:#FFFFFF;" d="M265.922,394.178c2.677,1.846,6.46,1.921,9.208,0.183c2.748-1.738,4.301-5.189,3.781-8.398
				c1.528,2.47,4.909,3.603,7.617,2.551c2.708-1.052,4.439-4.168,3.899-7.023c2.219,2.173,6.25,2.062,8.347-0.229
				c1.128-1.232,1.797-3.01,3.934-2.952c1.02,0.027,1.976,0.557,2.628,1.343c1.612,1.943,1.514,4.444,1.635,6.811
				c0.099,1.939,0.443,4.03,1.841,5.376c1.399,1.346,4.158,1.332,4.949-0.441c0.458-1.026,0.337-2.55,1.401-2.911
				c0.804-0.272,1.62,0.464,1.937,1.252c0.317,0.788,0.36,1.68,0.779,2.419c0.87,1.536,3.097,1.813,4.697,1.066
				c1.6-0.747,2.716-2.223,3.766-3.643c-0.289,2.766-0.567,5.648,0.802,8.19c0.759,1.409,2.055,2.526,3.632,2.799
				c3.413,0.59,5.73-2.812,6.39-5.975c0.696-3.336,0.351-6.958,2.4-9.853c0.663-0.936,1.725-1.585,2.87-1.515
				c2.536,0.154,2.832,3.31,4.769,4.398c2.072,1.165,4.567-0.659,5.957-2.587c1.572-2.179,3.091-4.928,6.049-4.772
				c1.37,0.072,2.604,0.828,3.486,1.879c2.794,3.328,2.173,8.004,5.099,11.258c0.908,1.01,2.163,1.704,3.521,1.703
				c2.856-0.002,4.014-2.621,5.467-4.633c1.219-1.688,3.55-3.163,5.26-1.977c1.617,1.121,1.613,4.017,3.507,4.552
				c2.336,0.66,3.554-3.058,5.886-3.731c3.259-0.941,5.016,4.249,8.297,5.111c2.674,0.703,5.165-1.794,6.197-4.359
				c1.203-2.991,1.409-6.46,3.936-8.733c1.205-1.084,2.94-1.473,4.455-0.898c2.252,0.855,1.868,2.802,2.575,4.315
				c1.153,2.469,6.269,2.693,7.341,0.188l0.666-8.758c0.106-1.396-0.996-2.587-2.395-2.591l-152.716-0.397
				c-2.48-0.015-4.476,2.033-4.397,4.512L265.922,394.178z"/>
		</g>
		<g style="opacity:0.8;">
			<path style="fill:#FFFFFF;" d="M282.444,319.636c1.759,5.18,5.161,10.253,10.154,12.488c4.993,2.235,10.917,2.291,15.951,0.151
				c4.306-1.83,8.575-5.258,13.096-4.056c2.407,0.639,4.26,2.493,6.242,4.001s4.543,2.76,6.895,1.941
				c3.662-1.273,4.764-6.8,8.584-7.458c3.962-0.683,7.335,4.592,11.199,3.481c2.751-0.791,3.875-4.433,6.606-5.289
				c2.653-0.83,5.383,1.369,8.153,1.139c2.264-0.188,4.178-1.972,6.448-2.08c2.357-0.113,4.414,1.619,5.79,3.536
				c1.376,1.917,2.36,4.134,4.022,5.809c1.662,1.676,4.357,2.692,6.4,1.51c1.928-1.115,2.453-3.589,3.114-5.716
				c0.661-2.127,2.165-4.496,4.388-4.351c2.362,0.154,3.927,3.137,6.288,2.977c1.528-0.104,2.664-1.599,2.892-3.113
				c0.228-1.514,0.515-3.934,0.061-5.396L282.444,319.636z"/>
		</g>
		<g style="opacity:0.8;">
			<path style="fill:#FFFFFF;" d="M372.842,272.607c-0.921-0.444-1.982-0.465-3.004-0.478c-15.82-0.196-31.23,0.721-47.001,0.659
				c-1.99-0.008-3.794,1.146-4.634,2.95c-0.378,0.811-0.699,1.645-0.916,2.514c-0.489,1.959-0.39,4.155,0.725,5.838
				c1.115,1.683,3.399,2.653,5.261,1.872c1.819-0.763,3.105-2.99,5.068-2.79c2.566,0.26,3.208,4.371,5.749,4.812
				c2.183,0.379,3.772-2.24,4.525-4.116c0.355-0.885,0.847-1.727,1.571-2.348c3.327-2.854,5.542,1.901,8.41,1.266
				c1.944-0.431,2.55-2.964,4.184-4.102c1.516-1.056,3.682-0.671,5.181,0.41c1.499,1.081,2.484,2.716,3.434,4.3
				c0.673,1.123,1.382,2.278,2.461,3.018c1.08,0.74,2.64,0.947,3.661,0.127c0.923-0.741,1.137-2.051,1.147-3.234
				c0.009-1.184-0.109-2.423,0.382-3.5c0.491-1.077,1.894-1.853,2.882-1.202c-0.164,0.92-0.324,1.892-0.001,2.768
				c0.323,0.877,1.318,1.579,2.189,1.239c0.927-0.361,1.137-1.555,1.208-2.547C375.523,277.278,375.357,273.819,372.842,272.607z"/>
		</g>
		<g style="opacity:0.6;">
			<path style="fill:#FFFFFF;" d="M406.956,347.188c-27.467-1.077-54.996-2.154-82.422-0.32c-12.476,0.834-25.122,2.26-37.393-0.141
				c-1.415-0.277-2.878-0.604-4.282-0.274c-0.488,0.115-0.965,0.337-1.376,0.639c-1.067,0.784-0.703,2.486,0.594,2.75
				c21.21,4.318,43.014-1.373,64.729-0.391c7.286,0.33,14.556,1.385,21.843,1.076c4.996-0.212,9.946-1.065,14.938-1.348
				c7.781-0.442,15.612,0.502,23.369-0.254c0.626-0.061,1.44-0.351,1.373-0.976C408.268,347.378,407.529,347.21,406.956,347.188z"/>
		</g>
		<g>
			<path style="fill:#E8505B;" d="M304.346,290.697c-1.158-0.303-2.142-1.204-2.546-2.332c-0.403-1.127-0.214-2.448,0.49-3.417
				c0.758-1.044,2.064-1.705,2.484-2.925c0.212-0.617,0.161-1.289,0.259-1.934c0.098-0.645,0.423-1.337,1.046-1.531
				c0.543-0.169,1.148,0.113,1.512,0.55c0.364,0.437,0.535,1.001,0.671,1.553c0.49,1.98,0.656,4.101,0.018,6.039
				C307.642,288.638,306.342,290.278,304.346,290.697"/>
			<g>
				<rect x="302.41" y="292.285" style="fill:#455A64;" width="3.768" height="26.906"/>
				<g>
					<path style="fill:#263238;" d="M306.134,294.597c0.036,0.045-0.753,0.727-1.762,1.522c-1.009,0.796-1.855,1.404-1.891,1.359
						c-0.036-0.045,0.753-0.727,1.762-1.522C305.252,295.16,306.099,294.552,306.134,294.597z"/>
				</g>
				<g>
					<path style="fill:#263238;" d="M306.134,299.339c0.036,0.045-0.753,0.727-1.762,1.522c-1.009,0.796-1.855,1.404-1.891,1.359
						c-0.036-0.045,0.753-0.727,1.762-1.522C305.252,299.902,306.099,299.294,306.134,299.339z"/>
				</g>
				<g>
					<path style="fill:#263238;" d="M306.134,304.081c0.036,0.045-0.753,0.727-1.762,1.522c-1.009,0.796-1.855,1.404-1.891,1.359
						c-0.036-0.045,0.753-0.727,1.762-1.522C305.252,304.644,306.099,304.035,306.134,304.081z"/>
				</g>
				<g>
					<path style="fill:#263238;" d="M306.134,308.823c0.036,0.045-0.753,0.727-1.762,1.522c-1.009,0.796-1.855,1.404-1.891,1.359
						c-0.036-0.045,0.753-0.727,1.762-1.522C305.252,309.386,306.099,308.777,306.134,308.823z"/>
				</g>
				<g>
					<path style="fill:#263238;" d="M306.134,313.564c0.036,0.045-0.753,0.727-1.762,1.522c-1.009,0.796-1.855,1.404-1.891,1.359
						c-0.036-0.045,0.753-0.727,1.762-1.522C305.252,314.128,306.099,313.519,306.134,313.564z"/>
				</g>
			</g>
			<g>
				<path style="fill:#263238;" d="M304.359,288.009c0.057,0,0.104,1.001,0.104,2.236c0,1.235-0.047,2.236-0.104,2.236
					s-0.104-1.001-0.104-2.236C304.255,289.01,304.302,288.009,304.359,288.009z"/>
			</g>
		</g>
		<g>
			<path style="fill:#E8505B;" d="M396.943,290.444c-1.158-0.303-2.142-1.205-2.546-2.332c-0.403-1.127-0.214-2.448,0.49-3.417
				c0.758-1.044,2.064-1.705,2.484-2.925c0.212-0.617,0.16-1.289,0.259-1.934c0.098-0.645,0.423-1.336,1.046-1.53
				c0.543-0.169,1.148,0.113,1.512,0.55c0.364,0.437,0.535,1.001,0.671,1.553c0.49,1.98,0.656,4.101,0.018,6.039
				C400.239,288.385,398.939,290.025,396.943,290.444"/>
			<g>
				<rect x="395.007" y="292.032" style="fill:#455A64;" width="3.768" height="26.906"/>
				<g>
					<path style="fill:#263238;" d="M398.731,294.344c0.036,0.045-0.753,0.727-1.762,1.522c-1.009,0.796-1.855,1.404-1.891,1.359
						c-0.036-0.045,0.753-0.727,1.762-1.522C397.849,294.907,398.696,294.299,398.731,294.344z"/>
				</g>
				<g>
					<path style="fill:#263238;" d="M398.731,299.086c0.036,0.045-0.753,0.727-1.762,1.522c-1.009,0.796-1.855,1.404-1.891,1.359
						c-0.036-0.045,0.753-0.727,1.762-1.522C397.849,299.649,398.696,299.04,398.731,299.086z"/>
				</g>
				<g>
					<path style="fill:#263238;" d="M398.731,303.828c0.036,0.045-0.753,0.727-1.762,1.522c-1.009,0.796-1.855,1.404-1.891,1.359
						c-0.036-0.045,0.753-0.727,1.762-1.522C397.849,304.391,398.696,303.782,398.731,303.828z"/>
				</g>
				<g>
					<path style="fill:#263238;" d="M398.731,308.569c0.036,0.045-0.753,0.727-1.762,1.522c-1.009,0.796-1.855,1.404-1.891,1.359
						c-0.036-0.045,0.753-0.727,1.762-1.522C397.849,309.133,398.696,308.524,398.731,308.569z"/>
				</g>
				<g>
					<path style="fill:#263238;" d="M398.731,313.311c0.036,0.045-0.753,0.727-1.762,1.522c-1.009,0.796-1.855,1.404-1.891,1.359
						c-0.036-0.045,0.753-0.727,1.762-1.522C397.849,313.875,398.696,313.266,398.731,313.311z"/>
				</g>
			</g>
			<g>
				<path style="fill:#263238;" d="M396.956,287.756c0.057,0,0.104,1.001,0.104,2.236c0,1.235-0.047,2.236-0.104,2.236
					s-0.104-1.001-0.104-2.236C396.852,288.757,396.898,287.756,396.956,287.756z"/>
			</g>
		</g>
	</g>
</g>
</svg>
